<svg width="18" height="16" viewBox="0 0 18 16" fill="none" xmlns="http://www.w3.org/2000/svg">
<g clip-path="url(#clip0_142_1592)">
<path d="M17.6171 7.88519C17.6171 7.62822 17.5224 7.3918 17.333 7.19651L11.0558 0.402119C10.8475 0.175982 10.6487 0.09375 10.4215 0.09375C9.95754 0.09375 9.59773 0.463792 9.59773 0.97774C9.59773 1.22444 9.67348 1.46085 9.82501 1.62532L11.9458 3.96891L15.7045 7.6899L15.8939 7.17595L12.8452 6.97037H0.868331C0.376 6.97037 0.0351562 7.35069 0.0351562 7.88519C0.0351562 8.41971 0.376 8.80002 0.868331 8.80002H12.8452L15.8939 8.59444L15.7045 8.09078L11.9458 11.8014L9.82501 14.1451C9.67348 14.2993 9.59773 14.546 9.59773 14.7926C9.59773 15.3066 9.95754 15.6767 10.4215 15.6767C10.6487 15.6767 10.8475 15.5841 11.0369 15.3888L17.333 8.57388C17.5224 8.37858 17.6171 8.14217 17.6171 7.88519Z" fill="#F2F2F7"/>
</g>
<defs>
<clipPath id="clip0_142_1592">
<rect width="17.9322" height="15.5932" fill="white" transform="translate(0.0332031 0.0927734)"/>
</clipPath>
</defs>
</svg>
