<svg width="242" height="144" viewBox="0 0 242 144" fill="none" xmlns="http://www.w3.org/2000/svg">
<path d="M13.3683 99.8643C12.7811 100.048 12.2924 100.165 11.9023 100.215L11.0052 97.3441C11.2396 97.3305 11.6233 97.2404 12.1562 97.0739C13.0044 96.8089 13.612 96.4041 13.979 95.8597C14.3535 95.301 14.5469 94.5065 14.5591 93.4761L14.5509 92.476L2.57286 76.7208L6.37353 75.533L15.4511 88.5958L15.5327 88.5703L15.5571 72.6631L19.2762 71.5009L18.4281 92.1059C18.3295 94.4643 17.9129 96.206 17.1782 97.3308C16.4544 98.4523 15.1844 99.2968 13.3683 99.8643ZM36.675 76.9857L28.3722 79.5804L30.7986 87.3448L27.2916 88.4408L21.7557 70.7261L25.2627 69.6301L27.4954 76.7747L35.7982 74.1801L33.5655 67.0355L37.0725 65.9395L42.6084 83.6542L39.1014 84.7502L36.675 76.9857ZM46.5722 82.4155L41.0363 64.7008L44.5108 63.615L48.4256 76.1426L48.5561 76.1018L53.1071 60.9287L56.5816 59.8429L62.1175 77.5576L58.643 78.6434L54.7128 66.0669L54.5823 66.1077L50.0467 81.3298L46.5722 82.4155ZM81.2839 71.568L76.8634 72.9494L67.1446 66.9446L67.0141 66.9854L69.5883 75.2229L66.0813 76.3189L60.5453 58.6042L64.0524 57.5082L66.4329 65.1259L66.5634 65.0851L71.246 55.2602L75.4544 53.9451L70.1643 64.7476L81.2839 71.568ZM88.4999 66.4124C89.8157 66.0012 90.7968 65.2828 91.4432 64.2572C92.0861 63.2207 92.2258 62.1207 91.8622 60.9571L91.4289 59.5706L87.2143 61.2099C84.8151 62.1268 83.8636 63.3791 84.3597 64.9668C84.5976 65.728 85.0907 66.2364 85.839 66.4919C86.5907 66.7584 87.4777 66.7319 88.4999 66.4124ZM88.4357 69.53C86.6631 70.084 85.0727 70.0558 83.6645 69.4454C82.2528 68.8242 81.3006 67.7252 80.8078 66.1484C80.3253 64.6042 80.5281 63.2099 81.4165 61.9654C82.2939 60.7243 83.8089 59.6899 85.9614 58.862L90.6541 57.0912L90.2259 55.721C89.9098 54.7096 89.3406 54.034 88.5182 53.6942C87.7101 53.3619 86.7134 53.3809 85.5281 53.7513C84.5711 54.0504 83.8323 54.5319 83.3117 55.1959C82.8019 55.8566 82.5916 56.5967 82.6806 57.4164L79.3693 58.4512C78.9343 56.8683 79.2187 55.353 80.2226 53.9053C81.2265 52.4576 82.7234 51.4228 84.7135 50.8009C86.8775 50.1246 88.766 50.1134 90.3788 50.7672C92.0025 51.4177 93.0879 52.6183 93.6351 54.3691L97.4327 66.5215L94.0562 67.5767L93.1335 64.6242L93.052 64.6497C92.8616 65.7596 92.3492 66.7553 91.5146 67.6368C90.6799 68.5183 89.6536 69.1494 88.4357 69.53ZM103.896 55.6924C104.558 58.4579 104.706 60.5958 104.343 62.106C103.924 63.8602 102.791 65.0262 100.942 65.6039C100.452 65.7568 100.031 65.8228 99.6787 65.8017L98.705 62.6861C99.0258 62.6814 99.3494 62.628 99.6756 62.5261C100.502 62.2678 100.974 61.601 101.092 60.5258C101.196 59.5981 101.039 58.2744 100.621 56.5549L98.2748 46.8136L110.509 42.9905L116.045 60.7052L112.538 61.8012L107.878 46.8921L102.251 48.6507L103.896 55.6924ZM120.564 48.926L122.644 55.5812L125.743 54.6127C126.809 54.2796 127.567 53.7084 128.019 52.8989C128.459 52.0928 128.523 51.1895 128.21 50.1891C127.894 49.1777 127.32 48.4678 126.488 48.0594C125.671 47.6584 124.729 47.6244 123.663 47.9574L120.564 48.926ZM114.472 41.7518L117.98 40.6558L119.697 46.1529L123.074 45.0977C125.129 44.4555 126.938 44.4932 128.499 45.2109C130.06 45.9286 131.133 47.2227 131.717 49.0931C132.302 50.9636 132.158 52.6437 131.287 54.1335C130.412 55.6125 128.947 56.6731 126.892 57.3154L120.008 59.4665L114.472 41.7518ZM146.063 42.8018L137.76 45.3964L140.186 53.1609L136.679 54.2568L131.143 36.5421L134.65 35.4462L136.883 42.5908L145.186 39.9961L142.953 32.8515L146.46 31.7556L151.996 49.4703L148.489 50.5662L146.063 42.8018ZM166.1 25.6181L169.607 24.5222L175.143 42.2369L171.636 43.3329L166.1 25.6181ZM156.515 37.691L158.595 44.3463L161.694 43.3777C162.76 43.0447 163.519 42.4735 163.97 41.664C164.41 40.8579 164.474 39.9546 164.162 38.9542C163.846 37.9428 163.272 37.2329 162.44 36.8244C161.622 36.4234 160.68 36.3895 159.615 36.7225L156.515 37.691ZM150.424 30.5169L153.931 29.4209L155.649 34.918L159.025 33.8628C161.081 33.2205 162.889 33.2582 164.45 33.976C166.011 34.6937 167.084 35.9878 167.669 37.8582C168.253 39.7286 168.11 41.4087 167.238 42.8986C166.364 44.3775 164.899 45.4381 162.843 46.0804L155.96 48.2316L150.424 30.5169ZM175.902 14.0142C176.205 14.946 176.722 15.626 177.453 16.0542C178.212 16.4974 179.043 16.5779 179.945 16.2958C180.859 16.0104 181.501 15.4694 181.873 14.6728C182.23 13.9048 182.268 13.0515 181.986 12.1129L184.368 11.3686C184.851 12.9128 184.739 14.3143 184.035 15.573C183.333 16.8426 182.172 17.7306 180.552 18.237C178.943 18.7399 177.488 18.6692 176.189 18.0249C174.892 17.3915 174.003 16.3027 173.521 14.7585L175.902 14.0142ZM179.09 41.0033L173.554 23.2886L177.029 22.2028L180.944 34.7303L181.074 34.6896L185.625 19.5164L189.099 18.4306L194.635 36.1454L191.161 37.2311L187.231 24.6547L187.1 24.6954L182.565 39.9175L179.09 41.0033ZM22.9993 136.928L17.4634 119.214L21.8676 117.837L31.7568 129.142L31.8873 129.102L33.6122 114.167L37.8859 112.831L43.4218 130.546L40.0126 131.612L36.1538 119.263L36.0233 119.304L34.2902 132.666L31.6966 133.476L22.6802 123.474L22.5497 123.515L26.4085 135.863L22.9993 136.928ZM52.6931 124.748C54.0089 124.337 54.99 123.619 55.6364 122.593C56.2793 121.557 56.419 120.457 56.0554 119.293L55.6221 117.906L51.4075 119.546C49.0083 120.463 48.0568 121.715 48.5529 123.303C48.7908 124.064 49.2839 124.572 50.0322 124.828C50.7839 125.094 51.6709 125.068 52.6931 124.748ZM52.6289 127.866C50.8563 128.42 49.2659 128.392 47.8576 127.781C46.446 127.16 45.4938 126.061 45.001 124.484C44.5184 122.94 44.7213 121.546 45.6096 120.301C46.4871 119.06 48.002 118.026 50.1545 117.198L54.8473 115.427L54.4191 114.057C54.103 113.046 53.5338 112.37 52.7114 112.03C51.9033 111.698 50.9066 111.717 49.7212 112.087C48.7643 112.386 48.0255 112.868 47.5049 113.532C46.9951 114.192 46.7848 114.933 46.8738 115.752L43.5625 116.787C43.1275 115.204 43.4119 113.689 44.4158 112.241C45.4196 110.793 46.9166 109.759 48.9066 109.137C51.0707 108.461 52.9591 108.449 54.572 109.103C56.1957 109.754 57.2811 110.954 57.8283 112.705L61.6259 124.857L58.2493 125.913L57.3267 122.96L57.2451 122.986C57.0548 124.095 56.5424 125.091 55.7077 125.973C54.8731 126.854 53.8468 127.485 52.6289 127.866ZM73.2359 107.98C72.7356 107.181 72.0577 106.635 71.202 106.341C70.2926 106.029 69.2942 106.042 68.2067 106.382C66.7712 106.831 65.7956 107.738 65.2797 109.105C64.7598 110.497 64.7887 112.117 65.3664 113.966C65.9577 115.858 66.8654 117.216 68.0895 118.039C69.285 118.847 70.6005 119.027 72.0359 118.578C74.2544 117.885 75.3398 116.507 75.2922 114.445L78.7014 113.38C78.9767 115.216 78.5994 116.873 77.5698 118.353C76.5326 119.847 74.9918 120.913 72.9474 121.552C70.4245 122.341 68.1595 122.159 66.1525 121.008C64.1203 119.852 62.6675 117.877 61.7941 115.082C60.9343 112.331 61.0019 109.893 61.997 107.768C62.992 105.642 64.7401 104.189 67.2412 103.407C69.3291 102.755 71.2492 102.787 73.0014 103.505C74.6536 104.17 75.8682 105.307 76.6451 106.914L73.2359 107.98ZM91.8906 99.0345L86.2956 100.783L90.9547 115.692L87.464 116.783L82.8048 101.874L77.2098 103.622L76.3331 100.817L91.0138 96.2288L91.8906 99.0345ZM101.616 95.8343C100.343 96.2319 99.4209 96.9856 98.8486 98.0955C98.2655 99.2088 98.1373 100.46 98.4643 101.85L107.452 99.0416C106.977 97.6741 106.206 96.6974 105.14 96.1116C104.074 95.5257 102.899 95.4333 101.616 95.8343ZM112.464 103.277C112.71 104.942 112.284 106.502 111.187 107.955C110.086 109.397 108.54 110.429 106.55 111.051C103.983 111.853 101.697 111.679 99.6897 110.527C97.6969 109.383 96.2673 107.425 95.4007 104.652C94.5341 101.879 94.5858 99.4277 95.5556 97.2983C96.5255 95.1689 98.2501 93.7168 100.73 92.942C103.165 92.1807 105.342 92.3659 107.259 93.4976C109.173 94.6183 110.55 96.5217 111.389 99.2077L111.777 100.447L99.233 104.367L99.2992 104.579C99.7784 106.113 100.603 107.204 101.773 107.853C102.946 108.513 104.261 108.615 105.718 108.16C106.751 107.837 107.571 107.33 108.179 106.639C108.787 105.948 109.089 105.179 109.087 104.332L112.464 103.277ZM120.955 86.6751C123.217 85.9682 125.284 86.2234 127.157 87.4407C129.04 88.6546 130.41 90.6317 131.266 93.3721C132.119 96.1016 132.125 98.5053 131.282 100.583C130.446 102.646 128.914 104.027 126.685 104.723C124.053 105.546 121.862 105.102 120.11 103.394L120.045 103.414L122.762 112.108L119.222 113.215L111.877 89.7091L115.286 88.6437L116.203 91.5799L116.285 91.5544C116.486 90.4411 117.006 89.4491 117.844 88.5785C118.689 87.6936 119.726 87.0591 120.955 86.6751ZM124.768 102.028C126.204 101.579 127.185 100.67 127.712 99.2995C128.238 97.9293 128.216 96.3307 127.645 94.5038C127.074 92.6768 126.182 91.3501 124.969 90.5237C123.756 89.6972 122.432 89.5082 120.996 89.9568C119.593 90.3952 118.63 91.3049 118.107 92.686C117.584 94.0671 117.598 95.6619 118.152 97.4705C118.727 99.2723 119.623 100.592 120.839 101.429C122.045 102.27 123.355 102.469 124.768 102.028ZM134.712 93.5128L133.718 90.332L144.419 86.988L145.413 90.1688L134.712 93.5128ZM166.903 91.958L162.482 93.3394L152.764 87.3346L152.633 87.3754L155.207 95.6129L151.7 96.7089L146.164 78.9941L149.671 77.8982L152.052 85.5158L152.182 85.475L156.865 75.6502L161.073 74.335L155.783 85.1376L166.903 91.958ZM171.964 81.5673C172.625 84.3328 172.774 86.4707 172.41 87.9809C171.992 89.7351 170.858 90.9011 169.009 91.4788C168.52 91.6317 168.099 91.6976 167.746 91.6766L166.772 88.561C167.093 88.5562 167.417 88.5029 167.743 88.4009C168.569 88.1427 169.041 87.4759 169.159 86.4007C169.263 85.473 169.106 84.1493 168.688 82.4298L166.342 72.6885L178.576 68.8654L184.112 86.5801L180.605 87.676L175.946 72.767L170.318 74.5256L171.964 81.5673ZM193.4 80.7771C194.715 80.3659 195.696 79.6475 196.343 78.6219C196.986 77.5854 197.125 76.4854 196.762 75.3218L196.329 73.9353L192.114 75.5746C189.715 76.4915 188.763 77.7438 189.259 79.3315C189.497 80.0927 189.99 80.6011 190.739 80.8566C191.49 81.123 192.377 81.0965 193.4 80.7771ZM193.335 83.8947C191.563 84.4486 189.972 84.4204 188.564 83.8101C187.152 83.1889 186.2 82.0899 185.707 80.5131C185.225 78.9689 185.428 77.5745 186.316 76.3301C187.194 75.089 188.708 74.0546 190.861 73.2267L195.554 71.4558L195.126 70.0856C194.809 69.0743 194.24 68.3987 193.418 68.0589C192.61 67.7265 191.613 67.7456 190.428 68.116C189.471 68.4151 188.732 68.8966 188.211 69.5606C187.702 70.2213 187.491 70.9614 187.58 71.7811L184.269 72.8159C183.834 71.233 184.118 69.7176 185.122 68.27C186.126 66.8223 187.623 65.7875 189.613 65.1656C191.777 64.4893 193.666 64.4781 195.278 65.1319C196.902 65.7824 197.988 66.983 198.535 68.7338L202.332 80.8862L198.956 81.9413L198.033 78.9889L197.952 79.0144C197.761 80.1243 197.249 81.12 196.414 82.0015C195.58 82.883 194.553 83.5141 193.335 83.8947ZM213.942 64.0084C213.442 63.2098 212.764 62.6637 211.908 62.3701C210.999 62.0574 210.001 62.071 208.913 62.4109C207.478 62.8594 206.502 63.7671 205.986 65.1339C205.466 66.5259 205.495 68.1462 206.073 69.9949C206.664 71.8871 207.572 73.2447 208.796 74.0678C209.991 74.8759 211.307 75.0556 212.742 74.6071C214.961 73.9138 216.046 72.5361 215.999 70.474L219.408 69.4086C219.683 71.2444 219.306 72.9021 218.276 74.3817C217.239 75.8756 215.698 76.942 213.654 77.5809C211.131 78.3693 208.866 78.1879 206.859 77.0365C204.827 75.8811 203.374 73.906 202.501 71.1112C201.641 68.36 201.708 65.9217 202.703 63.7964C203.698 61.6711 205.447 60.2176 207.948 59.436C210.036 58.7835 211.956 58.8161 213.708 59.5338C215.36 60.1992 216.575 61.3356 217.351 62.943L213.942 64.0084ZM232.016 58.3603C231.516 57.5617 230.838 57.0156 229.982 56.722C229.073 56.4094 228.074 56.423 226.987 56.7628C225.551 57.2114 224.576 58.1191 224.06 59.4859C223.54 60.8778 223.569 62.4982 224.146 64.3468C224.738 66.239 225.645 67.5966 226.87 68.4197C228.065 69.2278 229.381 69.4076 230.816 68.959C233.034 68.2657 234.12 66.8881 234.072 64.826L237.481 63.7606C237.757 65.5964 237.379 67.2541 236.35 68.7337C235.313 70.2276 233.772 71.294 231.727 71.9329C229.205 72.7213 226.94 72.5398 224.932 71.3885C222.9 70.2331 221.448 68.258 220.574 65.4632C219.714 62.7119 219.782 60.2736 220.777 58.1483C221.772 56.023 223.52 54.5695 226.021 53.7879C228.109 53.1354 230.029 53.1681 231.781 53.8858C233.434 54.5512 234.648 55.6876 235.425 57.295L232.016 58.3603Z" fill="black"/>
<path d="M11.9023 100.215L0.448568 103.794L3.45156 113.404L13.4367 112.116L11.9023 100.215ZM11.0052 97.3441L10.3106 85.3642L-5.03292 86.2537L-0.448596 100.923L11.0052 97.3441ZM13.979 95.8597L23.9291 102.568L23.938 102.554L23.9468 102.541L13.979 95.8597ZM14.5591 93.4761L26.5583 93.6186L26.5597 93.4984L26.5587 93.3782L14.5591 93.4761ZM14.5509 92.476L26.5505 92.3781L26.518 88.3891L24.1037 85.2134L14.5509 92.476ZM2.57286 76.7208L-1.00647 65.267L-17.3308 70.3684L-6.97989 83.9833L2.57286 76.7208ZM6.37353 75.533L16.2278 68.6851L11.2013 61.452L2.7942 64.0793L6.37353 75.533ZM15.4511 88.5958L5.59692 95.4437L10.6233 102.677L19.0305 100.05L15.4511 88.5958ZM15.5327 88.5703L19.112 100.024L27.5192 97.3968L27.5327 88.5887L15.5327 88.5703ZM15.5571 72.6631L11.9778 61.2094L3.57067 63.8366L3.55714 72.6447L15.5571 72.6631ZM19.2762 71.5009L31.2661 71.9944L31.9672 54.9626L15.6969 60.0472L19.2762 71.5009ZM18.4281 92.1059L30.4176 92.6069L30.4179 92.5994L18.4281 92.1059ZM17.1782 97.3308L7.13144 90.7686L7.11363 90.7959L7.09596 90.8232L17.1782 97.3308ZM9.78902 88.4105C9.70019 88.4383 9.6982 88.436 9.76951 88.4189C9.83253 88.4038 10.0431 88.3554 10.3679 88.3135L13.4367 112.116C14.7932 111.942 16.0209 111.608 16.9477 111.318L9.78902 88.4105ZM23.3561 96.6357L22.4589 93.7648L-0.448596 100.923L0.448568 103.794L23.3561 96.6357ZM11.6997 109.324C13.5561 109.216 15.1947 108.697 15.7355 108.528L8.57683 85.6202C8.48308 85.6495 8.54788 85.6258 8.72661 85.5839C8.82102 85.5617 8.99297 85.5236 9.22456 85.4848C9.44298 85.4482 9.82179 85.3926 10.3106 85.3642L11.6997 109.324ZM15.7355 108.528C18.2691 107.736 21.5776 106.056 23.9291 102.568L4.02893 89.1518C5.64635 86.7526 7.73967 85.8818 8.57683 85.6202L15.7355 108.528ZM23.9468 102.541C26.1385 99.2716 26.532 95.8282 26.5583 93.6186L2.55995 93.3337C2.56196 93.1638 2.58005 92.6859 2.74523 92.0072C2.91242 91.3202 3.26396 90.293 4.01122 89.1782L23.9468 102.541ZM26.5587 93.3782L26.5505 92.3781L2.55134 92.5739L2.5595 93.574L26.5587 93.3782ZM24.1037 85.2134L12.1256 69.4582L-6.97989 83.9833L4.9982 99.7386L24.1037 85.2134ZM6.15219 88.1745L9.95286 86.9868L2.7942 64.0793L-1.00647 65.267L6.15219 88.1745ZM-3.4807 82.381L5.59692 95.4437L25.3054 81.7479L16.2278 68.6851L-3.4807 82.381ZM19.0305 100.05L19.112 100.024L11.9534 77.1166L11.8718 77.1421L19.0305 100.05ZM27.5327 88.5887L27.5571 72.6816L3.55714 72.6447L3.53272 88.5519L27.5327 88.5887ZM19.1365 84.1169L22.8556 82.9547L15.6969 60.0472L11.9778 61.2094L19.1365 84.1169ZM7.2864 71.0074L6.43823 91.6124L30.4179 92.5994L31.2661 71.9944L7.2864 71.0074ZM6.43854 91.6049C6.412 92.2401 6.35323 92.4634 6.37098 92.3891C6.38275 92.3399 6.42737 92.165 6.53424 91.899C6.64119 91.6327 6.82632 91.2357 7.13144 90.7686L27.2249 103.893C29.7307 100.057 30.2882 95.7041 30.4176 92.6069L6.43854 91.6049ZM7.09596 90.8232C8.42813 88.7593 10.0453 88.3304 9.78902 88.4105L16.9477 111.318C20.3235 110.263 24.4806 108.145 27.2604 103.838L7.09596 90.8232ZM36.675 76.9857L48.1287 73.4064L44.5494 61.9527L33.0956 65.532L36.675 76.9857ZM28.3722 79.5804L24.7929 68.1266L13.3391 71.706L16.9184 83.1597L28.3722 79.5804ZM30.7986 87.3448L34.3779 98.7986L45.8317 95.2193L42.2524 83.7655L30.7986 87.3448ZM27.2916 88.4408L15.8378 92.0201L19.4171 103.474L30.8709 99.8946L27.2916 88.4408ZM21.7557 70.7261L18.1763 59.2723L6.72257 62.8517L10.3019 74.3054L21.7557 70.7261ZM25.2627 69.6301L36.7165 66.0508L33.1371 54.597L21.6834 58.1764L25.2627 69.6301ZM27.4954 76.7747L16.0417 80.3541L19.621 91.8078L31.0748 88.2285L27.4954 76.7747ZM35.7982 74.1801L39.3775 85.6338L50.8313 82.0545L47.2519 70.6008L35.7982 74.1801ZM33.5655 67.0355L29.9861 55.5817L18.5324 59.1611L22.1117 70.6148L33.5655 67.0355ZM37.0725 65.9395L48.5263 62.3602L44.9469 50.9064L33.4932 54.4858L37.0725 65.9395ZM42.6084 83.6542L46.1878 95.108L57.6415 91.5287L54.0622 80.0749L42.6084 83.6542ZM39.1014 84.7502L27.6476 88.3295L31.227 99.7833L42.6807 96.204L39.1014 84.7502ZM33.0956 65.532L24.7929 68.1266L31.9515 91.0341L40.2543 88.4395L33.0956 65.532ZM16.9184 83.1597L19.3449 90.9242L42.2524 83.7655L39.8259 76.001L16.9184 83.1597ZM27.2193 75.8911L23.7122 76.9871L30.8709 99.8946L34.3779 98.7986L27.2193 75.8911ZM38.7453 84.8615L33.2094 67.1467L10.3019 74.3054L15.8378 92.0201L38.7453 84.8615ZM25.335 82.1798L28.842 81.0839L21.6834 58.1764L18.1763 59.2723L25.335 82.1798ZM13.809 73.2094L16.0417 80.3541L38.9492 73.1954L36.7165 66.0508L13.809 73.2094ZM31.0748 88.2285L39.3775 85.6338L32.2188 62.7263L23.9161 65.321L31.0748 88.2285ZM47.2519 70.6008L45.0192 63.4561L22.1117 70.6148L24.3444 77.7594L47.2519 70.6008ZM37.1448 78.4892L40.6519 77.3933L33.4932 54.4858L29.9861 55.5817L37.1448 78.4892ZM25.6188 69.5188L31.1547 87.2336L54.0622 80.0749L48.5263 62.3602L25.6188 69.5188ZM39.0291 72.2005L35.522 73.2965L42.6807 96.204L46.1878 95.108L39.0291 72.2005ZM50.5551 81.1709L48.1287 73.4064L25.2212 80.5651L27.6476 88.3295L50.5551 81.1709ZM46.5722 82.4155L35.1185 85.9949L38.6978 97.4486L50.1516 93.8693L46.5722 82.4155ZM41.0363 64.7008L37.457 53.2471L26.0032 56.8264L29.5826 68.2801L41.0363 64.7008ZM44.5108 63.615L55.9645 60.0357L52.3852 48.582L40.9314 52.1613L44.5108 63.615ZM48.4256 76.1426L36.9719 79.7219L40.5512 91.1757L52.005 87.5963L48.4256 76.1426ZM48.5561 76.1018L52.1355 87.5556L58.2191 85.6544L60.0503 79.5493L48.5561 76.1018ZM53.1071 60.9287L49.5278 49.4749L43.4441 51.3761L41.613 57.4811L53.1071 60.9287ZM56.5816 59.8429L68.0353 56.2635L64.456 44.8098L53.0022 48.3891L56.5816 59.8429ZM62.1175 77.5576L65.6968 89.0114L77.1505 85.432L73.5712 73.9783L62.1175 77.5576ZM58.643 78.6434L47.1893 82.2227L50.7686 93.6765L62.2224 90.0971L58.643 78.6434ZM54.7128 66.0669L66.1666 62.4876L62.5873 51.0338L51.1335 54.6131L54.7128 66.0669ZM54.5823 66.1077L51.003 54.6539L44.9061 56.5592L43.082 62.681L54.5823 66.1077ZM50.0467 81.3298L53.626 92.7835L59.7229 90.8782L61.547 84.7565L50.0467 81.3298ZM58.026 78.8362L52.4901 61.1215L29.5826 68.2801L35.1185 85.9949L58.026 78.8362ZM44.6156 76.1546L48.0901 75.0688L40.9314 52.1613L37.457 53.2471L44.6156 76.1546ZM33.057 67.1944L36.9719 79.7219L59.8794 72.5633L55.9645 60.0357L33.057 67.1944ZM52.005 87.5963L52.1355 87.5556L44.9768 64.6481L44.8463 64.6888L52.005 87.5963ZM60.0503 79.5493L64.6012 64.3762L41.613 57.4811L37.062 72.6543L60.0503 79.5493ZM56.6865 72.3824L60.1609 71.2966L53.0022 48.3891L49.5278 49.4749L56.6865 72.3824ZM45.1278 63.4222L50.6637 81.1369L73.5712 73.9783L68.0353 56.2635L45.1278 63.4222ZM58.5381 66.1039L55.0637 67.1896L62.2224 90.0971L65.6968 89.0114L58.5381 66.1039ZM70.0968 75.064L66.1666 62.4876L43.2591 69.6462L47.1893 82.2227L70.0968 75.064ZM51.1335 54.6131L51.003 54.6539L58.1617 77.5614L58.2922 77.5206L51.1335 54.6131ZM43.082 62.681L38.5463 77.903L61.547 84.7565L66.0827 69.5344L43.082 62.681ZM46.4673 69.876L42.9929 70.9618L50.1516 93.8693L53.626 92.7835L46.4673 69.876ZM81.2839 71.568L84.8633 83.0218L110.068 75.1454L87.5581 61.3389L81.2839 71.568ZM76.8634 72.9494L70.556 83.1581L75.2152 86.0368L80.4428 84.4032L76.8634 72.9494ZM67.1446 66.9446L73.452 56.736L68.7927 53.8573L63.5652 55.4909L67.1446 66.9446ZM67.0141 66.9854L63.4347 55.5317L51.981 59.111L55.5603 70.5648L67.0141 66.9854ZM69.5883 75.2229L73.1676 86.6767L84.6214 83.0974L81.0421 71.6436L69.5883 75.2229ZM66.0813 76.3189L54.6275 79.8982L58.2068 91.352L69.6606 87.7727L66.0813 76.3189ZM60.5453 58.6042L56.966 47.1504L45.5123 50.7298L49.0916 62.1835L60.5453 58.6042ZM64.0524 57.5082L75.5062 53.9289L71.9268 42.4751L60.4731 46.0545L64.0524 57.5082ZM66.4329 65.1259L54.9792 68.7052L58.5585 80.159L70.0123 76.5796L66.4329 65.1259ZM66.5634 65.0851L70.1428 76.5388L75.1424 74.9764L77.3961 70.2479L66.5634 65.0851ZM71.246 55.2602L67.6666 43.8065L62.6669 45.3689L60.4133 50.0974L71.246 55.2602ZM75.4544 53.9451L86.2315 59.2227L98.4996 34.1711L71.8751 42.4913L75.4544 53.9451ZM70.1643 64.7476L59.3872 59.47L54.5876 69.2709L63.8901 74.9767L70.1643 64.7476ZM77.7046 60.1143L73.2841 61.4957L80.4428 84.4032L84.8633 83.0218L77.7046 60.1143ZM83.1708 62.7408L73.452 56.736L60.8371 77.1533L70.556 83.1581L83.1708 62.7408ZM63.5652 55.4909L63.4347 55.5317L70.5934 78.4392L70.7239 78.3984L63.5652 55.4909ZM55.5603 70.5648L58.1346 78.8023L81.0421 71.6436L78.4678 63.4061L55.5603 70.5648ZM66.009 63.7692L62.5019 64.8652L69.6606 87.7727L73.1676 86.6767L66.009 63.7692ZM77.535 72.7396L71.9991 55.0249L49.0916 62.1835L54.6275 79.8982L77.535 72.7396ZM64.1247 70.0579L67.6317 68.962L60.4731 46.0545L56.966 47.1504L64.1247 70.0579ZM52.5987 61.0875L54.9792 68.7052L77.8867 61.5465L75.5062 53.9289L52.5987 61.0875ZM70.0123 76.5796L70.1428 76.5388L62.9841 53.6313L62.8536 53.6721L70.0123 76.5796ZM77.3961 70.2479L82.0786 60.423L60.4133 50.0974L55.7308 59.9223L77.3961 70.2479ZM74.8253 66.714L79.0338 65.3988L71.8751 42.4913L67.6666 43.8065L74.8253 66.714ZM64.6773 48.6674L59.3872 59.47L80.9414 70.0253L86.2315 59.2227L64.6773 48.6674ZM63.8901 74.9767L75.0098 81.7971L87.5581 61.3389L76.4385 54.5185L63.8901 74.9767ZM91.4432 64.2572L101.595 70.6552L101.618 70.6191L101.641 70.5829L91.4432 64.2572ZM91.4289 59.5706L102.883 55.9912L99.051 43.73L87.0787 48.3868L91.4289 59.5706ZM87.2143 61.2099L91.498 72.4193L91.5313 72.4066L91.5645 72.3937L87.2143 61.2099ZM85.839 66.4919L89.8478 55.1813L89.7826 55.1582L89.7172 55.1359L85.839 66.4919ZM83.6645 69.4454L78.8311 80.429L78.8618 80.4425L78.8926 80.4558L83.6645 69.4454ZM81.4165 61.9654L91.1834 68.9372L91.1992 68.9151L91.2149 68.8929L81.4165 61.9654ZM85.9614 58.862L81.7246 47.6349L81.6892 47.6482L81.6538 47.6618L85.9614 58.862ZM90.6541 57.0912L94.8908 68.3184L105.486 64.3203L102.108 53.5118L90.6541 57.0912ZM88.5182 53.6942L93.101 42.6038L93.0918 42.5999L93.0825 42.5961L88.5182 53.6942ZM83.3117 55.1959L73.8681 47.7919L73.8395 47.8285L73.8111 47.8653L83.3117 55.1959ZM82.6806 57.4164L86.2599 68.8702L95.6758 65.9277L94.6104 56.1205L82.6806 57.4164ZM79.3693 58.4512L67.7982 61.6309L71.0903 73.6107L82.9486 69.905L79.3693 58.4512ZM80.2226 53.9053L70.3614 47.0673L80.2226 53.9053ZM90.3788 50.7672L85.8705 61.8882L85.8935 61.8975L85.9165 61.9067L90.3788 50.7672ZM97.4327 66.5215L101.012 77.9752L112.466 74.3959L108.886 62.9421L97.4327 66.5215ZM94.0562 67.5767L82.6024 71.156L86.1817 82.6097L97.6355 79.0304L94.0562 67.5767ZM93.1335 64.6242L104.587 61.0449L101.008 49.5911L89.5542 53.1705L93.1335 64.6242ZM93.052 64.6497L89.4726 53.1959L82.4652 55.3858L81.2245 62.6218L93.052 64.6497ZM92.0792 77.8662C95.7204 76.7283 99.2205 74.4234 101.595 70.6552L81.2911 57.8592C81.7756 57.0904 82.409 56.4135 83.133 55.8834C83.8391 55.3663 84.4851 55.0948 84.9206 54.9587L92.0792 77.8662ZM101.641 70.5829C104.12 66.5857 104.72 61.8708 103.316 57.3778L80.4084 64.5364C80.1278 63.6384 79.9577 62.4666 80.1257 61.1433C80.2937 59.8203 80.751 58.7292 81.2458 57.9315L101.641 70.5829ZM103.316 57.3778L102.883 55.9912L79.9752 63.1499L80.4084 64.5364L103.316 57.3778ZM87.0787 48.3868L82.8641 50.0262L91.5645 72.3937L95.7791 70.7543L87.0787 48.3868ZM82.9306 50.0006C80.8317 50.8027 77.5829 52.3703 75.1465 55.5768C72.1656 59.5 71.578 64.2965 72.906 68.5461L95.8135 61.3875C96.1562 62.4842 96.3874 63.9943 96.1077 65.7387C95.8237 67.5102 95.0975 68.9893 94.256 70.0968C93.4615 71.1424 92.6556 71.7439 92.2076 72.0339C91.9715 72.1867 91.7857 72.2849 91.6731 72.3402C91.6152 72.3687 91.571 72.3886 91.5425 72.4009C91.514 72.4132 91.4987 72.4191 91.498 72.4193L82.9306 50.0006ZM72.906 68.5461C74.2734 72.9218 77.5554 76.3435 81.9609 77.848L89.7172 55.1359C90.9249 55.5483 92.3016 56.3062 93.5218 57.5642C94.7392 58.8194 95.4437 60.2041 95.8135 61.3875L72.906 68.5461ZM81.8302 77.8025C85.7471 79.1908 89.4205 78.697 92.0792 77.8662L84.9206 54.9587C85.5349 54.7667 87.4344 54.326 89.8478 55.1813L81.8302 77.8025ZM84.8564 58.0763C84.996 58.0326 85.4417 57.9141 86.1262 57.9262C86.8425 57.9389 87.6475 58.0931 88.4363 58.435L78.8926 80.4558C83.468 82.4388 88.0981 82.2078 92.015 80.9838L84.8564 58.0763ZM88.4978 58.4619C89.3172 58.8224 90.2038 59.4235 90.9609 60.2973C91.7029 61.1537 92.0826 61.9963 92.2616 62.5691L69.3541 69.7277C70.7975 74.3465 74 78.303 78.8311 80.429L88.4978 58.4619ZM92.2616 62.5691C92.4768 63.2579 92.6661 64.3452 92.473 65.6723C92.2764 67.0239 91.7529 68.1395 91.1834 68.9372L71.6495 54.9936C68.434 59.4982 67.8264 64.8392 69.3541 69.7277L92.2616 62.5691ZM91.2149 68.8929C90.6777 69.6527 90.1629 70.0423 89.9776 70.1689C89.8015 70.2891 89.8487 70.2239 90.2689 70.0623L81.6538 47.6618C78.3582 48.9293 74.4017 51.1006 71.618 55.0379L91.2149 68.8929ZM90.1981 70.0892L94.8908 68.3184L86.4173 45.864L81.7246 47.6349L90.1981 70.0892ZM102.108 53.5118L101.68 52.1416L78.7721 59.3003L79.2003 60.6705L102.108 53.5118ZM101.68 52.1416C100.525 48.4481 97.8512 44.5667 93.101 42.6038L83.9354 64.7847C82.5816 64.2252 81.3497 63.3328 80.3851 62.1878C79.4592 61.089 78.9968 60.0193 78.7721 59.3003L101.68 52.1416ZM93.0825 42.5961C88.7838 40.8282 84.7004 41.4377 81.9487 42.2976L89.1074 65.2051C88.7263 65.3241 86.6364 65.8955 83.954 64.7923L93.0825 42.5961ZM81.9487 42.2976C79.118 43.1822 76.1528 44.8779 73.8681 47.7919L92.7552 62.6C91.5118 64.1859 90.0241 64.9186 89.1074 65.2051L81.9487 42.2976ZM73.8111 47.8653C71.4334 50.9468 70.3226 54.7701 70.7508 58.7123L94.6104 56.1205C94.7207 57.1359 94.6612 58.3071 94.3145 59.5271C93.9685 60.7443 93.4103 61.7516 92.8123 62.5266L73.8111 47.8653ZM79.1013 45.9627L75.79 46.9975L82.9486 69.905L86.2599 68.8702L79.1013 45.9627ZM90.9404 55.2715C91.1738 56.1212 91.266 57.1925 91.0504 58.3413C90.8395 59.4649 90.4075 60.2764 90.0838 60.7432L70.3614 47.0673C67.5009 51.1926 66.3455 56.3445 67.7982 61.6309L90.9404 55.2715ZM90.0838 60.7432C89.7366 61.2439 89.3201 61.6392 88.9218 61.9145C88.542 62.1771 88.2878 62.2562 88.2928 62.2547L81.1341 39.3472C77.0802 40.614 73.1537 43.0406 70.3614 47.0673L90.0838 60.7432ZM88.2928 62.2547C88.4591 62.2027 88.2803 62.2824 87.8241 62.2851C87.3336 62.288 86.6382 62.1994 85.8705 61.8882L94.8871 39.6463C90.0059 37.6675 85.1378 38.096 81.1341 39.3472L88.2928 62.2547ZM85.9165 61.9067C85.172 61.6085 84.2884 61.065 83.5091 60.203C82.742 59.3545 82.3563 58.5083 82.1813 57.9484L105.089 50.7898C103.526 45.7894 99.9965 41.6929 94.8411 39.6278L85.9165 61.9067ZM82.1813 57.9484L85.979 70.1008L108.886 62.9421L105.089 50.7898L82.1813 57.9484ZM93.8534 55.0677L90.4768 56.1229L97.6355 79.0304L101.012 77.9752L93.8534 55.0677ZM105.51 63.9973L104.587 61.0449L81.6798 68.2035L82.6024 71.156L105.51 63.9973ZM89.5542 53.1705L89.4726 53.1959L96.6313 76.1034L96.7128 76.078L89.5542 53.1705ZM81.2245 62.6218C81.3351 61.9767 81.5479 61.3344 81.8551 60.7375C82.1589 60.1472 82.5041 59.6997 82.8006 59.3865L100.228 75.8871C102.559 73.4251 104.257 70.3075 104.879 66.6776L81.2245 62.6218ZM82.8006 59.3865C83.0977 59.0727 83.4476 58.7863 83.8333 58.5492C84.2162 58.3137 84.5717 58.1653 84.8564 58.0763L92.015 80.9838C95.0863 80.024 97.9112 78.3346 100.228 75.8871L82.8006 59.3865ZM103.896 55.6924L92.2111 58.423L92.2181 58.4531L92.2253 58.4832L103.896 55.6924ZM104.343 62.106L92.6762 59.297L92.6734 59.3087L92.6707 59.3203L104.343 62.106ZM99.6787 65.8017L88.2249 69.381L90.6954 77.2865L98.9632 77.7804L99.6787 65.8017ZM98.705 62.6861L98.5271 50.6875L82.4576 50.9258L87.2513 66.2655L98.705 62.6861ZM101.092 60.5258L89.1663 59.1892L89.1645 59.2053L89.1628 59.2214L101.092 60.5258ZM100.621 56.5549L88.9542 59.3644L88.9572 59.3769L88.9602 59.3894L100.621 56.5549ZM98.2748 46.8136L94.6954 35.3599L83.9798 38.7085L86.6083 49.6231L98.2748 46.8136ZM110.509 42.9905L121.962 39.4112L118.383 27.9574L106.929 31.5367L110.509 42.9905ZM116.045 60.7052L119.624 72.159L131.078 68.5796L127.498 57.1259L116.045 60.7052ZM112.538 61.8012L101.084 65.3805L104.663 76.8343L116.117 73.2549L112.538 61.8012ZM107.878 46.8921L119.332 43.3128L115.753 31.859L104.299 35.4383L107.878 46.8921ZM102.251 48.6507L98.6715 37.197L88.0283 40.523L90.5656 51.3813L102.251 48.6507ZM92.2253 58.4832C92.4487 59.4173 92.5165 59.9673 92.5329 60.2035C92.5404 60.3107 92.5323 60.2855 92.5402 60.1505C92.548 60.0176 92.5749 59.7181 92.6762 59.297L116.009 64.915C117.047 60.6058 116.361 56.2193 115.567 52.9015L92.2253 58.4832ZM92.6707 59.3203C92.9069 58.3306 93.4749 57.0622 94.575 55.9308C95.6431 54.8324 96.7445 54.3433 97.3625 54.1502L104.521 77.0577C110.044 75.3317 114.53 71.1157 116.015 64.8918L92.6707 59.3203ZM97.3625 54.1502C97.6898 54.0479 98.7984 53.7277 100.394 53.8231L98.9632 77.7804C101.264 77.9178 103.215 77.4658 104.521 77.0577L97.3625 54.1502ZM111.132 62.2224L110.159 59.1068L87.2513 66.2655L88.2249 69.381L111.132 62.2224ZM98.883 74.6848C100.431 74.6619 101.899 74.4036 103.255 73.9798L96.0963 51.0723C96.7998 50.8525 97.6208 50.7009 98.5271 50.6875L98.883 74.6848ZM103.255 73.9798C106.018 73.1162 108.593 71.3801 110.444 68.766C112.179 66.3149 112.809 63.7606 113.021 61.8303L89.1628 59.2214C89.2563 58.3663 89.5922 56.6829 90.8554 54.8986C92.234 52.9512 94.1593 51.6776 96.0963 51.0723L103.255 73.9798ZM113.017 61.8625C113.361 58.7939 112.789 55.8086 112.281 53.7204L88.9602 59.3894C89.0226 59.6459 89.0653 59.8473 89.0939 59.9983C89.1226 60.1506 89.1332 60.232 89.1354 60.2508C89.138 60.2721 89.1278 60.196 89.1241 60.0383C89.1221 59.957 89.1217 59.8454 89.127 59.7069C89.1322 59.5688 89.1433 59.3945 89.1663 59.1892L113.017 61.8625ZM112.287 53.7454L109.941 44.0041L86.6083 49.6231L88.9542 59.3644L112.287 53.7454ZM101.854 58.2674L114.088 54.4442L106.929 31.5367L94.6954 35.3599L101.854 58.2674ZM99.0549 46.5698L104.591 64.2845L127.498 57.1259L121.962 39.4112L99.0549 46.5698ZM112.465 49.2515L108.958 50.3474L116.117 73.2549L119.624 72.159L112.465 49.2515ZM123.991 58.2218L119.332 43.3128L96.4247 50.4714L101.084 65.3805L123.991 58.2218ZM104.299 35.4383L98.6715 37.197L105.83 60.1045L111.458 58.3458L104.299 35.4383ZM90.5656 51.3813L92.2111 58.423L115.581 52.9618L113.936 45.9202L90.5656 51.3813ZM120.564 48.926L116.985 37.4722L105.531 41.0515L109.11 52.5053L120.564 48.926ZM122.644 55.5812L111.19 59.1605L114.769 70.6143L126.223 67.035L122.644 55.5812ZM128.019 52.8989L138.5 58.7423L138.525 58.6975L138.549 58.6526L128.019 52.8989ZM126.488 48.0594L131.777 37.2878L131.772 37.2853L126.488 48.0594ZM114.472 41.7518L110.893 30.298L99.4394 33.8774L103.019 45.3311L114.472 41.7518ZM117.98 40.6558L129.433 37.0765L125.854 25.6227L114.4 29.2021L117.98 40.6558ZM119.697 46.1529L108.244 49.7323L111.823 61.186L123.277 57.6067L119.697 46.1529ZM131.287 54.1335L141.616 60.2424L141.631 60.2171L141.646 60.1917L131.287 54.1335ZM120.008 59.4665L108.555 63.0458L112.134 74.4996L123.588 70.9203L120.008 59.4665ZM109.11 52.5053L111.19 59.1605L134.098 52.0019L132.018 45.3466L109.11 52.5053ZM126.223 67.035L129.322 66.0664L122.164 43.1589L119.064 44.1275L126.223 67.035ZM129.322 66.0664C132.685 65.0155 136.255 62.7682 138.5 58.7423L117.537 47.0555C118.147 45.9627 118.969 45.0443 119.892 44.3489C120.784 43.677 121.611 43.3317 122.164 43.1589L129.322 66.0664ZM138.549 58.6526C140.776 54.5769 140.798 50.2383 139.664 46.6098L116.756 53.7684C116.535 53.0607 116.338 52.0291 116.427 50.7703C116.518 49.4765 116.894 48.233 117.488 47.1452L138.549 58.6526ZM139.664 46.6098C138.52 42.9501 135.997 39.3598 131.777 37.2878L121.199 58.8309C120.074 58.2783 119.038 57.4658 118.211 56.4429C117.407 55.4486 116.978 54.4778 116.756 53.7684L139.664 46.6098ZM131.772 37.2853C127.602 35.2402 123.383 35.4726 120.084 36.5037L127.243 59.4112C126.712 59.577 125.848 59.7655 124.736 59.7253C123.582 59.6837 122.362 59.4012 121.204 58.8334L131.772 37.2853ZM120.084 36.5037L116.985 37.4722L124.143 60.3797L127.243 59.4112L120.084 36.5037ZM118.052 53.2055L121.559 52.1096L114.4 29.2021L110.893 30.298L118.052 53.2055ZM106.526 44.2352L108.244 49.7323L131.151 42.5736L129.433 37.0765L106.526 44.2352ZM123.277 57.6067L126.653 56.5515L119.495 33.644L116.118 34.6992L123.277 57.6067ZM126.653 56.5515C126.672 56.5458 126.335 56.6545 125.721 56.6417C125.068 56.6281 124.279 56.4785 123.486 56.1139L133.511 34.3079C128.619 32.0586 123.638 32.3492 119.495 33.644L126.653 56.5515ZM123.486 56.1139C122.67 55.7389 121.873 55.1473 121.236 54.3786C120.624 53.6408 120.361 52.9845 120.264 52.6725L143.171 45.5138C141.73 40.904 138.608 36.6512 133.511 34.3079L123.486 56.1139ZM120.264 52.6725C120.166 52.3594 120.011 51.6772 120.092 50.7355C120.175 49.7558 120.486 48.8326 120.929 48.0753L141.646 60.1917C144.461 55.3771 144.612 50.1253 143.171 45.5138L120.264 52.6725ZM120.958 48.0246C121.403 47.2734 121.966 46.7013 122.495 46.3181C122.992 45.9582 123.331 45.8559 123.313 45.8616L130.471 68.7691C134.615 67.4743 138.874 64.8772 141.616 60.2424L120.958 48.0246ZM123.313 45.8616L116.429 48.0128L123.588 70.9203L130.471 68.7691L123.313 45.8616ZM131.462 55.8872L125.926 38.1725L103.019 45.3311L108.555 63.0458L131.462 55.8872ZM146.063 42.8018L157.516 39.2224L153.937 27.7687L142.483 31.348L146.063 42.8018ZM137.76 45.3964L134.18 33.9427L122.727 37.522L126.306 48.9757L137.76 45.3964ZM140.186 53.1609L143.766 64.6146L155.219 61.0353L151.64 49.5815L140.186 53.1609ZM136.679 54.2568L125.225 57.8362L128.805 69.2899L140.258 65.7106L136.679 54.2568ZM131.143 36.5421L127.564 25.0884L116.11 28.6677L119.69 40.1215L131.143 36.5421ZM134.65 35.4462L146.104 31.8668L142.525 20.4131L131.071 23.9924L134.65 35.4462ZM136.883 42.5908L125.429 46.1701L129.009 57.6239L140.462 54.0445L136.883 42.5908ZM145.186 39.9961L148.765 51.4499L160.219 47.8705L156.64 36.4168L145.186 39.9961ZM142.953 32.8515L139.374 21.3978L127.92 24.9771L131.499 36.4309L142.953 32.8515ZM146.46 31.7556L157.914 28.1762L154.335 16.7225L142.881 20.3018L146.46 31.7556ZM151.996 49.4703L155.575 60.924L167.029 57.3447L163.45 45.8909L151.996 49.4703ZM148.489 50.5662L137.035 54.1456L140.615 65.5993L152.068 62.02L148.489 50.5662ZM142.483 31.348L134.18 33.9427L141.339 56.8502L149.642 54.2555L142.483 31.348ZM126.306 48.9757L128.732 56.7402L151.64 49.5815L149.214 41.8171L126.306 48.9757ZM136.607 41.7071L133.1 42.8031L140.258 65.7106L143.766 64.6146L136.607 41.7071ZM148.133 50.6775L142.597 32.9628L119.69 40.1215L125.225 57.8362L148.133 50.6775ZM134.723 47.9959L138.23 46.8999L131.071 23.9924L127.564 25.0884L134.723 47.9959ZM123.197 39.0255L125.429 46.1701L148.337 39.0114L146.104 31.8668L123.197 39.0255ZM140.462 54.0445L148.765 51.4499L141.606 28.5424L133.304 31.137L140.462 54.0445ZM156.64 36.4168L154.407 29.2722L131.499 36.4309L133.732 43.5755L156.64 36.4168ZM146.532 44.3053L150.039 43.2093L142.881 20.3018L139.374 21.3978L146.532 44.3053ZM135.006 35.3349L140.542 53.0496L163.45 45.8909L157.914 28.1762L135.006 35.3349ZM148.417 38.0165L144.91 39.1125L152.068 62.02L155.575 60.924L148.417 38.0165ZM159.943 46.9869L157.516 39.2224L134.609 46.3811L137.035 54.1456L159.943 46.9869ZM166.1 25.6181L162.52 14.1644L151.067 17.7437L154.646 29.1975L166.1 25.6181ZM169.607 24.5222L181.06 20.9428L177.481 9.48909L166.027 13.0684L169.607 24.5222ZM175.143 42.2369L178.722 53.6906L190.176 50.1113L186.596 38.6576L175.143 42.2369ZM171.636 43.3329L160.182 46.9122L163.761 58.3659L175.215 54.7866L171.636 43.3329ZM156.515 37.691L152.936 26.2373L141.482 29.8166L145.062 41.2704L156.515 37.691ZM158.595 44.3463L147.141 47.9256L150.721 59.3794L162.175 55.8L158.595 44.3463ZM163.97 41.664L174.451 47.5073L174.476 47.4626L174.501 47.4176L163.97 41.664ZM162.44 36.8244L167.729 26.0529L167.724 26.0504L162.44 36.8244ZM150.424 30.5169L146.845 19.0631L135.391 22.6424L138.97 34.0962L150.424 30.5169ZM153.931 29.4209L165.385 25.8416L161.805 14.3878L150.352 17.9671L153.931 29.4209ZM155.649 34.918L144.195 38.4973L147.774 49.9511L159.228 46.3717L155.649 34.918ZM167.238 42.8986L177.567 49.0075L177.582 48.9821L177.597 48.9567L167.238 42.8986ZM155.96 48.2316L144.506 51.8109L148.085 63.2647L159.539 59.6853L155.96 48.2316ZM169.679 37.0719L173.186 35.9759L166.027 13.0684L162.52 14.1644L169.679 37.0719ZM158.153 28.1015L163.689 45.8162L186.596 38.6576L181.06 20.9428L158.153 28.1015ZM171.563 30.7831L168.056 31.8791L175.215 54.7866L178.722 53.6906L171.563 30.7831ZM183.089 39.7535L177.553 22.0388L154.646 29.1975L160.182 46.9122L183.089 39.7535ZM145.062 41.2704L147.141 47.9256L170.049 40.7669L167.969 34.1117L145.062 41.2704ZM162.175 55.8L165.274 54.8315L158.115 31.924L155.016 32.8925L162.175 55.8ZM165.274 54.8315C168.637 53.7806 172.207 51.5333 174.451 47.5073L153.489 35.8206C154.098 34.7278 154.92 33.8094 155.843 33.114C156.736 32.4421 157.562 32.0968 158.115 31.924L165.274 54.8315ZM174.501 47.4176C176.727 43.342 176.749 39.0034 175.615 35.3748L152.708 42.5335C152.487 41.8258 152.289 40.7942 152.378 39.5353C152.47 38.2415 152.845 36.9981 153.439 35.9103L174.501 47.4176ZM175.615 35.3748C174.472 31.7152 171.949 28.1249 167.729 26.0529L157.151 47.596C156.025 47.0434 154.99 46.2308 154.163 45.208C153.359 44.2137 152.93 43.2429 152.708 42.5335L175.615 35.3748ZM167.724 26.0504C163.554 24.0053 159.335 24.2377 156.035 25.2687L163.194 48.1762C162.664 48.342 161.8 48.5305 160.687 48.4904C159.534 48.4488 158.313 48.1662 157.156 47.5985L167.724 26.0504ZM156.035 25.2687L152.936 26.2373L160.095 49.1448L163.194 48.1762L156.035 25.2687ZM154.003 41.9706L157.51 40.8746L150.352 17.9671L146.845 19.0631L154.003 41.9706ZM142.477 33.0002L144.195 38.4973L167.103 31.3387L165.385 25.8416L142.477 33.0002ZM159.228 46.3717L162.605 45.3166L155.446 22.4091L152.07 23.4642L159.228 46.3717ZM162.605 45.3166C162.623 45.3108 162.286 45.4196 161.673 45.4068C161.019 45.3931 160.231 45.2436 159.438 44.879L169.463 23.0729C164.57 20.8237 159.589 21.1143 155.446 22.4091L162.605 45.3166ZM159.438 44.879C158.622 44.5039 157.825 43.9123 157.188 43.1436C156.576 42.4058 156.312 41.7495 156.215 41.4375L179.122 34.2789C177.682 29.669 174.56 25.4163 169.463 23.0729L159.438 44.879ZM156.215 41.4375C156.117 41.1245 155.963 40.4423 156.043 39.5006C156.127 38.5209 156.437 37.5977 156.88 36.8404L177.597 48.9567C180.413 44.1422 180.564 38.8903 179.122 34.2789L156.215 41.4375ZM156.91 36.7897C157.354 36.0384 157.917 35.4664 158.447 35.0831C158.944 34.7232 159.282 34.621 159.264 34.6267L166.423 57.5342C170.566 56.2394 174.826 53.6423 177.567 49.0075L156.91 36.7897ZM159.264 34.6267L152.38 36.7778L159.539 59.6853L166.423 57.5342L159.264 34.6267ZM167.414 44.6522L161.878 26.9375L138.97 34.0962L144.506 51.8109L167.414 44.6522ZM175.902 14.0142L187.313 10.302L183.644 -0.977477L172.323 2.56048L175.902 14.0142ZM177.453 16.0542L171.385 26.4073L171.394 26.4126L171.403 26.4179L177.453 16.0542ZM181.873 14.6728L192.747 19.7479L192.752 19.7384L192.756 19.7289L181.873 14.6728ZM181.986 12.1129L178.407 0.659102L167.086 4.19706L170.492 15.5588L181.986 12.1129ZM184.368 11.3686L195.822 7.78928L192.242 -3.66447L180.789 -0.0851359L184.368 11.3686ZM184.035 15.573L173.564 9.71032L173.547 9.74019L173.531 9.77017L184.035 15.573ZM176.189 18.0249L181.519 7.27384L181.488 7.25863L181.458 7.2436L176.189 18.0249ZM173.521 14.7585L169.941 3.30471L158.487 6.88405L162.067 18.3378L173.521 14.7585ZM179.09 41.0033L167.636 44.5826L171.216 56.0364L182.669 52.457L179.09 41.0033ZM173.554 23.2886L169.975 11.8348L158.521 15.4142L162.1 26.8679L173.554 23.2886ZM177.029 22.2028L188.482 18.6235L184.903 7.16972L173.449 10.7491L177.029 22.2028ZM180.944 34.7303L169.49 38.3097L173.069 49.7634L184.523 46.1841L180.944 34.7303ZM181.074 34.6896L184.653 46.1433L190.737 44.2422L192.568 38.1371L181.074 34.6896ZM185.625 19.5164L182.046 8.06266L175.962 9.96382L174.131 16.0689L185.625 19.5164ZM189.099 18.4306L200.553 14.8513L196.974 3.39756L185.52 6.97689L189.099 18.4306ZM194.635 36.1454L198.215 47.5991L209.668 44.0198L206.089 32.566L194.635 36.1454ZM191.161 37.2311L179.707 40.8105L183.286 52.2642L194.74 48.6849L191.161 37.2311ZM187.231 24.6547L198.684 21.0753L195.105 9.62158L183.651 13.2009L187.231 24.6547ZM187.1 24.6954L183.521 13.2417L177.424 15.147L175.6 21.2687L187.1 24.6954ZM182.565 39.9175L186.144 51.3713L192.241 49.466L194.065 43.3443L182.565 39.9175ZM164.491 17.7265C165.551 20.9848 167.727 24.2635 171.385 26.4073L183.52 5.70111C184.519 6.2868 185.388 7.06406 186.07 7.96134C186.736 8.83683 187.109 9.67419 187.313 10.302L164.491 17.7265ZM171.403 26.4179C175.315 28.7011 179.676 28.9524 183.525 27.7496L176.366 4.84209C177.243 4.56815 178.424 4.36931 179.803 4.50297C181.204 4.63879 182.466 5.08556 183.502 5.69055L171.403 26.4179ZM183.525 27.7496C187.339 26.5577 190.813 23.8922 192.747 19.7479L170.999 9.5977C171.516 8.49056 172.309 7.40121 173.384 6.49607C174.439 5.60767 175.513 5.10864 176.366 4.84209L183.525 27.7496ZM192.756 19.7289C194.543 15.8836 194.465 11.949 193.481 8.66694L170.492 15.5588C170.302 14.9264 170.132 14.0255 170.181 12.9269C170.231 11.8009 170.502 10.6672 170.99 9.61667L192.756 19.7289ZM185.566 23.5666L187.947 22.8224L180.789 -0.0851359L178.407 0.659102L185.566 23.5666ZM172.914 14.9479C172.766 14.4753 172.602 13.669 172.684 12.6294C172.769 11.5577 173.093 10.5515 173.564 9.71032L194.505 21.4357C197.025 16.9347 197.156 12.0606 195.822 7.78928L172.914 14.9479ZM173.531 9.77017C173.988 8.94217 174.621 8.21552 175.347 7.65996C176.046 7.12536 176.655 6.88238 176.973 6.78321L184.131 29.6907C188.163 28.4308 192.09 25.8069 194.538 21.3759L173.531 9.77017ZM176.973 6.78321C177.304 6.67958 177.953 6.53237 178.837 6.57531C179.753 6.61987 180.682 6.85884 181.519 7.27384L170.858 28.776C175.374 31.0152 180.087 30.9546 184.131 29.6907L176.973 6.78321ZM181.458 7.2436C182.324 7.6669 183.163 8.30948 183.843 9.14209C184.503 9.94981 184.827 10.7065 184.974 11.1791L162.067 18.3378C163.402 22.6091 166.285 26.5411 170.919 28.8062L181.458 7.2436ZM177.1 26.2122L179.481 25.468L172.323 2.56048L169.941 3.30471L177.1 26.2122ZM190.544 37.424L185.008 19.7092L162.1 26.8679L167.636 44.5826L190.544 37.424ZM177.134 34.7423L180.608 33.6566L173.449 10.7491L169.975 11.8348L177.134 34.7423ZM165.575 25.7821L169.49 38.3097L192.397 31.151L188.482 18.6235L165.575 25.7821ZM184.523 46.1841L184.653 46.1433L177.495 23.2358L177.364 23.2766L184.523 46.1841ZM192.568 38.1371L197.119 22.9639L174.131 16.0689L169.58 31.2421L192.568 38.1371ZM189.204 30.9702L192.679 29.8844L185.52 6.97689L182.046 8.06266L189.204 30.9702ZM177.646 22.01L183.182 39.7247L206.089 32.566L200.553 14.8513L177.646 22.01ZM191.056 24.6916L187.582 25.7774L194.74 48.6849L198.215 47.5991L191.056 24.6916ZM202.615 33.6518L198.684 21.0753L175.777 28.234L179.707 40.8105L202.615 33.6518ZM183.651 13.2009L183.521 13.2417L190.68 36.1492L190.81 36.1084L183.651 13.2009ZM175.6 21.2687L171.064 36.4908L194.065 43.3443L198.601 28.1222L175.6 21.2687ZM178.985 28.4638L175.511 29.5495L182.669 52.457L186.144 51.3713L178.985 28.4638ZM22.9993 136.928L11.5456 140.508L15.1249 151.961L26.5787 148.382L22.9993 136.928ZM17.4634 119.214L13.8841 107.76L2.43034 111.339L6.00967 122.793L17.4634 119.214ZM21.8676 117.837L30.8997 109.936L25.7516 104.051L18.2883 106.383L21.8676 117.837ZM31.7568 129.142L22.7247 137.043L27.8728 142.928L35.3361 140.596L31.7568 129.142ZM31.8873 129.102L35.4666 140.555L42.9129 138.228L43.808 130.478L31.8873 129.102ZM33.6122 114.167L30.0329 102.713L22.5866 105.04L21.6915 112.79L33.6122 114.167ZM37.8859 112.831L49.3397 109.252L45.7603 97.7984L34.3066 101.378L37.8859 112.831ZM43.4218 130.546L47.0012 142L58.4549 138.421L54.8756 126.967L43.4218 130.546ZM40.0126 131.612L28.5589 135.191L32.1382 146.645L43.592 143.065L40.0126 131.612ZM36.1538 119.263L47.6076 115.684L44.0282 104.23L32.5745 107.81L36.1538 119.263ZM36.0233 119.304L32.444 107.85L25.1112 110.142L24.123 117.761L36.0233 119.304ZM34.2902 132.666L37.8695 144.119L45.2023 141.828L46.1905 134.209L34.2902 132.666ZM31.6966 133.476L22.7835 141.511L27.9339 147.224L35.276 144.93L31.6966 133.476ZM22.6802 123.474L31.5933 115.439L26.4429 109.726L19.1009 112.02L22.6802 123.474ZM22.5497 123.515L18.9704 112.061L7.51661 115.64L11.0959 127.094L22.5497 123.515ZM26.4085 135.863L29.9878 147.317L41.4416 143.737L37.8623 132.284L26.4085 135.863ZM34.4531 133.349L28.9172 115.634L6.00967 122.793L11.5456 140.508L34.4531 133.349ZM21.0428 130.667L25.447 129.291L18.2883 106.383L13.8841 107.76L21.0428 130.667ZM12.8356 125.738L22.7247 137.043L40.7888 121.242L30.8997 109.936L12.8356 125.738ZM35.3361 140.596L35.4666 140.555L28.3079 117.648L28.1774 117.689L35.3361 140.596ZM43.808 130.478L45.533 115.544L21.6915 112.79L19.9665 127.725L43.808 130.478ZM37.1915 125.621L41.4653 124.285L34.3066 101.378L30.0329 102.713L37.1915 125.621ZM26.4322 116.411L31.9681 134.126L54.8756 126.967L49.3397 109.252L26.4322 116.411ZM39.8425 119.092L36.4333 120.158L43.592 143.065L47.0012 142L39.8425 119.092ZM51.4664 128.032L47.6076 115.684L24.7001 122.843L28.5589 135.191L51.4664 128.032ZM32.5745 107.81L32.444 107.85L39.6027 130.758L39.7331 130.717L32.5745 107.81ZM24.123 117.761L22.3899 131.122L46.1905 134.209L47.9236 120.848L24.123 117.761ZM30.7109 121.212L28.1173 122.022L35.276 144.93L37.8695 144.119L30.7109 121.212ZM40.6098 125.442L31.5933 115.439L13.7671 131.509L22.7835 141.511L40.6098 125.442ZM19.1009 112.02L18.9704 112.061L26.129 134.969L26.2595 134.928L19.1009 112.02ZM11.0959 127.094L14.9548 139.442L37.8623 132.284L34.0034 119.935L11.0959 127.094ZM22.8292 124.409L19.42 125.475L26.5787 148.382L29.9878 147.317L22.8292 124.409ZM55.6364 122.593L65.7885 128.991L65.8112 128.955L65.8337 128.919L55.6364 122.593ZM55.6221 117.906L67.0758 114.327L63.2441 102.066L51.2719 106.723L55.6221 117.906ZM51.4075 119.546L55.6912 130.755L55.7245 130.742L55.7577 130.73L51.4075 119.546ZM50.0322 124.828L54.041 113.517L53.9758 113.494L53.9104 113.472L50.0322 124.828ZM47.8576 127.781L43.0243 138.765L43.055 138.778L43.0858 138.792L47.8576 127.781ZM45.6096 120.301L55.3766 127.273L55.3924 127.251L55.4081 127.229L45.6096 120.301ZM50.1545 117.198L45.9178 105.971L45.8823 105.984L45.847 105.998L50.1545 117.198ZM54.8473 115.427L59.084 126.654L69.6787 122.656L66.301 111.848L54.8473 115.427ZM52.7114 112.03L57.2942 100.94L57.2849 100.936L57.2757 100.932L52.7114 112.03ZM47.5049 113.532L38.0613 106.128L38.0326 106.164L38.0043 106.201L47.5049 113.532ZM46.8738 115.752L50.4531 127.206L59.8689 124.264L58.8036 114.456L46.8738 115.752ZM43.5625 116.787L31.9914 119.967L35.2835 131.947L47.1418 128.241L43.5625 116.787ZM44.4158 112.241L34.5546 105.403L44.4158 112.241ZM54.572 109.103L50.0637 120.224L50.0867 120.233L50.1097 120.243L54.572 109.103ZM61.6259 124.857L65.2052 136.311L76.659 132.732L73.0797 121.278L61.6259 124.857ZM58.2493 125.913L46.7956 129.492L50.3749 140.946L61.8287 137.366L58.2493 125.913ZM57.3267 122.96L68.7804 119.381L65.2011 107.927L53.7474 111.506L57.3267 122.96ZM57.2451 122.986L53.6658 111.532L46.6584 113.722L45.4177 120.958L57.2451 122.986ZM56.2724 136.202C59.9136 135.064 63.4137 132.759 65.7885 128.991L45.4843 116.195C45.9687 115.426 46.6022 114.749 47.3262 114.219C48.0323 113.702 48.6783 113.431 49.1138 113.295L56.2724 136.202ZM65.8337 128.919C68.3132 124.922 68.9132 120.207 67.5091 115.714L44.6016 122.872C44.321 121.974 44.1509 120.802 44.3189 119.479C44.4869 118.156 44.9442 117.065 45.439 116.267L65.8337 128.919ZM67.5091 115.714L67.0758 114.327L44.1683 121.486L44.6016 122.872L67.5091 115.714ZM51.2719 106.723L47.0573 108.362L55.7577 130.73L59.9723 129.09L51.2719 106.723ZM47.1238 108.336C45.0249 109.139 41.7761 110.706 39.3397 113.913C36.3588 117.836 35.7712 122.632 37.0992 126.882L60.0067 119.723C60.3494 120.82 60.5806 122.33 60.3009 124.075C60.0169 125.846 59.2907 127.325 58.4492 128.433C57.6546 129.478 56.8488 130.08 56.4007 130.37C56.1646 130.523 55.9789 130.621 55.8663 130.676C55.8083 130.705 55.7642 130.724 55.7357 130.737C55.7072 130.749 55.6918 130.755 55.6912 130.755L47.1238 108.336ZM37.0992 126.882C38.4666 131.258 41.7486 134.679 46.1541 136.184L53.9104 113.472C55.118 113.884 56.4948 114.642 57.715 115.9C58.9324 117.155 59.6369 118.54 60.0067 119.723L37.0992 126.882ZM46.0234 136.138C49.9403 137.527 53.6136 137.033 56.2724 136.202L49.1138 113.295C49.7281 113.103 51.6275 112.662 54.041 113.517L46.0234 136.138ZM49.0495 116.412C49.1892 116.369 49.6349 116.25 50.3194 116.262C51.0356 116.275 51.8407 116.429 52.6295 116.771L43.0858 138.792C47.6612 140.775 52.2912 140.544 56.2082 139.32L49.0495 116.412ZM52.691 116.798C53.5104 117.158 54.397 117.759 55.1541 118.633C55.8961 119.49 56.2758 120.332 56.4548 120.905L33.5473 128.064C34.9906 132.682 38.1932 136.639 43.0243 138.765L52.691 116.798ZM56.4548 120.905C56.67 121.594 56.8593 122.681 56.6662 124.008C56.4695 125.36 55.946 126.475 55.3766 127.273L35.8426 113.329C32.6272 117.834 32.0196 123.175 33.5473 128.064L56.4548 120.905ZM55.4081 127.229C54.8709 127.989 54.3561 128.378 54.1708 128.505C53.9947 128.625 54.0419 128.56 54.4621 128.398L45.847 105.998C42.5513 107.265 38.5949 109.436 35.8112 113.374L55.4081 127.229ZM54.3913 128.425L59.084 126.654L50.6105 104.2L45.9178 105.971L54.3913 128.425ZM66.301 111.848L65.8728 110.478L42.9653 117.636L43.3935 119.006L66.301 111.848ZM65.8728 110.478C64.7186 106.784 62.0444 102.903 57.2942 100.94L48.1286 123.121C46.7748 122.561 45.5429 121.669 44.5782 120.524C43.6524 119.425 43.19 118.355 42.9653 117.636L65.8728 110.478ZM57.2757 100.932C52.977 99.1641 48.8936 99.7735 46.1419 100.633L53.3006 123.541C52.9195 123.66 50.8296 124.231 48.1471 123.128L57.2757 100.932ZM46.1419 100.633C43.3112 101.518 40.346 103.214 38.0613 106.128L56.9484 120.936C55.7049 122.522 54.2173 123.254 53.3006 123.541L46.1419 100.633ZM38.0043 106.201C35.6266 109.283 34.5157 113.106 34.944 117.048L58.8036 114.456C58.9139 115.472 58.8544 116.643 58.5077 117.863C58.1617 119.08 57.6035 120.087 57.0055 120.862L38.0043 106.201ZM43.2945 104.299L39.9831 105.333L47.1418 128.241L50.4531 127.206L43.2945 104.299ZM55.1335 113.607C55.367 114.457 55.4592 115.528 55.2436 116.677C55.0327 117.801 54.6007 118.612 54.2769 119.079L34.5546 105.403C31.694 109.528 30.5387 114.68 31.9914 119.967L55.1335 113.607ZM54.2769 119.079C53.9298 119.58 53.5133 119.975 53.1149 120.25C52.7351 120.513 52.481 120.592 52.486 120.591L45.3273 97.683C41.2734 98.9499 37.3468 101.376 34.5546 105.403L54.2769 119.079ZM52.486 120.591C52.6523 120.539 52.4735 120.618 52.0173 120.621C51.5268 120.624 50.8314 120.535 50.0637 120.224L59.0803 97.9822C54.1991 96.0034 49.331 96.4319 45.3273 97.683L52.486 120.591ZM50.1097 120.243C49.3652 119.944 48.4816 119.401 47.7023 118.539C46.9352 117.69 46.5495 116.844 46.3745 116.284L69.282 109.126C67.7194 104.125 64.1896 100.029 59.0343 97.9636L50.1097 120.243ZM46.3745 116.284L50.1722 128.437L73.0797 121.278L69.282 109.126L46.3745 116.284ZM58.0466 113.404L54.67 114.459L61.8287 137.366L65.2052 136.311L58.0466 113.404ZM69.7031 122.333L68.7804 119.381L45.8729 126.539L46.7956 129.492L69.7031 122.333ZM53.7474 111.506L53.6658 111.532L60.8245 134.439L60.906 134.414L53.7474 111.506ZM45.4177 120.958C45.5283 120.313 45.741 119.67 46.0483 119.073C46.3521 118.483 46.6973 118.036 46.9938 117.722L64.4217 134.223C66.7527 131.761 68.4502 128.643 69.0725 125.014L45.4177 120.958ZM46.9938 117.722C47.2909 117.409 47.6408 117.122 48.0264 116.885C48.4094 116.65 48.7648 116.501 49.0495 116.412L56.2082 139.32C59.2795 138.36 62.1044 136.671 64.4217 134.223L46.9938 117.722ZM73.2359 107.98L63.0662 114.35L67.98 122.194L76.8152 119.433L73.2359 107.98ZM71.202 106.341L67.3006 117.689L67.3073 117.692L71.202 106.341ZM65.2797 109.105L54.0527 104.868L54.0455 104.887L54.0384 104.906L65.2797 109.105ZM68.0895 118.039L74.8096 108.097L74.7975 108.089L74.7854 108.081L68.0895 118.039ZM75.2922 114.445L71.7129 102.991L63.0869 105.687L63.2954 114.722L75.2922 114.445ZM78.7014 113.38L90.5687 111.6L88.4916 97.7481L75.1221 101.926L78.7014 113.38ZM77.5698 118.353L67.7201 111.498L67.7125 111.509L77.5698 118.353ZM66.1525 121.008L72.1235 110.599L72.1036 110.587L72.0835 110.576L66.1525 121.008ZM61.997 107.768L51.1291 102.679L61.997 107.768ZM73.0014 103.505L68.4528 114.61L68.4857 114.623L68.5187 114.636L73.0014 103.505ZM76.6451 106.914L80.2244 118.368L93.5031 114.218L87.4494 101.692L76.6451 106.914ZM83.4055 101.609C81.5116 98.5859 78.6675 96.2161 75.0966 94.9908L67.3073 117.692C66.4692 117.404 65.6132 116.952 64.8245 116.316C64.041 115.685 63.4666 114.989 63.0662 114.35L83.4055 101.609ZM75.1034 94.9932C71.3524 93.7036 67.6913 93.9708 64.6274 94.9283L71.786 117.836C70.897 118.114 69.2328 118.354 67.3006 117.689L75.1034 94.9932ZM64.6274 94.9283C59.7893 96.4402 55.9162 99.9304 54.0527 104.868L76.5067 113.342C76.1752 114.221 75.5657 115.261 74.5721 116.185C73.5874 117.101 72.5587 117.594 71.786 117.836L64.6274 94.9283ZM54.0384 104.906C52.3362 109.463 52.7824 113.929 53.9127 117.545L76.8202 110.387C76.795 110.306 77.1834 111.531 76.5211 113.304L54.0384 104.906ZM53.9127 117.545C55.0386 121.148 57.2325 125.199 61.3936 127.997L74.7854 108.081C76.4983 109.233 76.8769 110.568 76.8202 110.387L53.9127 117.545ZM61.3693 127.981C65.7341 130.931 70.8657 131.516 75.6153 130.032L68.4566 107.125C69.1968 106.893 70.2913 106.712 71.5975 106.89C72.9201 107.071 74.0159 107.561 74.8096 108.097L61.3693 127.981ZM75.6153 130.032C78.2949 129.195 81.4819 127.571 83.9398 124.451C86.5023 121.199 87.3653 117.474 87.289 114.168L63.2954 114.722C63.2667 113.479 63.6108 111.473 65.0878 109.599C66.4603 107.857 67.9954 107.269 68.4566 107.125L75.6153 130.032ZM78.8715 125.899L82.2807 124.834L75.1221 101.926L71.7129 102.991L78.8715 125.899ZM66.8341 115.159C66.7705 114.735 66.7518 114.094 66.924 113.337C67.0978 112.574 67.4081 111.947 67.7201 111.498L87.4194 125.207C90.2561 121.131 91.2833 116.366 90.5687 111.6L66.8341 115.159ZM67.7125 111.509C68.0389 111.039 68.4316 110.666 68.8071 110.406C69.1645 110.159 69.3955 110.09 69.3681 110.098L76.5267 133.006C80.6477 131.718 84.609 129.256 87.427 125.196L67.7125 111.509ZM69.3681 110.098C69.3366 110.108 69.6876 109.995 70.3148 110.046C70.9804 110.099 71.6202 110.31 72.1235 110.599L60.1814 131.417C65.5123 134.475 71.3134 134.635 76.5267 133.006L69.3681 110.098ZM72.0835 110.576C72.6033 110.871 72.9833 111.248 73.2053 111.55C73.4019 111.817 73.3631 111.872 73.2478 111.503L50.3403 118.662C51.8812 123.592 54.9238 128.428 60.2214 131.44L72.0835 110.576ZM73.2478 111.503C73.1433 111.169 73.2043 111.201 73.1954 111.523C73.1854 111.883 73.093 112.368 72.8649 112.856L51.1291 102.679C48.5886 108.106 48.8005 113.734 50.3403 118.662L73.2478 111.503ZM72.8649 112.856C72.6391 113.338 72.2532 113.873 71.7263 114.311C71.2249 114.727 70.8404 114.855 70.8206 114.861L63.6619 91.9534C58.3617 93.6097 53.7274 97.1295 51.1291 102.679L72.8649 112.856ZM70.8206 114.861C70.8082 114.865 70.5299 114.949 70.0434 114.941C69.5338 114.932 68.9767 114.824 68.4528 114.61L77.55 92.4005C72.8181 90.4623 67.9807 90.6038 63.6619 91.9534L70.8206 114.861ZM68.5187 114.636C68.0688 114.455 67.5021 114.133 66.9529 113.619C66.404 113.105 66.0479 112.565 65.8407 112.136L87.4494 101.692C85.3769 97.4044 81.9122 94.157 77.4841 92.3737L68.5187 114.636ZM73.0657 95.4605L69.6565 96.5258L76.8152 119.433L80.2244 118.368L73.0657 95.4605ZM91.8906 99.0345L95.4699 110.488L106.924 106.909L103.344 95.4552L91.8906 99.0345ZM86.2956 100.783L82.7162 89.3292L71.2625 92.9085L74.8418 104.362L86.2956 100.783ZM90.9547 115.692L94.534 127.146L105.988 123.566L102.408 112.113L90.9547 115.692ZM87.464 116.783L76.0102 120.362L79.5895 131.816L91.0433 128.237L87.464 116.783ZM82.8048 101.874L94.2586 98.2945L90.6792 86.8407L79.2255 90.4201L82.8048 101.874ZM77.2098 103.622L65.7561 107.202L69.3354 118.655L80.7892 115.076L77.2098 103.622ZM76.3331 100.817L72.7537 89.3629L61.3 92.9422L64.8793 104.396L76.3331 100.817ZM91.0138 96.2288L102.468 92.6495L98.8882 81.1958L87.4344 84.7751L91.0138 96.2288ZM88.3112 87.5807L82.7162 89.3292L89.8749 112.237L95.4699 110.488L88.3112 87.5807ZM74.8418 104.362L79.501 119.271L102.408 112.113L97.7493 97.2036L74.8418 104.362ZM87.3754 104.238L83.8846 105.329L91.0433 128.237L94.534 127.146L87.3754 104.238ZM98.9177 113.204L94.2586 98.2945L71.3511 105.453L76.0102 120.362L98.9177 113.204ZM79.2255 90.4201L73.6305 92.1685L80.7892 115.076L86.3842 113.328L79.2255 90.4201ZM88.6636 100.043L87.7868 97.2373L64.8793 104.396L65.7561 107.202L88.6636 100.043ZM79.9124 112.27L94.5931 107.683L87.4344 84.7751L72.7537 89.3629L79.9124 112.27ZM79.56 99.8082L80.4368 102.614L103.344 95.4552L102.468 92.6495L79.56 99.8082ZM98.8486 98.0955L109.479 103.664L109.497 103.629L109.514 103.595L98.8486 98.0955ZM98.4643 101.85L86.783 104.598L89.7355 117.15L102.044 113.304L98.4643 101.85ZM107.452 99.0416L111.031 110.495L122.852 106.801L118.788 95.1035L107.452 99.0416ZM112.464 103.277L124.335 101.523L122.284 87.6355L108.885 91.8228L112.464 103.277ZM111.187 107.955L120.725 115.237L120.743 115.212L120.762 115.188L111.187 107.955ZM99.6897 110.527L93.7158 120.935L93.7186 120.936L99.6897 110.527ZM107.259 93.4976L101.16 103.832L101.178 103.842L101.196 103.853L107.259 93.4976ZM111.777 100.447L115.356 111.901L126.81 108.322L123.231 96.8681L111.777 100.447ZM99.233 104.367L95.6536 92.9137L84.1999 96.493L87.7792 107.947L99.233 104.367ZM101.773 107.853L107.656 97.3945L107.626 97.3773L107.595 97.3603L101.773 107.853ZM109.087 104.332L105.508 92.878L97.0661 95.5161L97.0874 104.361L109.087 104.332ZM98.0362 84.3805C93.93 85.6637 90.3326 88.4269 88.1829 92.5962L109.514 103.595C109.084 104.429 108.436 105.276 107.563 105.99C106.703 106.692 105.849 107.084 105.195 107.288L98.0362 84.3805ZM88.2186 92.5275C86.1148 96.5438 85.8914 100.807 86.783 104.598L110.145 99.1028C110.247 99.5345 110.342 100.223 110.253 101.091C110.162 101.982 109.896 102.866 109.479 103.664L88.2186 92.5275ZM102.044 113.304L111.031 110.495L103.873 87.5878L94.8849 90.3966L102.044 113.304ZM118.788 95.1035C117.533 91.4934 115.066 87.873 110.918 85.5943L99.3618 106.629C98.4546 106.13 97.6846 105.461 97.0977 104.717C96.531 103.999 96.2479 103.357 96.1167 102.98L118.788 95.1035ZM110.918 85.5943C106.674 83.2628 102.075 83.1184 98.0362 84.3805L105.195 107.288C104.58 107.48 103.655 107.655 102.518 107.566C101.353 107.474 100.27 107.128 99.3618 106.629L110.918 85.5943ZM100.593 105.03C100.484 104.292 100.511 103.422 100.753 102.535C100.99 101.668 101.356 101.06 101.611 100.722L120.762 115.188C123.623 111.4 125.092 106.647 124.335 101.523L100.593 105.03ZM101.648 100.673C101.92 100.317 102.237 100.032 102.538 99.8312C102.825 99.6391 103.003 99.5872 102.971 99.5975L110.129 122.505C114.124 121.257 117.9 118.937 120.725 115.237L101.648 100.673ZM102.971 99.5975C102.893 99.6217 103.213 99.5099 103.824 99.5566C104.477 99.6065 105.13 99.8136 105.661 100.118L93.7186 120.936C99.1018 124.024 104.939 124.127 110.129 122.505L102.971 99.5975ZM105.664 100.12C106.207 100.432 106.594 100.822 106.815 101.125C107.011 101.393 106.971 101.446 106.854 101.073L83.9469 108.231C85.4671 113.096 88.4604 117.918 93.7158 120.935L105.664 100.12ZM106.854 101.073C106.739 100.702 106.793 100.699 106.787 100.987C106.78 101.312 106.699 101.782 106.476 102.272L84.635 92.3243C82.1641 97.7492 82.4209 103.348 83.9469 108.231L106.854 101.073ZM106.476 102.272C106.251 102.766 105.858 103.326 105.305 103.792C104.778 104.236 104.36 104.38 104.309 104.396L97.1502 81.4882C91.8141 83.1558 87.1844 86.7271 84.635 92.3243L106.476 102.272ZM104.309 104.396C104.288 104.402 103.872 104.526 103.172 104.467C102.43 104.404 101.721 104.163 101.16 103.832L113.359 83.1633C108.078 80.0465 102.303 79.8781 97.1502 81.4882L104.309 104.396ZM101.196 103.853C100.631 103.522 100.233 103.115 100.004 102.798C99.7996 102.516 99.8283 102.444 99.9357 102.787L122.843 95.6284C121.361 90.8857 118.452 86.1457 113.323 83.1424L101.196 103.853ZM99.9357 102.787L100.323 104.027L123.231 96.8681L122.843 95.6284L99.9357 102.787ZM108.197 88.9937L95.6536 92.9137L102.812 115.821L115.356 111.901L108.197 88.9937ZM87.7792 107.947L87.8455 108.159L110.753 101L110.687 100.788L87.7792 107.947ZM87.8455 108.159C89.0479 112.007 91.56 115.91 95.95 118.346L107.595 97.3603C108.508 97.8668 109.277 98.5541 109.851 99.314C110.402 100.043 110.651 100.675 110.753 101L87.8455 108.159ZM95.8889 118.312C100.344 120.818 105.149 120.91 109.297 119.614L102.139 96.7062C102.641 96.5493 103.485 96.3766 104.569 96.4609C105.689 96.548 106.753 96.8863 107.656 97.3945L95.8889 118.312ZM109.297 119.614C112.057 118.751 114.892 117.177 117.192 114.562L99.1662 98.7161C100.25 97.4827 101.445 96.9228 102.139 96.7062L109.297 119.614ZM117.192 114.562C119.55 111.879 121.097 108.339 121.087 104.303L97.0874 104.361C97.0849 103.308 97.2789 102.207 97.6961 101.147C98.1074 100.103 98.6573 99.2951 99.1662 98.7161L117.192 114.562ZM112.667 115.785L116.043 114.73L108.885 91.8228L105.508 92.878L112.667 115.785ZM127.157 87.4407L120.616 97.5016L120.636 97.5144L120.656 97.5272L127.157 87.4407ZM131.282 100.583L120.162 96.0724L120.159 96.0803L131.282 100.583ZM120.11 103.394L128.49 94.8041L123.365 89.8044L116.531 91.94L120.11 103.394ZM120.045 103.414L116.466 91.9604L105.012 95.5397L108.591 106.993L120.045 103.414ZM122.762 112.108L126.341 123.562L137.795 119.983L134.216 108.529L122.762 112.108ZM119.222 113.215L107.768 116.794L111.348 128.248L122.802 124.668L119.222 113.215ZM111.877 89.7091L108.297 78.2554L96.8436 81.8347L100.423 93.2884L111.877 89.7091ZM115.286 88.6437L126.74 85.0644L123.16 73.6106L111.707 77.19L115.286 88.6437ZM116.203 91.5799L104.75 95.1592L108.329 106.613L119.783 103.034L116.203 91.5799ZM116.285 91.5544L119.864 103.008L126.801 100.84L128.094 93.6883L116.285 91.5544ZM117.844 88.5785L126.49 96.9002L126.505 96.8843L126.52 96.8683L117.844 88.5785ZM127.712 99.2995L116.511 94.9936L127.712 99.2995ZM118.152 97.4705L106.677 100.981L106.698 101.05L106.72 101.119L118.152 97.4705ZM120.839 101.429L127.703 91.5859L127.673 91.565L127.643 91.5442L120.839 101.429ZM124.535 98.1288C124.259 98.2151 123.614 98.3548 122.732 98.2459C121.828 98.1343 121.095 97.8129 120.616 97.5016L133.697 77.3798C128.624 74.0816 122.811 73.5227 117.376 75.2213L124.535 98.1288ZM120.656 97.5272C120.179 97.22 119.878 96.8776 119.733 96.6681C119.608 96.4871 119.679 96.523 119.813 96.9514L142.72 89.7928C141.266 85.1404 138.502 80.4767 133.658 77.3542L120.656 97.5272ZM119.813 96.9514C119.946 97.3773 119.911 97.4542 119.91 97.2474C119.91 97.1406 119.919 96.9727 119.959 96.7587C120 96.5428 120.066 96.3094 120.162 96.0724L142.402 105.094C144.55 99.798 144.17 94.4305 142.72 89.7928L119.813 96.9514ZM120.159 96.0803C120.368 95.5619 120.784 94.8717 121.475 94.249C122.153 93.6384 122.79 93.368 123.106 93.2694L130.264 116.177C135.728 114.47 140.148 110.662 142.405 105.086L120.159 96.0803ZM123.106 93.2694C123.274 93.2169 124.15 92.9837 125.446 93.2456C126.826 93.5248 127.874 94.2037 128.49 94.8041L111.731 111.983C114.098 114.293 117.117 116.047 120.689 116.77C124.176 117.475 127.464 117.052 130.264 116.177L123.106 93.2694ZM116.531 91.94L116.466 91.9604L123.624 114.868L123.69 114.848L116.531 91.94ZM108.591 106.993L111.308 115.688L134.216 108.529L131.499 99.8348L108.591 106.993ZM119.183 100.655L115.643 101.761L122.802 124.668L126.341 123.562L119.183 100.655ZM130.676 109.635L123.33 86.1298L100.423 93.2884L107.768 116.794L130.676 109.635ZM115.456 101.163L118.865 100.097L111.707 77.19L108.297 78.2554L115.456 101.163ZM103.832 92.2231L104.75 95.1592L127.657 88.0005L126.74 85.0644L103.832 92.2231ZM119.783 103.034L119.864 103.008L112.706 80.1006L112.624 80.1261L119.783 103.034ZM128.094 93.6883C127.98 94.317 127.766 94.95 127.456 95.5435C127.148 96.1311 126.797 96.5808 126.49 96.9002L109.198 80.2567C106.836 82.7108 105.128 85.8165 104.476 89.4205L128.094 93.6883ZM126.52 96.8683C126.231 97.1714 125.891 97.4473 125.518 97.6755C125.148 97.902 124.806 98.0441 124.535 98.1288L117.376 75.2213C114.312 76.1788 111.49 77.8575 109.167 80.2887L126.52 96.8683ZM128.348 113.481C133.182 111.971 137.033 108.494 138.912 103.605L116.511 94.9936C116.84 94.1367 117.442 93.1174 118.423 92.2084C119.397 91.306 120.415 90.8157 121.189 90.5739L128.348 113.481ZM138.912 103.605C140.67 99.0329 140.23 94.5426 139.099 90.9244L116.191 98.0831C116.203 98.1187 115.806 96.8256 116.511 94.9936L138.912 103.605ZM139.099 90.9244C137.968 87.3062 135.774 83.3641 131.725 80.6062L118.213 100.441C116.591 99.3361 116.18 98.0474 116.191 98.0831L139.099 90.9244ZM131.725 80.6062C127.397 77.6577 122.251 76.9923 117.417 78.5031L124.575 101.411C123.802 101.652 122.685 101.829 121.371 101.642C120.047 101.453 118.972 100.958 118.213 100.441L131.725 80.6062ZM117.417 78.5031C112.476 80.0472 108.707 83.6257 106.885 88.4339L129.328 96.9382C129.021 97.7476 128.444 98.7636 127.462 99.6914C126.478 100.621 125.422 101.146 124.575 101.411L117.417 78.5031ZM106.885 88.4339C105.183 92.9267 105.566 97.3498 106.677 100.981L129.627 93.9602C129.631 93.9741 129.984 95.2075 129.328 96.9382L106.885 88.4339ZM106.72 101.119C107.874 104.736 110.078 108.59 114.036 111.314L127.643 91.5442C129.167 92.5935 129.579 93.8084 129.584 93.8222L106.72 101.119ZM113.975 111.272C118.253 114.255 123.423 115.02 128.348 113.481L121.189 90.5739C122.016 90.3155 123.181 90.1403 124.533 90.3462C125.887 90.5525 126.964 91.071 127.703 91.5859L113.975 111.272ZM134.712 93.5128L123.259 97.0921L126.838 108.546L138.292 104.967L134.712 93.5128ZM133.718 90.332L130.139 78.8782L118.685 82.4575L122.265 93.9113L133.718 90.332ZM144.419 86.988L155.873 83.4087L152.293 71.9549L140.84 75.5342L144.419 86.988ZM145.413 90.1688L148.992 101.623L160.446 98.0432L156.867 86.5895L145.413 90.1688ZM146.166 89.9335L145.172 86.7526L122.265 93.9113L123.259 97.0921L146.166 89.9335ZM137.298 101.786L147.998 98.4417L140.84 75.5342L130.139 78.8782L137.298 101.786ZM132.965 90.5673L133.959 93.7481L156.867 86.5895L155.873 83.4087L132.965 90.5673ZM141.834 78.7151L131.133 82.059L138.292 104.967L148.992 101.623L141.834 78.7151ZM166.903 91.958L170.482 103.412L195.686 95.5353L173.177 81.7288L166.903 91.958ZM162.482 93.3394L156.175 103.548L160.834 106.427L166.062 104.793L162.482 93.3394ZM152.764 87.3346L159.071 77.1259L154.412 74.2472L149.184 75.8808L152.764 87.3346ZM152.633 87.3754L149.054 75.9216L137.6 79.501L141.179 90.9547L152.633 87.3754ZM155.207 95.6129L158.787 107.067L170.24 103.487L166.661 92.0336L155.207 95.6129ZM151.7 96.7089L140.246 100.288L143.826 111.742L155.28 108.163L151.7 96.7089ZM146.164 78.9941L142.585 67.5404L131.131 71.1197L134.711 82.5735L146.164 78.9941ZM149.671 77.8982L161.125 74.3188L157.546 62.8651L146.092 66.4444L149.671 77.8982ZM152.052 85.5158L140.598 89.0952L144.177 100.549L155.631 96.9696L152.052 85.5158ZM152.182 85.475L155.762 96.9288L160.761 95.3664L163.015 90.6378L152.182 85.475ZM156.865 75.6502L153.286 64.1964L148.286 65.7588L146.032 70.4874L156.865 75.6502ZM161.073 74.335L171.851 79.6127L184.119 54.561L157.494 62.8812L161.073 74.335ZM155.783 85.1376L145.006 79.8599L140.207 89.6608L149.509 95.3667L155.783 85.1376ZM163.324 80.5042L158.903 81.8856L166.062 104.793L170.482 103.412L163.324 80.5042ZM168.79 83.1307L159.071 77.1259L146.456 97.5432L156.175 103.548L168.79 83.1307ZM149.184 75.8808L149.054 75.9216L156.212 98.8291L156.343 98.7883L149.184 75.8808ZM141.179 90.9547L143.754 99.1922L166.661 92.0336L164.087 83.796L141.179 90.9547ZM151.628 84.1591L148.121 85.2551L155.28 108.163L158.787 107.067L151.628 84.1591ZM163.154 93.1295L157.618 75.4148L134.711 82.5735L140.246 100.288L163.154 93.1295ZM149.744 90.4479L153.251 89.3519L146.092 66.4444L142.585 67.5404L149.744 90.4479ZM138.218 81.4775L140.598 89.0952L163.506 81.9365L161.125 74.3188L138.218 81.4775ZM155.631 96.9696L155.762 96.9288L148.603 74.0213L148.473 74.0621L155.631 96.9696ZM163.015 90.6378L167.698 80.813L146.032 70.4874L141.35 80.3122L163.015 90.6378ZM160.444 87.1039L164.653 85.7887L157.494 62.8812L153.286 64.1964L160.444 87.1039ZM150.296 69.0573L145.006 79.8599L166.56 90.4152L171.851 79.6127L150.296 69.0573ZM149.509 95.3667L160.629 102.187L173.177 81.7288L162.057 74.9085L149.509 95.3667ZM171.964 81.5673L160.278 84.2978L160.285 84.328L160.293 84.3581L171.964 81.5673ZM172.41 87.9809L160.744 85.1719L160.741 85.1835L160.738 85.1952L172.41 87.9809ZM167.746 91.6766L156.292 95.2559L158.763 103.161L167.031 103.655L167.746 91.6766ZM166.772 88.561L166.594 76.5623L150.525 76.8007L155.319 92.1403L166.772 88.561ZM169.159 86.4007L157.234 85.064L157.232 85.0801L157.23 85.0962L169.159 86.4007ZM168.688 82.4298L157.022 85.2393L157.025 85.2518L157.028 85.2642L168.688 82.4298ZM166.342 72.6885L162.763 61.2347L152.047 64.5834L154.676 75.498L166.342 72.6885ZM178.576 68.8654L190.03 65.286L186.45 53.8323L174.997 57.4116L178.576 68.8654ZM184.112 86.5801L187.691 98.0338L199.145 94.4545L195.566 83.0008L184.112 86.5801ZM180.605 87.676L169.151 91.2554L172.73 102.709L184.184 99.1298L180.605 87.676ZM175.946 72.767L187.4 69.1876L183.82 57.7339L172.366 61.3132L175.946 72.767ZM170.318 74.5256L166.739 63.0719L156.096 66.3979L158.633 77.2562L170.318 74.5256ZM160.293 84.3581C160.516 85.2921 160.584 85.8422 160.6 86.0783C160.608 86.1856 160.6 86.1604 160.608 86.0253C160.615 85.8925 160.642 85.593 160.744 85.1719L184.077 90.7899C185.114 86.4806 184.428 82.0942 183.635 78.7764L160.293 84.3581ZM160.738 85.1952C160.974 84.2054 161.542 82.9371 162.642 81.8057C163.71 80.7072 164.812 80.2182 165.43 80.025L172.589 102.933C178.111 101.207 182.597 96.9906 184.082 90.7666L160.738 85.1952ZM165.43 80.025C165.757 79.9228 166.866 79.6026 168.461 79.6979L167.031 103.655C169.332 103.793 171.282 103.341 172.589 102.933L165.43 80.025ZM179.2 88.0972L178.226 84.9817L155.319 92.1403L156.292 95.2559L179.2 88.0972ZM166.95 100.56C168.498 100.537 169.966 100.278 171.322 99.8547L164.164 76.9472C164.867 76.7273 165.688 76.5758 166.594 76.5623L166.95 100.56ZM171.322 99.8547C174.086 98.9911 176.66 97.255 178.511 94.6409C180.246 92.1898 180.877 89.6355 181.088 87.7051L157.23 85.0962C157.324 84.2411 157.66 82.5578 158.923 80.7735C160.301 78.8261 162.227 77.5525 164.164 76.9472L171.322 99.8547ZM181.084 87.7373C181.428 84.6688 180.856 81.6834 180.348 79.5953L157.028 85.2642C157.09 85.5208 157.133 85.7222 157.161 85.8731C157.19 86.0255 157.201 86.1069 157.203 86.1256C157.205 86.147 157.195 86.0708 157.191 85.9132C157.189 85.8319 157.189 85.7202 157.194 85.5818C157.2 85.4437 157.211 85.2694 157.234 85.064L181.084 87.7373ZM180.354 79.6203L178.009 69.879L154.676 75.498L157.022 85.2393L180.354 79.6203ZM169.921 84.1422L182.155 80.3191L174.997 57.4116L162.763 61.2347L169.921 84.1422ZM167.122 72.4447L172.658 90.1594L195.566 83.0008L190.03 65.286L167.122 72.4447ZM180.533 75.1263L177.026 76.2223L184.184 99.1298L187.691 98.0338L180.533 75.1263ZM192.059 84.0967L187.4 69.1876L164.492 76.3463L169.151 91.2554L192.059 84.0967ZM172.366 61.3132L166.739 63.0719L173.897 85.9794L179.525 84.2207L172.366 61.3132ZM158.633 77.2562L160.278 84.2978L183.649 78.8367L182.003 71.795L158.633 77.2562ZM196.343 78.6219L206.495 85.0199L206.518 84.9838L206.54 84.9475L196.343 78.6219ZM196.329 73.9353L207.782 70.3559L203.951 58.0946L191.978 62.7515L196.329 73.9353ZM192.114 75.5746L196.398 86.784L196.431 86.7713L196.464 86.7584L192.114 75.5746ZM190.739 80.8566L194.747 69.546L194.682 69.5229L194.617 69.5006L190.739 80.8566ZM188.564 83.8101L183.731 94.7937L183.761 94.8072L183.792 94.8205L188.564 83.8101ZM186.316 76.3301L196.083 83.3019L196.099 83.2798L196.115 83.2576L186.316 76.3301ZM190.861 73.2267L186.624 61.9995L186.589 62.0129L186.553 62.0265L190.861 73.2267ZM195.554 71.4558L199.79 82.683L210.385 78.685L207.007 67.8765L195.554 71.4558ZM193.418 68.0589L198.001 56.9685L197.991 56.9646L197.982 56.9608L193.418 68.0589ZM188.211 69.5606L178.768 62.1566L178.739 62.1932L178.711 62.23L188.211 69.5606ZM187.58 71.7811L191.16 83.2348L200.575 80.2924L199.51 70.4852L187.58 71.7811ZM184.269 72.8159L172.698 75.9956L175.99 87.9754L187.848 84.2696L184.269 72.8159ZM185.122 68.27L175.261 61.432L185.122 68.27ZM195.278 65.1319L190.77 76.2529L190.793 76.2622L190.816 76.2714L195.278 65.1319ZM202.332 80.8862L205.912 92.3399L217.365 88.7606L213.786 77.3068L202.332 80.8862ZM198.956 81.9413L187.502 85.5207L191.081 96.9744L202.535 93.3951L198.956 81.9413ZM198.033 78.9889L209.487 75.4096L205.908 63.9558L194.454 67.5351L198.033 78.9889ZM197.952 79.0144L194.372 67.5606L187.365 69.7505L186.124 76.9864L197.952 79.0144ZM196.979 92.2308C200.62 91.093 204.12 88.7881 206.495 85.0199L186.191 72.2239C186.675 71.4551 187.309 70.7782 188.033 70.248C188.739 69.731 189.385 69.4594 189.82 69.3233L196.979 92.2308ZM206.54 84.9475C209.02 80.9504 209.62 76.2355 208.216 71.7424L185.308 78.9011C185.027 78.0031 184.857 76.8312 185.025 75.508C185.193 74.185 185.651 73.0939 186.145 72.2962L206.54 84.9475ZM208.216 71.7424L207.782 70.3559L184.875 77.5146L185.308 78.9011L208.216 71.7424ZM191.978 62.7515L187.764 64.3909L196.464 86.7584L200.679 85.119L191.978 62.7515ZM187.83 64.3653C185.731 65.1673 182.483 66.735 180.046 69.9415C177.065 73.8647 176.478 78.6612 177.806 82.9108L200.713 75.7521C201.056 76.8489 201.287 78.359 201.007 80.1034C200.723 81.8749 199.997 83.3539 199.156 84.4615C198.361 85.5071 197.555 86.1086 197.107 86.3986C196.871 86.5514 196.685 86.6496 196.573 86.7049C196.515 86.7334 196.471 86.7532 196.442 86.7655C196.414 86.7779 196.398 86.7837 196.398 86.784L187.83 64.3653ZM177.806 82.9108C179.173 87.2865 182.455 90.7082 186.861 92.2127L194.617 69.5006C195.824 69.913 197.201 70.6709 198.421 71.9289C199.639 73.1841 200.343 74.5687 200.713 75.7521L177.806 82.9108ZM186.73 92.1672C190.647 93.5555 194.32 93.0617 196.979 92.2308L189.82 69.3233C190.435 69.1314 192.334 68.6906 194.747 69.546L186.73 92.1672ZM189.756 72.441C189.896 72.3973 190.341 72.2788 191.026 72.2909C191.742 72.3036 192.547 72.4578 193.336 72.7997L183.792 94.8205C188.368 96.8035 192.998 96.5725 196.915 95.3485L189.756 72.441ZM193.397 72.8265C194.217 73.1871 195.103 73.7882 195.861 74.662C196.603 75.5184 196.982 76.3609 197.161 76.9337L174.254 84.0924C175.697 88.7112 178.9 92.6677 183.731 94.7937L193.397 72.8265ZM197.161 76.9337C197.376 77.6226 197.566 78.7098 197.373 80.037C197.176 81.3886 196.652 82.5042 196.083 83.3019L176.549 69.3583C173.334 73.8629 172.726 79.2039 174.254 84.0924L197.161 76.9337ZM196.115 83.2576C195.577 84.0174 195.063 84.407 194.877 84.5335C194.701 84.6538 194.748 84.5886 195.169 84.4269L186.553 62.0265C183.258 63.294 179.301 65.4652 176.518 69.4025L196.115 83.2576ZM195.098 84.4539L199.79 82.683L191.317 60.2287L186.624 61.9995L195.098 84.4539ZM207.007 67.8765L206.579 66.5063L183.672 73.665L184.1 75.0352L207.007 67.8765ZM206.579 66.5063C205.425 62.8128 202.751 58.9313 198.001 56.9685L188.835 79.1493C187.481 78.5899 186.249 77.6975 185.285 76.5525C184.359 75.4537 183.896 74.3839 183.672 73.665L206.579 66.5063ZM197.982 56.9608C193.683 55.1929 189.6 55.8023 186.848 56.6622L194.007 79.5697C193.626 79.6888 191.536 80.2602 188.854 79.157L197.982 56.9608ZM186.848 56.6622C184.018 57.5468 181.052 59.2426 178.768 62.1566L197.655 76.9646C196.411 78.5506 194.924 79.2833 194.007 79.5697L186.848 56.6622ZM178.711 62.23C176.333 65.3115 175.222 69.1348 175.65 73.077L199.51 70.4852C199.62 71.5005 199.561 72.6718 199.214 73.8917C198.868 75.109 198.31 76.1163 197.712 76.8913L178.711 62.23ZM184.001 60.3273L180.69 61.3621L187.848 84.2696L191.16 83.2348L184.001 60.3273ZM195.84 69.6362C196.073 70.4859 196.166 71.5572 195.95 72.706C195.739 73.8296 195.307 74.6411 194.983 75.1079L175.261 61.432C172.4 65.5573 171.245 70.7092 172.698 75.9956L195.84 69.6362ZM194.983 75.1079C194.636 75.6086 194.22 76.0039 193.821 76.2792C193.442 76.5418 193.187 76.6209 193.192 76.6193L186.034 53.7118C181.98 54.9787 178.053 57.4053 175.261 61.432L194.983 75.1079ZM193.192 76.6193C193.359 76.5674 193.18 76.647 192.724 76.6498C192.233 76.6527 191.538 76.5641 190.77 76.2529L199.787 54.011C194.906 52.0322 190.037 52.4607 186.034 53.7118L193.192 76.6193ZM190.816 76.2714C190.072 75.9732 189.188 75.4297 188.409 74.5677C187.642 73.7192 187.256 72.873 187.081 72.3131L209.988 65.1545C208.426 60.154 204.896 56.0576 199.741 53.9924L190.816 76.2714ZM187.081 72.3131L190.879 84.4655L213.786 77.3068L209.988 65.1545L187.081 72.3131ZM198.753 69.4324L195.376 70.4876L202.535 93.3951L205.912 92.3399L198.753 69.4324ZM210.41 78.362L209.487 75.4096L186.579 82.5682L187.502 85.5207L210.41 78.362ZM194.454 67.5351L194.372 67.5606L201.531 90.4681L201.612 90.4426L194.454 67.5351ZM186.124 76.9864C186.235 76.3414 186.447 75.6991 186.755 75.1021C187.059 74.5118 187.404 74.0644 187.7 73.7512L205.128 90.2518C207.459 87.7898 209.157 84.6722 209.779 81.0423L186.124 76.9864ZM187.7 73.7512C187.997 73.4374 188.347 73.151 188.733 72.9139C189.116 72.6784 189.471 72.5299 189.756 72.441L196.915 95.3485C199.986 94.3887 202.811 92.6993 205.128 90.2518L187.7 73.7512ZM213.942 64.0084L203.773 70.3785L208.686 78.2232L217.522 75.4621L213.942 64.0084ZM211.908 62.3701L208.007 73.7182L208.014 73.7205L211.908 62.3701ZM205.986 65.1339L194.759 60.8966L194.752 60.9158L194.745 60.9349L205.986 65.1339ZM208.796 74.0678L215.516 64.1259L215.504 64.1177L215.492 64.1096L208.796 74.0678ZM215.999 70.474L212.419 59.0203L203.793 61.7159L204.002 70.7508L215.999 70.474ZM219.408 69.4086L231.275 67.6292L229.198 53.7769L215.829 57.9549L219.408 69.4086ZM218.276 74.3817L208.427 67.5273L208.419 67.5382L218.276 74.3817ZM206.859 77.0365L212.83 66.6276L212.81 66.6161L212.79 66.6047L206.859 77.0365ZM202.703 63.7964L191.836 58.7083L202.703 63.7964ZM213.708 59.5338L209.159 70.6383L209.192 70.6518L209.225 70.6651L213.708 59.5338ZM217.351 62.943L220.931 74.3968L234.21 70.2471L228.156 57.7213L217.351 62.943ZM224.112 57.6383C222.218 54.6147 219.374 52.2449 215.803 51.0197L208.014 73.7205C207.176 73.4329 206.32 72.9804 205.531 72.3451C204.747 71.714 204.173 71.0177 203.773 70.3785L224.112 57.6383ZM215.81 51.022C212.059 49.7324 208.398 49.9996 205.334 50.9571L212.492 73.8646C211.603 74.1424 209.939 74.3824 208.007 73.7182L215.81 51.022ZM205.334 50.9571C200.496 52.469 196.623 55.9592 194.759 60.8966L217.213 69.3712C216.882 70.2497 216.272 71.2894 215.279 72.2138C214.294 73.13 213.265 73.6231 212.492 73.8646L205.334 50.9571ZM194.745 60.9349C193.043 65.4918 193.489 69.9573 194.619 73.5742L217.527 66.4156C217.501 66.3351 217.89 67.56 217.228 69.3329L194.745 60.9349ZM194.619 73.5742C195.745 77.1771 197.939 81.228 202.1 84.0259L215.492 64.1096C217.205 65.2614 217.583 66.597 217.527 66.4156L194.619 73.5742ZM202.076 84.0096C206.441 86.9599 211.572 87.5451 216.322 86.0608L209.163 63.1533C209.903 62.922 210.998 62.7407 212.304 62.9192C213.626 63.0999 214.722 63.5895 215.516 64.1259L202.076 84.0096ZM216.322 86.0608C219.001 85.2234 222.188 83.6 224.646 80.4802C227.209 77.2278 228.072 73.5025 227.995 70.1972L204.002 70.7508C203.973 69.5077 204.317 67.5022 205.794 65.6275C207.167 63.8854 208.702 63.2974 209.163 63.1533L216.322 86.0608ZM219.578 81.9278L222.987 80.8624L215.829 57.9549L212.419 59.0203L219.578 81.9278ZM207.541 71.1881C207.477 70.7641 207.458 70.1233 207.63 69.3662C207.804 68.6026 208.115 67.9755 208.427 67.5273L228.126 81.2362C230.963 77.1599 231.99 72.395 231.275 67.6292L207.541 71.1881ZM208.419 67.5382C208.745 67.0681 209.138 66.6946 209.514 66.4347C209.871 66.1874 210.102 66.1186 210.074 66.1272L217.233 89.0347C221.354 87.7468 225.315 85.2843 228.133 81.2253L208.419 67.5382ZM210.074 66.1272C210.043 66.137 210.394 66.0242 211.021 66.0745C211.687 66.1278 212.327 66.3389 212.83 66.6276L200.888 87.4455C206.219 90.5036 212.02 90.6639 217.233 89.0347L210.074 66.1272ZM212.79 66.6047C213.31 66.9002 213.69 67.2765 213.912 67.5783C214.108 67.8456 214.07 67.9008 213.954 67.5319L191.047 74.6906C192.588 79.6212 195.63 84.4564 200.928 87.4683L212.79 66.6047ZM213.954 67.5319C213.85 67.1973 213.911 67.23 213.902 67.5517C213.892 67.912 213.799 68.3972 213.571 68.8845L191.836 58.7083C189.295 64.1345 189.507 69.763 191.047 74.6906L213.954 67.5319ZM213.571 68.8845C213.346 69.3667 212.96 69.9014 212.433 70.3394C211.931 70.7563 211.547 70.8835 211.527 70.8897L204.368 47.9822C199.068 49.6385 194.434 53.1583 191.836 58.7083L213.571 68.8845ZM211.527 70.8897C211.515 70.8936 211.236 70.9776 210.75 70.9693C210.24 70.9607 209.683 70.853 209.159 70.6383L218.256 48.4293C213.525 46.4911 208.687 46.6326 204.368 47.9822L211.527 70.8897ZM209.225 70.6651C208.775 70.4839 208.209 70.1616 207.659 69.6477C207.11 69.1342 206.754 68.5934 206.547 68.1648L228.156 57.7213C226.083 53.4332 222.619 50.1858 218.191 48.4025L209.225 70.6651ZM213.772 51.4893L210.363 52.5546L217.522 75.4621L220.931 74.3968L213.772 51.4893ZM232.016 58.3603L221.846 64.7305L226.76 72.5751L235.595 69.8141L232.016 58.3603ZM229.982 56.722L226.081 68.0701L226.087 68.0724L229.982 56.722ZM224.06 59.4859L212.833 55.2486L212.826 55.2677L212.818 55.2869L224.06 59.4859ZM226.87 68.4197L233.59 58.4779L233.578 58.4697L233.565 58.4615L226.87 68.4197ZM234.072 64.826L230.493 53.3722L221.867 56.0679L222.075 65.1028L234.072 64.826ZM237.481 63.7606L249.349 61.9811L247.272 48.1288L233.902 52.3068L237.481 63.7606ZM236.35 68.7337L226.5 61.8792L226.493 61.8901L236.35 68.7337ZM224.932 71.3885L230.904 60.9795L230.884 60.9681L230.864 60.9567L224.932 71.3885ZM220.777 58.1483L209.909 53.0602L220.777 58.1483ZM231.781 53.8858L227.233 64.9903L227.266 65.0038L227.299 65.0171L231.781 53.8858ZM235.425 57.295L239.004 68.7487L252.283 64.5991L246.229 52.0732L235.425 57.295ZM242.186 51.9902C240.292 48.9667 237.447 46.5969 233.877 45.3716L226.087 68.0724C225.249 67.7849 224.393 67.3323 223.605 66.6971C222.821 66.0659 222.247 65.3696 221.846 64.7305L242.186 51.9902ZM233.883 45.3739C230.132 44.0844 226.471 44.3516 223.407 45.3091L230.566 68.2166C229.677 68.4944 228.013 68.7344 226.081 68.0701L233.883 45.3739ZM223.407 45.3091C218.569 46.8209 214.696 50.3112 212.833 55.2486L235.287 63.7232C234.955 64.6017 234.346 65.6414 233.352 66.5658C232.367 67.4819 231.339 67.9751 230.566 68.2166L223.407 45.3091ZM212.818 55.2869C211.116 59.8437 211.562 64.3093 212.693 67.9262L235.6 60.7675C235.575 60.687 235.963 61.9119 235.301 63.6849L212.818 55.2869ZM212.693 67.9262C213.819 71.529 216.012 75.5799 220.174 78.3779L233.565 58.4615C235.278 59.6133 235.657 60.949 235.6 60.7675L212.693 67.9262ZM220.149 78.3615C224.514 81.3119 229.646 81.897 234.395 80.4128L227.237 57.5053C227.977 57.274 229.071 57.0926 230.378 57.2711C231.7 57.4519 232.796 57.9414 233.59 58.4779L220.149 78.3615ZM234.395 80.4128C237.075 79.5754 240.262 77.9519 242.72 74.8322C245.282 71.5797 246.145 67.8544 246.069 64.5491L222.075 65.1028C222.047 63.8596 222.391 61.8542 223.868 59.9794C225.24 58.2374 226.775 57.6494 227.237 57.5053L234.395 80.4128ZM237.652 76.2797L241.061 75.2143L233.902 52.3068L230.493 53.3722L237.652 76.2797ZM225.614 65.5401C225.551 65.1161 225.532 64.4752 225.704 63.7182C225.878 62.9545 226.188 62.3275 226.5 61.8792L246.199 75.5882C249.036 71.5119 250.063 66.7469 249.349 61.9811L225.614 65.5401ZM226.493 61.8901C226.819 61.42 227.212 61.0466 227.587 60.7867C227.945 60.5393 228.176 60.4705 228.148 60.4791L235.307 83.3866C239.428 82.0988 243.389 79.6363 246.207 75.5772L226.493 61.8901ZM228.148 60.4791C228.117 60.4889 228.468 60.3762 229.095 60.4264C229.76 60.4797 230.4 60.6908 230.904 60.9795L218.961 81.7974C224.292 84.8555 230.093 85.0158 235.307 83.3866L228.148 60.4791ZM230.864 60.9567C231.383 61.2522 231.763 61.6284 231.985 61.9303C232.182 62.1975 232.143 62.2527 232.028 61.8839L209.12 69.0425C210.661 73.9731 213.704 78.8083 219.001 81.8203L230.864 60.9567ZM232.028 61.8839C231.923 61.5493 231.984 61.5819 231.975 61.9037C231.965 62.2639 231.873 62.7491 231.645 63.2364L209.909 53.0602C207.369 58.4864 207.58 64.1149 209.12 69.0425L232.028 61.8839ZM231.645 63.2364C231.419 63.7186 231.033 64.2533 230.506 64.6914C230.005 65.1082 229.62 65.2355 229.601 65.2417L222.442 42.3342C217.142 43.9905 212.507 47.5102 209.909 53.0602L231.645 63.2364ZM229.601 65.2417C229.588 65.2455 229.31 65.3296 228.823 65.3213C228.314 65.3126 227.757 65.2049 227.233 64.9903L236.33 42.7813C231.598 40.843 226.761 40.9845 222.442 42.3342L229.601 65.2417ZM227.299 65.0171C226.849 64.8359 226.282 64.5136 225.733 63.9997C225.184 63.4861 224.828 62.9454 224.621 62.5167L246.229 52.0732C244.157 47.7851 240.692 44.5378 236.264 42.7545L227.299 65.0171ZM231.846 45.8412L228.437 46.9066L235.595 69.8141L239.004 68.7487L231.846 45.8412Z" fill="white"/>
</svg>
