<svg width="178" height="178" viewBox="0 0 178 178" fill="none" xmlns="http://www.w3.org/2000/svg">
<rect width="178" height="178" rx="20" fill="#FF8616"/>
<path d="M66.9735 108V91.123H47.4025V108H41.4863V69.8881H47.4025V85.9992H66.9735V69.8881H72.8897V108H66.9735ZM84.0354 97.3825C84.2467 99.2666 85.1887 100.781 86.8614 101.925C88.5341 103.07 90.6295 103.642 93.1474 103.642C95.542 103.642 97.5229 103.087 99.09 101.978C100.639 100.869 101.414 99.4603 101.414 97.7523C101.414 96.2733 100.86 95.0671 99.7503 94.1339C98.641 93.1831 96.8538 92.4084 94.3887 91.8097L89.4498 90.6212C82.618 88.9661 79.2021 85.5414 79.2021 80.3471C79.2021 77.072 80.4962 74.4045 83.0846 72.3444C85.6553 70.2843 88.9831 69.2542 93.0681 69.2542C97.0827 69.2542 100.358 70.2843 102.893 72.3444C105.429 74.3869 106.741 77.0544 106.829 80.3471H101.071C100.895 78.4631 100.076 76.9664 98.6146 75.8571C97.1707 74.783 95.2955 74.246 92.9889 74.246C90.6999 74.246 88.8335 74.7742 87.3896 75.8307C85.9634 76.8872 85.2503 78.2606 85.2503 79.9509C85.2503 81.2891 85.7873 82.3896 86.8614 83.2524C87.9355 84.0975 89.7051 84.8282 92.1701 85.4445L96.3696 86.4746C100.278 87.3902 103.105 88.6843 104.848 90.3571C106.573 92.0122 107.436 94.2396 107.436 97.0392C107.436 100.596 106.115 103.422 103.474 105.517C100.833 107.595 97.25 108.634 92.7248 108.634C88.4813 108.634 85.0478 107.621 82.4243 105.597C79.7831 103.554 78.3745 100.816 78.1984 97.3825H84.0354ZM136.938 108H112.745V69.8881H136.938V74.9855H118.661V86.1312H135.961V91.0438H118.661V102.876H136.938V108Z" fill="white"/>
</svg>
