<svg width="143" height="143" viewBox="0 0 143 143" fill="none" xmlns="http://www.w3.org/2000/svg">
<rect width="143" height="143" rx="11.5946" fill="white"/>
<path d="M124.964 72.144C124.964 80.8303 122.822 89.3825 118.727 97.0431C114.632 104.704 108.712 111.236 101.489 116.062C94.2668 120.888 85.9657 123.858 77.3213 124.71C68.6768 125.561 59.9558 124.267 51.9308 120.943C43.9057 117.619 36.8243 112.367 31.3138 105.653C25.8033 98.938 22.0337 90.968 20.3391 82.4487C18.6445 73.9293 19.0771 65.1235 21.5986 56.8113C24.1201 48.499 28.6527 40.9369 34.7948 34.7948L72.144 72.144H124.964Z" fill="#FF8616"/>
<path d="M78.7269 54.7769C76.5059 54.7769 74.9023 53.757 73.9159 51.7172C73.3188 50.5564 73.0202 49.1272 73.0202 47.4297C73.0202 45.0007 73.5335 43.1018 74.5601 41.733C75.5867 40.3709 77.0092 39.6899 78.8275 39.6899C80.1091 39.6899 81.2095 40.0421 82.1288 40.7467C83.0413 41.4512 83.6083 42.3839 83.8297 43.5447H81.5752C81.4007 42.9475 81.0619 42.4711 80.5587 42.1155C80.0554 41.7599 79.4717 41.582 78.8074 41.582C77.66 41.582 76.771 42.0786 76.1402 43.0716C75.5095 44.0714 75.1908 45.4838 75.1841 47.3089H75.2243C75.5464 46.5976 76.0631 46.0273 76.7743 45.5979C77.499 45.1684 78.3109 44.9537 79.21 44.9537C80.5922 44.9537 81.7429 45.41 82.6622 46.3225C83.5747 47.2351 84.031 48.3791 84.031 49.7546C84.031 51.2107 83.5311 52.4117 82.5314 53.3578C81.5316 54.3039 80.2634 54.7769 78.7269 54.7769ZM78.7067 52.8747C79.5656 52.8747 80.2936 52.5795 80.8908 51.989C81.488 51.3985 81.7866 50.6772 81.7866 49.8251C81.7866 48.9461 81.498 48.2214 80.921 47.6511C80.3507 47.0807 79.6193 46.7956 78.7269 46.7956C77.8412 46.7956 77.1065 47.0774 76.5227 47.641C75.9322 48.2114 75.637 48.926 75.637 49.7848C75.637 50.6504 75.9322 51.3818 76.5227 51.9789C77.1132 52.5761 77.8412 52.8747 78.7067 52.8747ZM85.8225 44.2291C85.8225 42.9207 86.2922 41.837 87.2316 40.9782C88.1777 40.126 89.372 39.6999 90.8146 39.6999C92.1969 39.6999 93.3476 40.0891 94.2669 40.8674C95.1861 41.6458 95.6457 42.612 95.6457 43.7661C95.6457 44.578 95.4075 45.3697 94.9311 46.1414C94.5084 46.8258 93.7368 47.7417 92.6162 48.8891L88.9829 52.5426V52.5929H95.8772V54.4951H85.9433V52.9653L91.187 47.6209C92.0727 46.6949 92.6666 45.9837 92.9685 45.4872C93.2704 44.9839 93.4214 44.4471 93.4214 43.8768C93.4214 43.2327 93.1631 42.6858 92.6464 42.2362C92.1298 41.7867 91.4957 41.5619 90.7442 41.5619C89.9524 41.5619 89.2882 41.8169 88.7514 42.3268C88.2213 42.8301 87.9563 43.4608 87.9563 44.219V44.2492H85.8225V44.2291ZM97.709 57.1321L98.6551 52.2205H100.839L99.3797 57.1321H97.709ZM108.519 54.7669C107.069 54.7669 105.865 54.3643 104.905 53.5591C103.946 52.7606 103.432 51.7273 103.365 50.4592H105.519C105.6 51.1771 105.922 51.7609 106.485 52.2104C107.042 52.66 107.727 52.8848 108.539 52.8848C109.451 52.8848 110.196 52.5962 110.773 52.0192C111.35 51.4421 111.639 50.6974 111.639 49.7848C111.639 48.8723 111.353 48.1241 110.783 47.5404C110.206 46.9499 109.465 46.6547 108.559 46.6547C107.224 46.6547 106.254 47.1646 105.65 48.1845H103.587L104.352 39.9717H112.997V41.8739H106.163L105.761 46.3326H105.811C106.489 45.353 107.569 44.8631 109.052 44.8631C110.448 44.8631 111.595 45.3194 112.494 46.232C113.393 47.1512 113.843 48.3154 113.843 49.7244C113.843 51.214 113.346 52.4251 112.353 53.3578C111.367 54.2972 110.089 54.7669 108.519 54.7669ZM129.644 51.0026C129.644 52.1165 129.359 53.0089 128.789 53.6799C128.225 54.3441 127.467 54.6763 126.514 54.6763C125.555 54.6763 124.79 54.3441 124.22 53.6799C123.649 53.0089 123.364 52.1165 123.364 51.0026C123.364 49.8888 123.649 48.9998 124.22 48.3355C124.79 47.6712 125.555 47.3391 126.514 47.3391C127.467 47.3391 128.229 47.6712 128.799 48.3355C129.363 48.9931 129.644 49.8821 129.644 51.0026ZM126.514 53.2572C126.91 53.2572 127.226 53.0559 127.46 52.6533C127.689 52.2507 127.803 51.7005 127.803 51.0026C127.803 50.2981 127.689 49.7479 127.46 49.352C127.239 48.9629 126.924 48.7683 126.514 48.7683C126.112 48.7683 125.793 48.9696 125.558 49.3722C125.323 49.768 125.206 50.3115 125.206 51.0026C125.206 51.6938 125.323 52.2406 125.558 52.6432C125.793 53.0525 126.112 53.2572 126.514 53.2572ZM121.311 43.3736C121.311 44.4874 121.026 45.3798 120.455 46.0508C119.892 46.7151 119.134 47.0472 118.181 47.0472C117.221 47.0472 116.456 46.7151 115.886 46.0508C115.316 45.3798 115.03 44.4874 115.03 43.3736C115.03 42.2597 115.316 41.3707 115.886 40.7064C116.456 40.0421 117.221 39.71 118.181 39.71C119.134 39.71 119.895 40.0421 120.465 40.7064C121.029 41.364 121.311 42.253 121.311 43.3736ZM118.181 45.6281C118.577 45.6281 118.892 45.4268 119.127 45.0242C119.355 44.6216 119.469 44.0714 119.469 43.3736C119.469 42.669 119.355 42.1188 119.127 41.7229C118.905 41.3338 118.59 41.1392 118.181 41.1392C117.778 41.1392 117.459 41.3405 117.225 41.7431C116.99 42.139 116.872 42.6825 116.872 43.3736C116.872 44.0647 116.99 44.6115 117.225 45.0141C117.459 45.4234 117.778 45.6281 118.181 45.6281ZM115.966 54.4951L126.585 39.9717H128.618L118.02 54.4951H115.966Z" fill="black"/>
</svg>
