<svg width="275" height="157" viewBox="0 0 275 157" fill="none" xmlns="http://www.w3.org/2000/svg">
<path d="M250.015 63.3608C249.515 62.5622 248.837 62.0161 247.982 61.7225C247.072 61.4098 246.074 61.4234 244.986 61.7633C243.551 62.2119 242.575 63.1195 242.059 64.4864C241.539 65.8783 241.568 67.4986 242.146 69.3473C242.737 71.2395 243.645 72.5971 244.869 73.4202C246.065 74.2283 247.38 74.4081 248.816 73.9595C251.034 73.2662 252.119 71.8885 252.072 69.8264L255.481 68.7611C255.756 70.5968 255.379 72.2545 254.349 73.7342C253.312 75.2281 251.771 76.2945 249.727 76.9333C247.204 77.7218 244.939 77.5403 242.932 76.3889C240.9 75.2335 239.447 73.2584 238.574 70.4637C237.714 67.7124 237.782 65.2741 238.777 63.1488C239.772 61.0235 241.52 59.57 244.021 58.7884C246.109 58.1359 248.029 58.1685 249.781 58.8862C251.433 59.5516 252.648 60.688 253.425 62.2954L250.015 63.3608Z" fill="black"/>
<path d="M231.941 69.0092C231.441 68.2106 230.763 67.6645 229.907 67.3709C228.998 67.0583 228 67.0719 226.912 67.4117C225.477 67.8603 224.501 68.768 223.985 70.1348C223.465 71.5267 223.494 73.1471 224.072 74.9957C224.663 76.8879 225.571 78.2455 226.795 79.0686C227.99 79.8767 229.306 80.0565 230.741 79.6079C232.96 78.9147 234.045 77.537 233.998 75.4749L237.407 74.4095C237.682 76.2453 237.305 77.903 236.275 79.3826C235.238 80.8765 233.697 81.9429 231.653 82.5818C229.13 83.3702 226.865 83.1887 224.858 82.0374C222.826 80.882 221.373 78.9069 220.499 76.1121C219.64 73.3608 219.707 70.9225 220.702 68.7972C221.697 66.6719 223.445 65.2184 225.947 64.4368C228.035 63.7843 229.955 63.817 231.707 64.5347C233.359 65.2001 234.574 66.3365 235.35 67.9439L231.941 69.0092Z" fill="black"/>
<path d="M211.4 85.7777C212.715 85.3665 213.696 84.6481 214.343 83.6225C214.986 82.586 215.125 81.4859 214.762 80.3223L214.329 78.9358L210.114 80.5752C207.715 81.4921 206.763 82.7443 207.259 84.332C207.497 85.0933 207.99 85.6016 208.739 85.8572C209.49 86.1236 210.377 86.0971 211.4 85.7777ZM211.335 88.8953C209.563 89.4492 207.972 89.421 206.564 88.8107C205.152 88.1895 204.2 87.0905 203.707 85.5136C203.225 83.9695 203.428 82.5751 204.316 81.3307C205.194 80.0896 206.709 79.0551 208.861 78.2273L213.554 76.4564L213.126 75.0862C212.81 74.0749 212.24 73.3993 211.418 73.0595C210.61 72.7271 209.613 72.7462 208.428 73.1166C207.471 73.4156 206.732 73.8972 206.211 74.5612C205.702 75.2218 205.491 75.962 205.58 76.7817L202.269 77.8165C201.834 76.2335 202.118 74.7182 203.122 73.2705C204.126 71.8228 205.623 70.7881 207.613 70.1662C209.777 69.4899 211.666 69.4787 213.278 70.1325C214.902 70.7829 215.988 71.9836 216.535 73.7344L220.332 85.8867L216.956 86.9419L216.033 83.9895L215.952 84.015C215.761 85.1248 215.249 86.1206 214.414 87.0021C213.58 87.8836 212.553 88.5147 211.335 88.8953Z" fill="black"/>
<path d="M189.963 86.5676C190.625 89.3332 190.773 91.471 190.41 92.9812C189.991 94.7355 188.857 95.9014 187.009 96.4791C186.519 96.6321 186.098 96.698 185.746 96.6769L184.772 93.5614C185.093 93.5566 185.416 93.5032 185.743 93.4013C186.569 93.143 187.041 92.4763 187.159 91.401C187.263 90.4733 187.106 89.1497 186.688 87.4301L184.342 77.6888L196.576 73.8657L202.112 91.5804L198.605 92.6764L193.945 77.7673L188.318 79.526L189.963 86.5676Z" fill="black"/>
<path d="M184.903 96.959L180.482 98.3404L170.763 92.3356L170.633 92.3764L173.207 100.614L169.7 101.71L164.164 83.9951L167.671 82.8992L170.052 90.5168L170.182 90.476L174.865 80.6511L179.073 79.336L173.783 90.1386L184.903 96.959Z" fill="black"/>
<path d="M152.713 98.5129L151.719 95.332L162.419 91.9881L163.413 95.1689L152.713 98.5129Z" fill="black"/>
<path d="M138.955 91.6757C141.217 90.9688 143.284 91.224 145.157 92.4413C147.04 93.6552 148.41 95.6323 149.266 98.3727C150.119 101.102 150.124 103.506 149.281 105.584C148.446 107.647 146.914 109.027 144.685 109.724C142.053 110.546 139.861 110.103 138.11 108.394L138.045 108.415L140.762 117.109L137.222 118.215L129.876 94.7097L133.286 93.6443L134.203 96.5805L134.285 96.555C134.486 95.4417 135.005 94.4497 135.843 93.5791C136.689 92.6941 137.726 92.0597 138.955 91.6757ZM142.768 107.028C144.203 106.58 145.184 105.67 145.711 104.3C146.238 102.93 146.216 101.331 145.645 99.5043C145.074 97.6774 144.182 96.3507 142.969 95.5242C141.756 94.6978 140.431 94.5088 138.996 94.9574C137.593 95.3958 136.63 96.3055 136.107 97.6866C135.583 99.0677 135.598 100.663 136.151 102.471C136.726 104.273 137.622 105.592 138.839 106.43C140.045 107.271 141.354 107.47 142.768 107.028Z" fill="black"/>
<path d="M119.616 100.834C118.343 101.232 117.421 101.986 116.849 103.096C116.265 104.209 116.137 105.46 116.464 106.85L125.452 104.042C124.977 102.674 124.206 101.697 123.14 101.112C122.074 100.526 120.899 100.433 119.616 100.834ZM130.464 108.277C130.71 109.942 130.284 111.502 129.187 112.955C128.086 114.397 126.54 115.429 124.55 116.051C121.984 116.853 119.697 116.679 117.69 115.527C115.697 114.383 114.267 112.425 113.401 109.652C112.534 106.879 112.586 104.428 113.556 102.298C114.526 100.169 116.25 98.7168 118.73 97.942C121.165 97.1808 123.342 97.366 125.259 98.4976C127.173 99.6184 128.55 101.522 129.389 104.208L129.777 105.448L117.233 109.368L117.299 109.58C117.778 111.113 118.603 112.204 119.773 112.853C120.946 113.513 122.261 113.615 123.718 113.16C124.751 112.837 125.571 112.33 126.179 111.639C126.787 110.948 127.089 110.179 127.087 109.332L130.464 108.277Z" fill="black"/>
<path d="M109.89 104.035L104.295 105.784L108.954 120.693L105.463 121.784L100.804 106.875L95.2088 108.623L94.332 105.817L109.013 101.23L109.89 104.035Z" fill="black"/>
<path d="M91.2362 112.98C90.7359 112.181 90.058 111.635 89.2023 111.342C88.2929 111.029 87.2945 111.043 86.207 111.382C84.7715 111.831 83.7959 112.739 83.28 114.105C82.7601 115.497 82.789 117.118 83.3667 118.966C83.958 120.859 84.8657 122.216 86.0898 123.039C87.2853 123.847 88.6008 124.027 90.0362 123.579C92.2547 122.885 93.3401 121.508 93.2925 119.446L96.7017 118.38C96.977 120.216 96.5998 121.874 95.5701 123.353C94.5329 124.847 92.9921 125.914 90.9477 126.552C88.4248 127.341 86.1598 127.159 84.1528 126.008C82.1206 124.853 80.6678 122.878 79.7944 120.083C78.9346 117.332 79.0022 114.893 79.9973 112.768C80.9923 110.643 82.7404 109.189 85.2415 108.408C87.3294 107.755 89.2495 107.788 91.0017 108.505C92.6539 109.171 93.8685 110.307 94.6454 111.915L91.2362 112.98Z" fill="black"/>
<path d="M70.6925 129.748C72.0084 129.337 72.9895 128.619 73.6358 127.593C74.2788 126.557 74.4184 125.457 74.0548 124.293L73.6215 122.907L69.4069 124.546C67.0077 125.463 66.0562 126.715 66.5524 128.303C66.7903 129.064 67.2834 129.572 68.0317 129.828C68.7834 130.094 69.6703 130.068 70.6925 129.748ZM70.6283 132.866C68.8558 133.42 67.2654 133.392 65.8571 132.781C64.4454 132.16 63.4932 131.061 63.0005 129.484C62.5179 127.94 62.7208 126.546 63.6091 125.301C64.4865 124.06 66.0015 123.026 68.154 122.198L72.8467 120.427L72.4185 119.057C72.1025 118.046 71.5333 117.37 70.7109 117.03C69.9027 116.698 68.906 116.717 67.7207 117.087C66.7637 117.386 66.0249 117.868 65.5043 118.532C64.9946 119.193 64.7842 119.933 64.8732 120.752L61.5619 121.787C61.1269 120.204 61.4114 118.689 62.4152 117.241C63.4191 115.794 64.916 114.759 66.9061 114.137C69.0701 113.461 70.9586 113.449 72.5714 114.103C74.1951 114.754 75.2806 115.954 75.8277 117.705L79.6254 129.857L76.2488 130.913L75.3261 127.96L75.2446 127.986C75.0543 129.096 74.5418 130.091 73.7072 130.973C72.8726 131.854 71.8463 132.485 70.6283 132.866Z" fill="black"/>
<path d="M40.9988 141.929L35.4629 124.214L39.8671 122.838L49.7562 134.143L49.8867 134.102L51.6117 119.167L55.8854 117.832L61.4213 135.546L58.0121 136.612L54.1533 124.264L54.0228 124.305L52.2897 137.666L49.6961 138.477L40.6797 128.474L40.5492 128.515L44.408 140.863L40.9988 141.929Z" fill="black"/>
<path d="M193.9 19.0152C194.204 19.947 194.72 20.627 195.451 21.0552C196.21 21.4984 197.041 21.5789 197.944 21.2968C198.857 21.0114 199.5 20.4704 199.872 19.6738C200.228 18.9058 200.266 18.0525 199.985 17.1138L202.366 16.3696C202.849 17.9138 202.738 19.3153 202.033 20.574C201.332 21.8436 200.171 22.7316 198.55 23.2379C196.941 23.7409 195.486 23.6702 194.187 23.0259C192.891 22.3925 192.002 21.3036 191.519 19.7595L193.9 19.0152ZM197.089 46.0043L191.553 28.2896L195.027 27.2038L198.942 39.7313L199.072 39.6906L203.623 24.5174L207.098 23.4316L212.634 41.1464L209.159 42.2321L205.229 29.6557L205.099 29.6964L200.563 44.9185L197.089 46.0043Z" fill="black"/>
<path d="M184.1 30.6189L187.607 29.5229L193.143 47.2376L189.635 48.3336L184.1 30.6189ZM174.515 42.6917L176.595 49.347L179.694 48.3785C180.76 48.0454 181.519 47.4742 181.97 46.6647C182.41 45.8586 182.474 44.9553 182.162 43.9549C181.845 42.9435 181.272 42.2336 180.44 41.8252C179.622 41.4242 178.68 41.3902 177.615 41.7232L174.515 42.6917ZM168.424 35.5176L171.931 34.4216L173.649 39.9187L177.025 38.8635C179.081 38.2212 180.889 38.259 182.45 38.9767C184.011 39.6944 185.084 40.9885 185.669 42.8589C186.253 44.7293 186.11 46.4095 185.238 47.8993C184.364 49.3782 182.899 50.4389 180.843 51.0811L173.96 53.2323L168.424 35.5176Z" fill="black"/>
<path d="M164.062 47.8026L155.759 50.3973L158.186 58.1617L154.678 59.2577L149.143 41.543L152.65 40.447L154.882 47.5916L163.185 44.997L160.952 37.8524L164.459 36.7564L169.995 54.4711L166.488 55.5671L164.062 47.8026Z" fill="black"/>
<path d="M138.564 53.9261L140.644 60.5814L143.743 59.6128C144.809 59.2798 145.567 58.7085 146.019 57.8991C146.459 57.093 146.523 56.1897 146.21 55.1893C145.894 54.1779 145.32 53.468 144.488 53.0595C143.671 52.6585 142.729 52.6246 141.663 52.9576L138.564 53.9261ZM132.473 46.752L135.98 45.656L137.698 51.1531L141.074 50.0979C143.129 49.4556 144.938 49.4933 146.499 50.2111C148.06 50.9288 149.133 52.2229 149.717 54.0933C150.302 55.9637 150.159 57.6438 149.287 59.1337C148.412 60.6126 146.947 61.6732 144.892 62.3155L138.009 64.4667L132.473 46.752Z" fill="black"/>
<path d="M121.895 60.6926C122.556 63.4582 122.705 65.596 122.341 67.1062C121.923 68.8605 120.789 70.0264 118.94 70.6041C118.451 70.7571 118.03 70.823 117.677 70.8019L116.704 67.6864C117.024 67.6816 117.348 67.6282 117.674 67.5263C118.501 67.268 118.973 66.6013 119.09 65.526C119.194 64.5983 119.037 63.2747 118.619 61.5551L116.273 51.8138L128.507 47.9907L134.043 65.7054L130.536 66.8014L125.877 51.8923L120.249 53.651L121.895 60.6926Z" fill="black"/>
<path d="M106.499 71.4124C107.815 71.0012 108.796 70.2828 109.442 69.2572C110.085 68.2207 110.225 67.1207 109.861 65.9571L109.428 64.5706L105.214 66.21C102.814 67.1268 101.863 68.3791 102.359 69.9668C102.597 70.728 103.09 71.2364 103.838 71.492C104.59 71.7584 105.477 71.7319 106.499 71.4124ZM106.435 74.5301C104.662 75.084 103.072 75.0558 101.664 74.4454C100.252 73.8242 99.2999 72.7252 98.8071 71.1484C98.3245 69.6042 98.5274 68.2099 99.4157 66.9654C100.293 65.7244 101.808 64.6899 103.961 63.8621L108.653 62.0912L108.225 60.721C107.909 59.7097 107.34 59.0341 106.518 58.6942C105.709 58.3619 104.713 58.3809 103.527 58.7513C102.57 59.0504 101.832 59.5319 101.311 60.196C100.801 60.8566 100.591 61.5968 100.68 62.4164L97.3686 63.4512C96.9336 61.8683 97.218 60.353 98.2219 58.9053C99.2257 57.4576 100.723 56.4228 102.713 55.8009C104.877 55.1247 106.765 55.1134 108.378 55.7673C110.002 56.4177 111.087 57.6183 111.634 59.3691L115.432 71.5215L112.055 72.5767L111.133 69.6242L111.051 69.6497C110.861 70.7596 110.348 71.7553 109.514 72.6368C108.679 73.5184 107.653 74.1494 106.435 74.5301Z" fill="black"/>
<path d="M99.2835 76.5683L94.863 77.9498L85.1441 71.945L85.0136 71.9857L87.5879 80.2232L84.0808 81.3192L78.5449 63.6045L82.052 62.5085L84.4325 70.1262L84.563 70.0854L89.2455 60.2605L93.454 58.9454L88.1639 69.7479L99.2835 76.5683Z" fill="black"/>
<path d="M64.5711 87.4159L59.0352 69.7012L62.5096 68.6154L66.4245 81.1429L66.555 81.1022L71.106 65.929L74.5804 64.8432L80.1163 82.558L76.6419 83.6437L72.7117 71.0673L72.5812 71.108L68.0455 86.3301L64.5711 87.4159Z" fill="black"/>
<path d="M54.6752 81.9862L46.3724 84.5809L48.7988 92.3453L45.2918 93.4413L39.7559 75.7266L43.2629 74.6306L45.4956 81.7752L53.7984 79.1806L51.5657 72.036L55.0727 70.94L60.6086 88.6547L57.1016 89.7507L54.6752 81.9862Z" fill="black"/>
<path d="M31.3678 104.865C30.7805 105.049 30.2919 105.166 29.9017 105.216L29.0046 102.345C29.239 102.331 29.6227 102.241 30.1556 102.075C31.0038 101.81 31.6114 101.405 31.9784 100.861C32.3529 100.302 32.5463 99.5074 32.5585 98.477L32.5504 97.4769L20.5723 81.7217L24.3729 80.534L33.4506 93.5967L33.5321 93.5712L33.5565 77.6641L37.2757 76.5018L36.4275 97.1068C36.3289 99.4653 35.9123 101.207 35.1776 102.332C34.4538 103.453 33.1838 104.298 31.3678 104.865Z" fill="black"/>
<path fill-rule="evenodd" clip-rule="evenodd" d="M229.908 67.3709C230.764 67.6645 231.442 68.2106 231.942 69.0093L235.351 67.9439C234.574 66.3365 233.36 65.2001 231.707 64.5347C231.113 64.2912 230.499 64.1266 229.866 64.0408C228.683 63.8804 227.433 63.9955 226.115 64.3858C226.357 62.2821 226.928 60.1565 227.909 58.0611C230.507 52.5111 235.141 48.9914 240.441 47.335C244.751 45.9884 249.576 45.8445 254.298 47.7691C257.591 49.1025 260.35 51.247 262.397 54.0279L265.271 53.1297L266.597 61.9748L270.283 69.5999L267.559 70.4509C267.456 74.0217 266.348 77.4964 264.207 80.5781C261.388 84.6371 257.427 87.0997 253.306 88.3875C248.1 90.0146 242.307 89.8568 236.982 86.8102C234.915 85.6321 233.192 84.1762 231.768 82.5455C233.084 82.1198 234.188 81.5134 235.079 80.7264C235.533 80.3254 235.932 79.8774 236.276 79.3826C237.305 77.903 237.683 76.2453 237.407 74.4095L233.998 75.4749C234.023 76.57 233.729 77.4721 233.115 78.1812C232.573 78.8072 231.782 79.2828 230.742 79.6079C230.404 79.7135 230.073 79.7843 229.748 79.8202C228.598 77.9844 227.738 76.0216 227.12 74.0434C226.498 72.0542 226.093 69.9508 225.998 67.7926C226.279 67.6415 226.584 67.5146 226.913 67.4117C227.919 67.0973 228.849 67.0621 229.702 67.3063C229.771 67.326 229.84 67.3476 229.908 67.3709Z" fill="white"/>
<path fill-rule="evenodd" clip-rule="evenodd" d="M209.44 80.859C210.038 82.5018 210.81 84.1186 211.786 85.6444C212.909 85.219 213.761 84.5451 214.342 83.6227C214.444 83.4585 214.533 83.2928 214.61 83.1254C215.017 82.2361 215.067 81.3019 214.761 80.3226L214.328 78.9361L210.113 80.5754C209.875 80.6666 209.65 80.7611 209.44 80.859ZM208.654 78.3082C208.722 78.2811 208.791 78.2542 208.86 78.2275L213.553 76.4567L213.125 75.0865C212.838 74.168 212.342 73.5265 211.638 73.1619C211.566 73.125 211.493 73.0909 211.417 73.0597C210.609 72.7274 209.612 72.7464 208.427 73.1168C208.25 73.1721 208.081 73.2337 207.919 73.3015C207.983 75.0138 208.244 76.6926 208.654 78.3082ZM213.418 87.8711C214.894 89.6325 216.706 91.203 218.908 92.4582C224.233 95.5048 230.026 95.6626 235.233 94.0355C239.354 92.7477 243.315 90.2852 246.133 86.2261C248.09 83.4102 249.183 80.2661 249.437 77.0204C248.197 77.3739 247.021 77.4895 245.907 77.3672C245.794 77.3548 245.682 77.3399 245.57 77.3226C244.646 77.1793 243.767 76.8682 242.932 76.3893C242.395 76.0843 241.899 75.7222 241.444 75.303C241.018 74.9117 240.628 74.4706 240.273 73.9797C239.568 73.0043 239.001 71.8324 238.574 70.464C238.156 69.1269 237.957 67.8638 237.977 66.6746C237.986 66.1451 238.039 65.6304 238.134 65.1302C238.266 64.4421 238.48 63.7818 238.776 63.1491C239.174 62.3003 239.691 61.5586 240.329 60.9241C240.428 60.8257 240.53 60.73 240.634 60.6368C241.474 59.8886 242.5 59.3063 243.712 58.89C241.74 56.4893 239.2 54.6221 236.224 53.4171C231.502 51.4925 226.677 51.6364 222.368 52.983C217.068 54.6394 212.433 58.1591 209.835 63.7091C208.853 65.8067 208.282 67.9345 208.04 70.0404C209.402 69.6641 210.651 69.5603 211.787 69.729C212.308 69.8063 212.805 69.9409 213.278 70.1328C214.902 70.7832 215.987 71.9838 216.534 73.7346L220.332 85.887L216.955 86.9422L216.033 83.9897L215.951 84.0152C215.902 84.2991 215.833 84.5756 215.742 84.8446C215.477 85.6271 215.035 86.3463 214.414 87.0023C214.108 87.3256 213.776 87.6152 213.418 87.8711ZM235.51 80.3143C235.79 80.0248 236.045 79.7142 236.276 79.3826C237.118 78.1723 237.524 76.8428 237.493 75.3942C237.487 75.1378 237.468 74.8776 237.435 74.6137C237.427 74.5459 237.417 74.4778 237.407 74.4095L233.998 75.4748C233.999 75.5149 233.999 75.5547 234 75.5942C234 75.9352 233.969 76.2569 233.906 76.5594C233.835 76.8981 233.725 77.2127 233.575 77.5032C233.574 77.5043 233.574 77.5054 233.573 77.5065C233.072 78.4742 232.128 79.1747 230.742 79.6079C230.736 79.6096 230.731 79.6113 230.725 79.613C229.296 80.0551 227.986 79.8736 226.795 79.0686C226.739 79.0307 226.683 78.9917 226.628 78.9516C226.625 78.9489 226.621 78.9462 226.617 78.9435C226.589 78.9227 226.561 78.9015 226.533 78.8801C226.379 78.7628 226.231 78.6365 226.089 78.501C226.087 78.4993 226.085 78.4975 226.083 78.4957C225.353 77.8009 224.764 76.8684 224.316 75.6983C224.229 75.4729 224.148 75.2387 224.072 74.9957C223.976 74.6877 223.895 74.3861 223.829 74.0908C223.54 72.7928 223.545 71.6174 223.845 70.5643C223.869 70.4773 223.896 70.3911 223.925 70.3057C223.944 70.2483 223.964 70.1914 223.986 70.1348C224.498 68.7783 225.462 67.8741 226.88 67.422C226.891 67.4185 226.902 67.4151 226.913 67.4117C228 67.0718 228.998 67.0582 229.908 67.3709C230.097 67.4359 230.278 67.5134 230.45 67.6032C230.456 67.6062 230.462 67.6093 230.468 67.6124C230.717 67.744 230.947 67.9018 231.16 68.0857C231.456 68.3425 231.717 68.6504 231.942 69.0092L235.351 67.9438C235.216 67.6655 235.069 67.4013 234.908 67.1512C234.14 65.957 233.073 65.0848 231.707 64.5347C231.465 64.4355 231.22 64.3495 230.972 64.2765C230.971 64.2763 230.97 64.2761 230.97 64.2759C230.8 64.2262 230.63 64.1826 230.457 64.1451C230.445 64.1423 230.432 64.1395 230.419 64.1368C230.343 64.1207 230.268 64.1058 230.191 64.0921C228.873 63.8544 227.469 63.9659 225.98 64.4267C225.969 64.43 225.958 64.4334 225.947 64.4368C224.445 64.9062 223.214 65.618 222.255 66.5721C222.096 66.7304 221.945 66.8952 221.801 67.0668C221.367 67.5832 221.001 68.16 220.703 68.7972C220.69 68.8251 220.677 68.8531 220.664 68.8811C220.662 68.8848 220.661 68.8885 220.659 68.8922C219.706 70.9951 219.653 73.4017 220.5 76.1121C221.366 78.8838 222.802 80.8492 224.808 82.0086C224.811 82.01 224.813 82.0114 224.816 82.0129C224.83 82.0211 224.844 82.0292 224.858 82.0374C225.343 82.3157 225.844 82.5373 226.359 82.7023C226.73 82.8212 227.11 82.9106 227.497 82.9706C228.794 83.1719 230.18 83.0422 231.653 82.5817C231.659 82.5801 231.664 82.5783 231.67 82.5766C233.135 82.1166 234.34 81.4365 235.287 80.5362C235.353 80.4726 235.419 80.408 235.483 80.3422C235.492 80.3329 235.501 80.3236 235.51 80.3143ZM228.074 71.1282C228.069 71.1297 228.058 71.1336 228.042 71.1401C227.967 71.1698 227.773 71.2552 227.513 71.4356C227.508 71.4392 227.502 71.4428 227.497 71.4465L227.839 71.5742L227.822 71.5826L227.485 71.4554C227.35 71.5502 227.214 71.6596 227.079 71.7825C226.977 71.8765 226.875 71.9785 226.776 72.0881L224.547 73.1656C224.6 73.2772 224.665 73.3963 224.739 73.5206C224.931 73.8392 225.195 74.1916 225.542 74.5363C225.557 74.5506 225.571 74.5649 225.586 74.5792C225.509 74.9879 225.488 75.3576 225.496 75.671C225.501 75.8672 225.518 76.0412 225.54 76.1889L227.809 75.8486C227.982 75.89 228.155 75.9207 228.324 75.941C228.334 75.9421 228.344 75.9432 228.354 75.9443C228.488 75.9594 228.62 75.968 228.749 75.9702C228.794 75.9709 228.837 75.9709 228.879 75.9702C228.882 75.9702 228.886 75.9701 228.89 75.97C229.289 75.9623 229.515 75.894 229.526 75.8905C229.529 75.8896 229.54 75.886 229.559 75.8792C229.563 75.8774 229.569 75.8753 229.575 75.8731C229.664 75.8382 229.87 75.7476 230.137 75.5639C230.174 75.5386 230.212 75.5115 230.251 75.4825L235.051 74.7628C235.111 74.6297 235.165 74.4992 235.213 74.3721L231.834 73.097L228.389 71.7968L228.387 71.7958L227.822 71.5826L226.776 72.0881C226.685 72.1894 226.596 72.2973 226.51 72.4114C226.482 72.4496 226.454 72.4885 226.426 72.5281C226.425 72.5288 226.425 72.5295 226.424 72.5302C226.424 72.5312 226.423 72.5322 226.422 72.5332C226.421 72.5352 226.42 72.5371 226.418 72.539C226.109 72.9865 225.802 73.6096 225.63 74.367C225.618 74.4182 225.607 74.4689 225.597 74.5191C225.593 74.5392 225.59 74.5592 225.586 74.5792C225.61 74.6024 225.634 74.6255 225.659 74.6486C226.15 75.1079 226.655 75.4142 227.078 75.6034C227.079 75.6041 227.081 75.6049 227.082 75.6056C227.103 75.615 227.124 75.6241 227.145 75.633C227.15 75.6349 227.154 75.6369 227.159 75.6388L227.192 75.6528L227.225 75.6659C227.417 75.741 227.613 75.8016 227.809 75.8486L230.251 75.4825C230.309 75.4393 230.37 75.392 230.432 75.3403C230.435 75.3376 230.439 75.335 230.442 75.3323C230.444 75.3305 230.446 75.3288 230.448 75.327C230.967 74.8915 231.347 74.3626 231.571 73.8853C231.697 73.6149 231.782 73.3451 231.834 73.097M231.84 73.0687L227.844 71.576L227.839 71.5742L228.587 71.2128L228.59 71.2114L228.889 71.0668C228.931 71.0689 228.975 71.0717 229.021 71.0753C229.023 71.0755 229.025 71.0757 229.028 71.0759C229.042 71.0771 229.057 71.0783 229.071 71.0797C229.701 71.1378 230.305 71.3359 230.789 71.6057C230.796 71.6095 230.803 71.6134 230.81 71.6172C230.816 71.621 230.823 71.6248 230.829 71.6286C231.08 71.7749 231.297 71.9396 231.478 72.1045C231.483 72.1092 231.488 72.1138 231.493 72.1185C231.656 72.2678 231.789 72.4169 231.891 72.5523C231.894 72.5566 231.898 72.5609 231.901 72.5652C231.896 72.7149 231.877 72.8856 231.84 73.0687ZM245.573 61.61C246.299 61.4583 246.982 61.4609 247.623 61.6177L248.524 67.6228L250.996 72.7388C250.585 73.1458 250.057 73.4817 249.41 73.7465C249.222 73.8237 249.024 73.8948 248.815 73.9598C247.38 74.4084 246.064 74.2286 244.869 73.4205C244.817 73.3858 244.766 73.3502 244.716 73.3136C243.569 72.482 242.712 71.1601 242.146 69.3477C241.603 67.6121 241.545 66.0779 241.97 64.7449C241.998 64.658 242.027 64.5719 242.059 64.4867C242.575 63.1199 243.551 62.2122 244.986 61.7636C245.185 61.7015 245.381 61.6503 245.573 61.61Z" fill="white"/>
<path fill-rule="evenodd" clip-rule="evenodd" d="M190.256 78.9194C190.359 79.6078 190.505 80.3005 190.696 80.9956L191.453 83.7522C191.434 85.5508 191.707 87.3503 192.252 89.0924C193.695 93.7112 196.898 97.6677 201.729 99.7937L201.759 99.8072L201.79 99.8205C204.17 100.852 206.564 101.284 208.865 101.29L209.079 101.974L212.161 101.011C213.109 100.85 214.029 100.625 214.913 100.348C215.783 100.076 216.634 99.7457 217.459 99.3557L235.363 93.7606L231.85 82.5172C231.784 82.5389 231.718 82.5601 231.652 82.5809C230.907 82.8138 230.184 82.9621 229.484 83.0257C229.085 83.0619 228.694 83.0707 228.311 83.0522C228.268 83.0501 228.226 83.0477 228.183 83.045C227.747 83.0168 227.32 82.9531 226.903 82.8536C226.194 82.6844 225.512 82.4121 224.857 82.0365C224.567 81.8716 224.289 81.69 224.022 81.4917C222.942 80.688 222.056 79.6101 221.364 78.2579C221.149 77.8382 220.953 77.3922 220.776 76.9198C220.678 76.6584 220.585 76.3888 220.499 76.1112C220.318 75.5323 220.178 74.9673 220.079 74.416C219.99 73.9209 219.935 73.437 219.912 72.9642C219.908 72.8692 219.904 72.7747 219.903 72.6807C219.885 71.7823 219.989 70.925 220.216 70.1089C220.34 69.6589 220.502 69.2214 220.701 68.7964C221.072 68.0056 221.546 67.3078 222.125 66.703C222.355 66.4626 222.602 66.2368 222.865 66.0258C223.539 65.4847 224.322 65.0402 225.213 64.6924C223.366 62.2251 220.857 60.2463 217.761 59.0013C212.887 57.0336 208.029 57.4627 204.032 58.7118C199.978 59.9787 196.051 62.4053 193.259 66.432C191.332 69.2116 190.178 72.4573 190.075 75.8962L196.574 73.8654L202.11 91.5801L198.603 92.676L193.944 77.767L190.256 78.9194ZM220.33 85.8862L216.533 73.7338C216.273 72.9044 215.894 72.1985 215.393 71.6161C214.836 70.969 214.131 70.4742 213.276 70.1319C213.091 70.0566 212.901 69.99 212.708 69.9324C212.706 69.9318 212.704 69.9313 212.702 69.9307C212.159 69.769 211.587 69.6771 210.985 69.655C210.896 69.6518 210.806 69.65 210.715 69.6498C209.752 69.6478 208.718 69.8198 207.611 70.1656C207.578 70.1758 207.546 70.1861 207.513 70.1966C207.094 70.3316 206.697 70.4852 206.322 70.6575C206.303 70.6663 206.284 70.6752 206.265 70.6841C206.193 70.7177 206.122 70.752 206.051 70.787C206.036 70.7946 206.021 70.8021 206.006 70.8097C205.29 71.1713 204.661 71.6058 204.119 72.1132C203.963 72.2598 203.814 72.4124 203.672 72.5711C203.666 72.5773 203.661 72.5835 203.655 72.5897C203.463 72.8053 203.285 73.0321 203.12 73.27C202.257 74.5153 201.925 75.8106 202.127 77.156C202.159 77.3746 202.206 77.5946 202.267 77.8159L205.578 76.7811C205.529 76.3314 205.571 75.9057 205.702 75.5039C205.74 75.386 205.787 75.2702 205.841 75.1565C205.938 74.9512 206.061 74.7525 206.209 74.5606C206.236 74.5268 206.263 74.4934 206.291 74.4605C206.527 74.1789 206.806 73.9321 207.126 73.72C207.134 73.7142 207.143 73.7085 207.152 73.7028C207.227 73.6538 207.304 73.6066 207.384 73.5614C207.397 73.5539 207.41 73.5466 207.423 73.5392C207.725 73.3715 208.06 73.2304 208.426 73.116C208.458 73.1057 208.491 73.0957 208.524 73.086C209.523 72.7874 210.387 72.7432 211.113 72.9534C211.217 72.9834 211.318 73.0186 211.416 73.0589C211.614 73.1408 211.798 73.2423 211.966 73.3632C211.97 73.3661 211.974 73.369 211.979 73.3719C212.074 73.4411 212.165 73.5165 212.251 73.5983C212.4 73.7403 212.535 73.9013 212.656 74.0812C212.766 74.2459 212.864 74.4264 212.951 74.6228C212.98 74.6891 213.008 74.7571 213.034 74.827C213.038 74.836 213.041 74.8451 213.045 74.8542C213.072 74.9293 213.099 75.0064 213.123 75.0856L213.552 76.4558L208.859 78.2267C208.596 78.328 208.342 78.4324 208.097 78.5399C207.734 78.6998 207.392 78.8665 207.071 79.0401C207.05 79.0513 207.029 79.0625 207.009 79.0737C206.8 79.188 206.601 79.3052 206.41 79.4253C206.409 79.4263 206.407 79.4274 206.405 79.4284C206.379 79.4449 206.353 79.4616 206.327 79.4783C206.163 79.5838 206.007 79.6916 205.857 79.8016C205.217 80.2705 204.703 80.78 204.314 81.3301C204.29 81.3643 204.266 81.3986 204.242 81.433C204.231 81.4499 204.22 81.4668 204.208 81.4838C204.064 81.7024 203.94 81.9256 203.836 82.1533C203.826 82.1765 203.815 82.1998 203.805 82.2232C203.773 82.298 203.743 82.3732 203.715 82.449C203.548 82.9006 203.46 83.3695 203.451 83.8557C203.442 84.3673 203.52 84.8979 203.685 85.4477C203.692 85.4695 203.699 85.4912 203.705 85.5131C203.95 86.2947 204.307 86.959 204.777 87.5058C204.997 87.7616 205.241 87.9917 205.511 88.1961C205.827 88.4362 206.178 88.6409 206.562 88.8101C206.672 88.8576 206.782 88.9016 206.894 88.9421C207.116 89.0223 207.342 89.0886 207.573 89.1411C207.586 89.1441 207.599 89.147 207.612 89.1499C208.003 89.2361 208.406 89.2825 208.821 89.2892C209.051 89.2929 209.284 89.2845 209.522 89.2639C210.103 89.2136 210.707 89.0905 211.333 88.8947C211.656 88.7939 211.965 88.6755 212.261 88.5395C212.401 88.475 212.539 88.4064 212.673 88.3339C212.693 88.323 212.713 88.312 212.733 88.301C212.787 88.2715 212.84 88.2413 212.892 88.2106C212.93 88.1885 212.967 88.1661 213.004 88.1434C213.018 88.1349 213.032 88.1263 213.046 88.1177C213.183 88.0326 213.316 87.943 213.446 87.8489C213.461 87.8384 213.475 87.8279 213.49 87.8173C213.82 87.5746 214.127 87.3027 214.412 87.0015C214.583 86.8208 214.741 86.6353 214.885 86.4451C214.978 86.3214 215.066 86.1956 215.148 86.0679C215.454 85.5929 215.68 85.09 215.828 84.559C215.829 84.5548 215.83 84.5506 215.831 84.5464C215.879 84.3721 215.919 84.1947 215.95 84.0144L216.031 83.9889L216.954 86.9413L220.33 85.8862ZM210.112 80.5746C210.008 80.6142 209.908 80.6544 209.809 80.6952C209.809 80.6953 209.809 80.6954 209.808 80.6956C209.803 80.6977 209.798 80.6999 209.793 80.702C209.776 80.7092 209.759 80.7164 209.742 80.7236C209.727 80.7297 209.713 80.7359 209.698 80.7421C209.41 80.8659 209.147 80.9953 208.907 81.1303C208.891 81.1392 208.875 81.1481 208.86 81.157C208.837 81.1704 208.813 81.1839 208.791 81.1975C208.769 81.2101 208.748 81.2228 208.727 81.2356C208.643 81.2864 208.563 81.338 208.486 81.3903C208.175 81.601 207.918 81.8241 207.714 82.0595C207.703 82.0729 207.691 82.0863 207.68 82.0997C207.56 82.2433 207.46 82.3913 207.379 82.544C207.379 82.5437 207.379 82.5442 207.379 82.544C207.362 82.5767 207.345 82.6106 207.329 82.6438C207.227 82.8628 207.164 83.091 207.14 83.3284C207.14 83.3344 207.139 83.3404 207.139 83.3464C207.136 83.3718 207.135 83.3974 207.133 83.4231C207.132 83.4413 207.131 83.4596 207.131 83.478C207.125 83.6621 207.143 83.8514 207.183 84.0461C207.201 84.1333 207.224 84.2215 207.251 84.3107C207.253 84.3176 207.255 84.3245 207.257 84.3315C207.264 84.3533 207.271 84.375 207.278 84.3965C207.302 84.4658 207.328 84.533 207.355 84.598C207.508 84.9535 207.726 85.2437 208.01 85.4686C208.016 85.473 208.021 85.4773 208.027 85.4816C208.131 85.5623 208.243 85.6344 208.365 85.6979C208.481 85.7587 208.605 85.8116 208.737 85.8566C208.983 85.9438 209.243 85.9997 209.518 86.0241C209.806 86.0496 210.109 86.0409 210.428 85.9979C210.541 85.9827 210.655 85.9632 210.772 85.9395C210.788 85.9363 210.804 85.933 210.82 85.9296C211.007 85.8897 211.2 85.8389 211.398 85.7771C211.491 85.7478 211.583 85.717 211.673 85.6846C211.689 85.679 211.705 85.6732 211.721 85.6675C211.82 85.6308 211.918 85.5922 212.014 85.5517C212.024 85.5476 212.033 85.5434 212.043 85.5393C212.232 85.4579 212.413 85.369 212.586 85.2724C212.801 85.1521 213.003 85.0199 213.192 84.876C213.618 84.5526 213.978 84.1696 214.273 83.7269C214.296 83.6922 214.318 83.6572 214.341 83.6219C214.461 83.4287 214.563 83.2333 214.648 83.0357C214.793 82.6987 214.886 82.3553 214.929 82.0055C214.933 81.9808 214.935 81.956 214.938 81.9313C214.955 81.7613 214.961 81.5898 214.954 81.4169C214.954 81.4054 214.953 81.3939 214.953 81.3824C214.951 81.3562 214.95 81.3299 214.948 81.3036C214.926 80.9815 214.864 80.6542 214.76 80.3218L214.326 78.9353L210.688 80.3505L210.687 80.3511L210.112 80.5746ZM226.889 67.4178C225.607 67.8239 224.695 68.5984 224.151 69.7413C224.125 69.795 224.101 69.8495 224.077 69.9048C224.061 69.9417 224.045 69.9789 224.03 70.0165C224.014 70.0553 223.999 70.0944 223.984 70.1339C223.821 70.5694 223.713 71.0272 223.657 71.5073C223.646 71.6047 223.637 71.703 223.63 71.8022C223.598 72.2769 223.616 72.7725 223.685 73.2893C223.757 73.8344 223.886 74.4029 224.071 74.9949C224.158 75.2755 224.253 75.5443 224.355 75.8014C224.545 76.2828 224.76 76.7231 224.999 77.1221C225.484 77.9316 226.069 78.5715 226.755 79.0416C226.768 79.0504 226.781 79.0591 226.794 79.0678C226.855 79.1088 226.916 79.1483 226.977 79.1862C227.028 79.2176 227.079 79.2479 227.131 79.2771C228.235 79.9039 229.439 80.0139 230.74 79.6071C230.802 79.5879 230.862 79.5682 230.922 79.5479L227.986 70.1545C227.69 69.2072 227.324 68.2925 226.889 67.4178Z" fill="white"/>
<path fill-rule="evenodd" clip-rule="evenodd" d="M184.902 96.9587L173.783 90.1383L179.073 79.3357L174.864 80.6509L170.818 89.1409L168.524 81.8014L172.973 81.7354L170.047 69.5841L204.45 58.833L207.959 70.063C207.845 70.0955 207.729 70.13 207.613 70.1663C206.849 70.4051 206.157 70.7046 205.539 71.0651C205.211 71.2558 204.904 71.4636 204.618 71.6884C204.035 72.1454 203.536 72.6728 203.122 73.2707C202.689 73.8947 202.39 74.5313 202.225 75.1804C202.006 76.0372 202.021 76.916 202.268 77.8166L205.58 76.7818C205.524 76.2724 205.585 75.7937 205.761 75.3457C205.868 75.0728 206.018 74.8114 206.211 74.5614C206.731 73.8973 207.47 73.4158 208.427 73.1167C208.579 73.0692 208.729 73.0274 208.875 72.9914L210.337 77.6704L208.86 78.2275C208.15 78.5006 207.51 78.7961 206.938 79.1142C205.778 79.7603 204.904 80.4992 204.316 81.3308C203.427 82.5753 203.224 83.9696 203.707 85.5138C204.2 87.0906 205.152 88.1896 206.564 88.8108C207.474 89.2054 208.46 89.3567 209.523 89.2647C210.104 89.2144 210.708 89.0913 211.335 88.8954C211.895 88.7204 212.415 88.4924 212.894 88.2113C213.105 88.0872 213.309 87.9528 213.505 87.808L217.145 99.4552L192.926 107.024C192.173 107.378 191.391 107.682 190.588 107.933C189.282 108.341 187.331 108.793 185.03 108.656L176.762 108.162L172.068 93.1419L180.482 98.3401L184.902 96.9587ZM196.576 73.8661L184.342 77.6892L186.688 87.4305C187.106 89.1501 187.263 90.4737 187.159 91.4014C187.128 91.6818 187.073 91.9345 186.994 92.1593C186.993 92.1615 186.993 92.1637 186.992 92.1659C186.86 92.5387 186.662 92.8347 186.397 93.054C186.333 93.1065 186.266 93.1545 186.195 93.1982C186.137 93.2338 186.077 93.2664 186.014 93.2962C185.991 93.3068 185.969 93.317 185.946 93.3269C185.88 93.3548 185.813 93.3797 185.742 93.4017C185.416 93.5036 185.093 93.557 184.772 93.5617L185.746 96.6773C186.029 96.6943 186.357 96.6549 186.729 96.5593C186.82 96.5361 186.913 96.5095 187.009 96.4795C187.074 96.4593 187.138 96.4382 187.201 96.4165C187.625 96.2704 188.01 96.0915 188.355 95.8798C188.374 95.8679 188.393 95.856 188.412 95.8439C189.244 95.3175 189.838 94.5954 190.194 93.6774C190.28 93.4568 190.352 93.2249 190.41 92.9816C190.497 92.619 190.555 92.2202 190.583 91.7853C190.583 91.7822 190.583 91.7791 190.584 91.776C190.584 91.7657 190.585 91.7553 190.586 91.745C190.643 90.7961 190.561 89.6768 190.34 88.3871C190.245 87.8351 190.125 87.252 189.98 86.6377C189.979 86.6353 189.979 86.633 189.978 86.6306C189.973 86.6098 189.968 86.5889 189.963 86.568L188.318 79.5264L193.945 77.7677L198.604 92.6768L202.111 91.5808L196.576 73.8661ZM211.122 80.1831L212.694 85.2122C212.306 85.4408 211.874 85.6293 211.399 85.7778C210.526 86.0506 209.752 86.1098 209.076 85.9554C208.961 85.9289 208.848 85.8963 208.738 85.8574C207.99 85.6018 207.497 85.0934 207.259 84.3322C206.976 83.4268 207.164 82.6305 207.822 81.9432C208.319 81.4253 209.082 80.9694 210.113 80.5754L211.122 80.1831Z" fill="white"/>
<path fill-rule="evenodd" clip-rule="evenodd" d="M155.825 97.5404L161.825 116.742L213.686 100.536L200.107 92.2069L198.605 92.6765L198.067 90.9553L189.804 85.8875L189.963 86.5677C190.096 87.1234 190.208 87.6538 190.3 88.1588C190.664 90.1671 190.7 91.7746 190.41 92.9813C189.991 94.7355 188.857 95.9015 187.009 96.4792C186.519 96.6321 186.098 96.6981 185.746 96.677L184.772 93.5614C185.018 93.5578 185.266 93.5255 185.515 93.4646C185.591 93.4461 185.667 93.4251 185.743 93.4014C186.569 93.1431 187.041 92.4763 187.159 91.4011C187.2 91.0326 187.2 90.6017 187.159 90.1083C187.097 89.3595 186.94 88.4668 186.688 87.4302L184.342 77.6889L194.849 74.4054L202.118 59.5614L149.131 76.1201L154.831 94.3596L162.419 91.9884L163.413 95.1692L155.825 97.5404ZM179.073 79.3354L174.865 80.6506L170.182 90.4754L170.052 90.5162L167.671 82.8986L164.164 83.9945L169.7 101.709L173.207 100.613L170.633 92.3758L170.763 92.335L180.482 98.3398L184.903 96.9584L173.783 90.138L179.073 79.3354ZM193.068 78.0415L188.318 79.526L189.618 85.0881L193.068 78.0415Z" fill="white"/>
<path fill-rule="evenodd" clip-rule="evenodd" d="M145.155 92.4412C143.283 91.2239 141.216 90.9687 138.954 91.6755C138.659 91.7677 138.375 91.8744 138.102 91.9955L136.684 87.458L170.292 76.9554L172.8 84.9806L170.181 90.4755L170.05 90.5163L167.67 82.8986L164.163 83.9946L169.699 101.709L173.206 100.613L170.631 92.3758L170.762 92.3351L176.135 95.6551L178.444 103.044L144.836 113.546L143.719 109.972C144.034 109.909 144.355 109.826 144.683 109.724C146.913 109.027 148.445 107.647 149.28 105.583C150.006 103.795 150.103 101.765 149.572 99.4941C149.486 99.1266 149.384 98.7527 149.265 98.3726C149.037 97.6431 148.773 96.9677 148.472 96.3465C147.643 94.6337 146.537 93.3319 145.155 92.4412ZM142.796 107.019C144.216 106.567 145.187 105.661 145.71 104.3C146.125 103.219 146.199 101.996 145.932 100.632C145.86 100.266 145.764 99.8902 145.644 99.5042C145.408 98.7519 145.119 98.0844 144.775 97.5018C144.283 96.6695 143.681 96.0103 142.967 95.5241C141.763 94.7034 140.448 94.5114 139.024 94.948L142.796 107.019ZM174.561 90.6159L174.166 89.353L173.782 90.138L174.561 90.6159ZM163.411 95.1693L162.417 91.9885L151.717 95.3324L152.711 98.5132L163.411 95.1693Z" fill="white"/>
<path fill-rule="evenodd" clip-rule="evenodd" d="M119.257 100.959C119.373 100.914 119.492 100.873 119.615 100.834C120.854 100.447 121.992 100.52 123.028 101.053C123.066 101.072 123.103 101.091 123.139 101.112C123.16 101.123 123.18 101.134 123.201 101.146C123.413 101.267 123.613 101.403 123.801 101.556C124.531 102.147 125.081 102.975 125.452 104.042L120.686 105.531L119.257 100.959ZM118.353 98.0667C118.477 98.0233 118.602 97.9817 118.729 97.942C119.486 97.7054 120.218 97.5603 120.925 97.5065C121.261 97.4809 121.591 97.476 121.916 97.4918C122.578 97.5238 123.216 97.6417 123.831 97.8454C124.322 98.008 124.798 98.2254 125.259 98.4976C125.567 98.6779 125.861 98.8785 126.141 99.0993C126.278 99.207 126.411 99.3195 126.541 99.4368C127.801 100.574 128.75 102.165 129.389 104.208L129.776 105.447L121.471 108.043L123.119 113.317C123.316 113.276 123.515 113.223 123.718 113.16C124.751 112.837 125.571 112.33 126.179 111.639C126.218 111.594 126.257 111.548 126.294 111.502C126.329 111.459 126.363 111.415 126.396 111.371C126.554 111.159 126.685 110.939 126.789 110.713C126.989 110.278 127.088 109.818 127.087 109.332L130.464 108.277C130.568 108.982 130.551 109.669 130.415 110.336C130.38 110.505 130.338 110.672 130.288 110.838C130.069 111.567 129.701 112.273 129.186 112.955C129.059 113.121 128.926 113.282 128.787 113.438C128.383 113.891 127.928 114.297 127.423 114.657C126.599 115.245 125.641 115.71 124.549 116.051C124.372 116.107 124.196 116.157 124.021 116.204L129.347 133.248L155.795 124.983L153.766 118.491C156.659 116.462 158.966 113.635 160.401 110.094C160.402 110.092 160.402 110.091 160.403 110.09C160.403 110.088 160.404 110.087 160.405 110.086C162.379 105.213 162.213 100.279 161.044 95.9091L152.712 98.5128L151.718 95.332L159.992 92.7464C158.411 88.8097 155.799 85.0302 151.678 82.3672C148.445 80.2711 144.914 79.2859 141.371 79.287L141.16 78.6107L138.108 79.5643C137.19 79.7196 136.278 79.9394 135.376 80.2213C134.502 80.4944 133.648 80.826 132.82 81.217L114.843 86.8347L118.353 98.0667ZM133.285 93.6437L129.876 94.7091L137.222 118.215L140.761 117.108L138.044 108.414L138.11 108.394C139.636 109.882 141.496 110.41 143.69 109.978C144.014 109.914 144.346 109.829 144.684 109.723C145.487 109.472 146.2 109.133 146.822 108.704C147.906 107.958 148.715 106.944 149.25 105.66C149.26 105.634 149.271 105.609 149.281 105.583C149.371 105.362 149.451 105.137 149.521 104.909C150.113 102.99 150.028 100.811 149.266 98.3721C148.474 95.837 147.242 93.9551 145.571 92.7264C145.436 92.6269 145.298 92.5316 145.156 92.4407C145.136 92.4275 145.116 92.4144 145.096 92.4015C143.932 91.6594 142.693 91.2874 141.379 91.2856C141.169 91.2853 140.957 91.2944 140.744 91.313C140.162 91.3636 139.565 91.4843 138.955 91.6751C138.649 91.7705 138.356 91.8815 138.074 92.0078C137.834 92.1153 137.603 92.234 137.381 92.3639C136.813 92.6957 136.3 93.1006 135.843 93.5785C135.005 94.4491 134.486 95.4411 134.285 96.5544L134.203 96.5799L133.285 93.6437ZM139.095 106.598C139.261 106.699 139.429 106.79 139.598 106.868C139.903 107.008 140.214 107.111 140.53 107.175C140.957 107.261 141.395 107.279 141.844 107.227C142.147 107.192 142.455 107.125 142.768 107.028C143.087 106.928 143.384 106.805 143.658 106.66C143.678 106.649 143.698 106.639 143.717 106.628C144.1 106.418 144.438 106.163 144.731 105.862C144.759 105.834 144.786 105.805 144.813 105.776C145.11 105.453 145.358 105.08 145.558 104.658C145.575 104.623 145.591 104.586 145.607 104.55C145.644 104.468 145.678 104.385 145.711 104.299C145.729 104.253 145.746 104.206 145.763 104.159C145.763 104.158 145.764 104.157 145.764 104.156C146.053 103.336 146.15 102.436 146.055 101.456C146.022 101.12 145.967 100.774 145.889 100.419C145.87 100.332 145.85 100.245 145.828 100.157C145.805 100.066 145.781 99.9739 145.756 99.8816C145.727 99.7755 145.696 99.6687 145.663 99.561C145.657 99.5419 145.651 99.5229 145.645 99.5038C145.639 99.4847 145.633 99.4656 145.627 99.4466C145.583 99.308 145.537 99.1722 145.489 99.0394C145.448 98.9254 145.405 98.8137 145.362 98.704C145.34 98.6503 145.318 98.597 145.296 98.5443C145.176 98.2572 145.045 97.9854 144.905 97.7288C144.894 97.7076 144.882 97.6865 144.87 97.6655C144.394 96.811 143.806 96.1295 143.107 95.6209C143.103 95.618 143.099 95.6151 143.095 95.6122C143.053 95.5821 143.011 95.5526 142.969 95.5237C142.896 95.4743 142.823 95.4273 142.75 95.3825C142.713 95.3597 142.676 95.3375 142.638 95.3159C142.231 95.0808 141.811 94.9153 141.38 94.8193C141.367 94.8166 141.355 94.8139 141.342 94.8113C140.941 94.7258 140.529 94.7005 140.106 94.7351C140.043 94.7402 139.98 94.7467 139.917 94.7545C139.615 94.7918 139.308 94.8592 138.996 94.9568C138.628 95.0717 138.291 95.2189 137.984 95.3984C137.935 95.4268 137.887 95.4561 137.84 95.4862C137.837 95.488 137.834 95.4899 137.831 95.4918C137.535 95.6817 137.269 95.9038 137.033 96.1581C136.814 96.3933 136.621 96.6561 136.454 96.9465C136.372 97.0903 136.295 97.2408 136.225 97.3981C136.183 97.4917 136.144 97.5877 136.106 97.686C135.785 98.5337 135.667 99.4619 135.751 100.471C135.768 100.673 135.793 100.878 135.826 101.087C135.858 101.284 135.896 101.484 135.942 101.687C136 101.944 136.07 102.205 136.151 102.471C136.236 102.735 136.327 102.99 136.426 103.234C136.503 103.427 136.586 103.613 136.672 103.793C136.764 103.983 136.86 104.167 136.961 104.342C137.466 105.22 138.092 105.915 138.839 106.429C138.924 106.489 139.009 106.545 139.095 106.598Z" fill="white"/>
<path fill-rule="evenodd" clip-rule="evenodd" d="M104.294 105.783L109.889 104.035L109.012 101.229L100.893 103.766C101.109 101.628 101.659 99.4631 102.633 97.3247C105.182 91.7276 109.812 88.1562 115.148 86.4887C120.295 84.8804 126.063 85.0465 131.339 88.153C133.516 89.431 135.293 91.0222 136.729 92.7936C136.413 93.0288 136.117 93.2906 135.842 93.5789C135.653 93.7749 135.481 93.9769 135.324 94.1852C134.981 94.643 134.715 95.1306 134.527 95.6478C134.421 95.9406 134.339 96.243 134.283 96.5548L134.201 96.5803L133.284 93.6442L129.875 94.7096L137.22 118.215L140.648 117.144C140.116 118.214 139.482 119.232 138.76 120.188L138.741 120.213L138.723 120.237C135.898 123.937 132.122 126.257 128.127 127.505C122.937 129.128 117.1 129.025 111.717 125.937L111.714 125.935C109.584 124.712 107.825 123.193 106.386 121.495L108.953 120.692L104.294 105.783ZM129.775 105.448L129.387 104.208C129.238 103.73 129.071 103.276 128.888 102.848C128.773 102.579 128.651 102.32 128.522 102.07C127.705 100.485 126.617 99.294 125.257 98.498C125.084 98.3955 124.908 98.3008 124.73 98.2139C124.401 98.0531 124.065 97.9188 123.721 97.8111C123.642 97.7861 123.561 97.7625 123.481 97.7403C122.025 97.3399 120.44 97.4072 118.728 97.9424C118.722 97.9441 118.717 97.9458 118.711 97.9475C116.927 98.5079 115.535 99.4198 114.535 100.683C114.531 100.689 114.526 100.694 114.522 100.699C114.307 100.973 114.11 101.263 113.931 101.569C113.927 101.575 113.924 101.581 113.92 101.587C113.788 101.815 113.666 102.052 113.554 102.299C112.82 103.909 112.612 105.703 112.929 107.682C113.031 108.32 113.187 108.976 113.399 109.652C113.487 109.936 113.582 110.211 113.682 110.477C113.708 110.547 113.735 110.616 113.762 110.685C114.643 112.917 115.952 114.531 117.688 115.528C117.835 115.612 117.983 115.691 118.133 115.765C118.139 115.768 118.144 115.77 118.15 115.773C118.55 115.969 118.96 116.127 119.381 116.249C119.388 116.25 119.394 116.252 119.401 116.254C120.969 116.701 122.685 116.634 124.548 116.052C124.57 116.045 124.591 116.038 124.613 116.031C126.176 115.533 127.463 114.779 128.472 113.77C128.477 113.765 128.481 113.761 128.486 113.756C128.501 113.741 128.517 113.725 128.532 113.709C128.765 113.472 128.982 113.221 129.185 112.955C130.049 111.811 130.497 110.6 130.528 109.324C130.536 108.98 130.514 108.631 130.462 108.277L127.085 109.332C127.087 109.93 126.936 110.489 126.634 111.009C126.632 111.013 126.629 111.018 126.626 111.023C126.502 111.235 126.352 111.44 126.177 111.639C125.569 112.331 124.749 112.838 123.716 113.16C123.694 113.167 123.672 113.174 123.651 113.18C122.219 113.613 120.926 113.504 119.77 112.854C119.631 112.776 119.496 112.692 119.367 112.602C119.367 112.602 119.367 112.603 119.367 112.602C119.226 112.504 119.089 112.398 118.96 112.285C118.503 111.888 118.119 111.397 117.808 110.814C117.683 110.582 117.571 110.336 117.47 110.075C117.408 109.915 117.35 109.75 117.297 109.58L117.231 109.368L129.775 105.448ZM123.977 101.708C124.43 102.116 124.808 102.623 125.111 103.23C125.122 103.253 125.134 103.277 125.145 103.3C125.213 103.441 125.277 103.588 125.338 103.74C125.377 103.838 125.414 103.939 125.45 104.042L116.462 106.851C116.301 106.164 116.25 105.511 116.311 104.891C116.352 104.472 116.444 104.068 116.587 103.68C116.66 103.481 116.747 103.287 116.847 103.096C117.419 101.986 118.341 101.232 119.613 100.835C119.619 100.833 119.624 100.831 119.63 100.83C120.907 100.435 122.076 100.529 123.138 101.112C123.284 101.192 123.424 101.28 123.559 101.375C123.563 101.377 123.566 101.379 123.569 101.381C123.711 101.482 123.847 101.591 123.977 101.708ZM104.617 119.081L100.807 106.887C100.902 109.082 101.316 111.218 101.945 113.232C102.569 115.229 103.442 117.22 104.617 119.081ZM140.723 116.99C141.148 116.115 141.505 115.205 141.786 114.267L144.808 113.322L143.758 109.964C143.328 110.053 142.911 110.105 142.506 110.12C141.658 110.152 140.866 110.022 140.13 109.732C139.401 109.444 138.727 108.998 138.108 108.394L138.043 108.415L140.723 116.99ZM139.027 106.556C139.247 106.696 139.47 106.815 139.697 106.913C140.554 107.283 141.459 107.354 142.412 107.126C142.529 107.098 142.647 107.065 142.766 107.028C142.789 107.021 142.812 107.014 142.834 107.006L142.019 104.399L140.59 94.7223C140.074 94.7076 139.542 94.786 138.994 94.9573C138.789 95.0214 138.593 95.0957 138.406 95.18C137.319 95.672 136.552 96.5075 136.105 97.6865C136.052 97.8256 136.005 97.9669 135.963 98.1103C135.751 98.8389 135.679 99.6235 135.749 100.464C135.793 100.996 135.893 101.55 136.05 102.126C136.081 102.24 136.114 102.355 136.15 102.471C136.248 102.78 136.356 103.074 136.473 103.355C137.041 104.711 137.829 105.736 138.837 106.43C138.9 106.474 138.964 106.516 139.027 106.556Z" fill="white"/>
<path fill-rule="evenodd" clip-rule="evenodd" d="M89.6918 111.547C90.32 111.863 90.8343 112.341 91.2347 112.98L94.6439 111.914C94.2105 111.018 93.6408 110.267 92.9348 109.664C92.8387 109.582 92.7401 109.502 92.639 109.425C92.1514 109.056 91.6051 108.749 91.0002 108.505C89.8848 108.048 88.7014 107.869 87.4499 107.967C86.7355 108.024 85.9989 108.17 85.2401 108.407C84.481 108.645 83.7913 108.944 83.1709 109.305C83.0794 109.358 82.9893 109.413 82.9008 109.469L79.2988 97.9424L116.887 86.196L120.438 97.5576C119.883 97.6313 119.313 97.7594 118.728 97.9422C117.978 98.1765 117.297 98.4729 116.686 98.8312C115.275 99.6575 114.231 100.813 113.554 102.298C113.453 102.52 113.362 102.746 113.281 102.975C113.041 103.653 112.888 104.363 112.823 105.103C112.699 106.509 112.891 108.025 113.4 109.652C113.908 111.279 114.61 112.626 115.507 113.692C115.777 114.014 116.066 114.31 116.372 114.581C116.779 114.942 117.218 115.257 117.689 115.527C118.481 115.982 119.316 116.284 120.195 116.434L123.987 128.567L97.5884 136.816L93.9174 125.069C94.5642 124.579 95.1147 124.007 95.5686 123.353C96.0293 122.691 96.3593 121.994 96.5588 121.26C96.6059 121.087 96.6456 120.912 96.6782 120.736C96.8159 119.986 96.8233 119.201 96.7002 118.38L93.291 119.445C93.3098 120.257 93.1531 120.962 92.8212 121.561C92.728 121.73 92.6209 121.89 92.5 122.041L87.3581 123.648C87.3484 123.645 87.3388 123.642 87.3292 123.639L83.964 112.871C84.368 112.356 84.8815 111.951 85.5043 111.655C85.7244 111.551 85.9581 111.46 86.2055 111.382C86.4719 111.299 86.7329 111.235 86.9886 111.191C87.7768 111.055 88.5142 111.105 89.2008 111.341C89.3716 111.4 89.5352 111.469 89.6918 111.547ZM105.463 121.783L108.954 120.692L104.294 105.783L109.889 104.035L109.013 101.229L94.3319 105.817L95.2087 108.622L100.804 106.874L105.463 121.783ZM120.665 113.24L124.922 111.909L123.515 107.404L117.232 109.368L117.298 109.58C117.644 110.686 118.169 111.562 118.875 112.208C119.147 112.458 119.446 112.673 119.771 112.853C120.061 113.016 120.358 113.145 120.665 113.24ZM122.73 104.892L121.388 100.598C121.225 100.588 121.06 100.587 120.892 100.596C120.479 100.618 120.053 100.697 119.614 100.834C119.182 100.97 118.79 101.146 118.439 101.363C117.756 101.785 117.225 102.363 116.847 103.096C116.645 103.482 116.497 103.885 116.405 104.305C116.23 105.094 116.25 105.943 116.463 106.851L122.73 104.892Z" fill="white"/>
<path fill-rule="evenodd" clip-rule="evenodd" d="M68.7334 124.83C69.3307 126.473 70.1031 128.089 71.0791 129.615C72.2018 129.19 73.0539 128.516 73.6352 127.593C73.737 127.429 73.8262 127.263 73.9028 127.096C74.3097 126.207 74.3602 125.273 74.0542 124.293L73.6209 122.907L69.4063 124.546C69.1677 124.637 68.9434 124.732 68.7334 124.83ZM67.9474 122.279C68.0154 122.252 68.084 122.225 68.1533 122.198L72.8461 120.427L72.4179 119.057C72.1309 118.139 71.635 117.497 70.9305 117.133C70.8592 117.096 70.7858 117.062 70.7102 117.03C69.9021 116.698 68.9054 116.717 67.72 117.088C67.5431 117.143 67.3736 117.204 67.2115 117.272C67.2763 118.985 67.5371 120.663 67.9474 122.279ZM72.711 131.842C74.1869 133.603 75.9988 135.174 78.201 136.429C83.5262 139.476 89.3189 139.633 94.5255 138.006C98.6465 136.718 102.608 134.256 105.426 130.197C107.43 127.313 108.528 124.086 108.746 120.757L105.463 121.783L100.804 106.874L95.2086 108.623L94.3319 105.817L103.164 103.057C101.17 100.562 98.5737 98.6254 95.517 97.3878C90.7952 95.4632 85.9698 95.6071 81.6607 96.9538C76.3605 98.6101 71.7262 102.13 69.1278 107.68C68.1458 109.777 67.575 111.905 67.3333 114.011C68.6951 113.635 69.944 113.531 71.08 113.7C71.6007 113.777 72.0976 113.912 72.5708 114.103C74.1945 114.754 75.2799 115.955 75.827 117.705L79.6247 129.858L76.2481 130.913L75.3255 127.96L75.2439 127.986C75.1952 128.27 75.1255 128.546 75.0346 128.815C74.7703 129.598 74.3276 130.317 73.7065 130.973C73.4005 131.296 73.0686 131.586 72.711 131.842ZM95.5686 123.353C96.4108 122.143 96.8165 120.814 96.7856 119.365C96.7802 119.108 96.761 118.848 96.7282 118.584C96.7198 118.517 96.7104 118.449 96.7002 118.38L93.291 119.446C93.2919 119.486 93.2924 119.525 93.2925 119.565C93.2931 119.906 93.2619 120.228 93.1989 120.53C93.1284 120.869 93.0181 121.183 92.868 121.474C92.8674 121.475 92.8668 121.476 92.8663 121.477C92.3649 122.445 91.421 123.145 90.0347 123.579C90.0293 123.58 90.0239 123.582 90.0184 123.584C88.5893 124.026 87.2793 123.844 86.0883 123.039C86.032 123.001 85.9763 122.962 85.9214 122.922C85.9177 122.92 85.914 122.917 85.9103 122.914C85.8819 122.893 85.8537 122.872 85.8257 122.851C85.6723 122.734 85.5243 122.607 85.3817 122.472C85.3798 122.47 85.378 122.468 85.3761 122.466C84.6463 121.772 84.0571 120.839 83.6087 119.669C83.5223 119.444 83.4411 119.209 83.3652 118.966C83.2689 118.658 83.1879 118.357 83.1222 118.061C82.833 116.764 82.8382 115.588 83.1376 114.535C83.1623 114.448 83.1891 114.362 83.2178 114.276C83.2371 114.219 83.2574 114.162 83.2785 114.105C83.7905 112.749 84.7553 111.845 86.1729 111.393C86.1837 111.389 86.1946 111.386 86.2055 111.382C87.2929 111.043 88.2914 111.029 89.2008 111.342C89.3903 111.407 89.5711 111.484 89.7432 111.574C89.7491 111.577 89.7549 111.58 89.7607 111.583C90.0098 111.715 90.2404 111.872 90.4527 112.056C90.7492 112.313 91.0099 112.621 91.2347 112.98L94.6438 111.915C94.5093 111.636 94.3617 111.372 94.2009 111.122C93.4332 109.928 92.3663 109.056 91.0002 108.505C90.7582 108.406 90.513 108.32 90.2646 108.247C90.264 108.247 90.2633 108.247 90.2627 108.247C90.0934 108.197 89.9227 108.153 89.7504 108.116C89.7376 108.113 89.7248 108.11 89.712 108.108C89.6364 108.091 89.5606 108.077 89.4844 108.063C88.1661 107.825 86.7622 107.937 85.2727 108.397C85.2618 108.401 85.2509 108.404 85.24 108.408C83.7378 108.877 82.5073 109.589 81.5484 110.543C81.3894 110.701 81.2379 110.866 81.0938 111.037C80.6601 111.554 80.2941 112.131 79.9957 112.768C79.9827 112.796 79.9698 112.824 79.957 112.852C79.9553 112.856 79.9537 112.859 79.952 112.863C78.9989 114.966 78.9459 117.372 79.7929 120.083C80.6591 122.854 82.0951 124.82 84.101 125.979C84.1035 125.981 84.106 125.982 84.1085 125.984C84.1227 125.992 84.137 126 84.1512 126.008C84.6364 126.286 85.1367 126.508 85.652 126.673C86.0234 126.792 86.4025 126.881 86.7895 126.941C88.0871 127.143 89.4726 127.013 90.9462 126.552C90.9516 126.551 90.957 126.549 90.9625 126.547C92.4275 126.087 93.6332 125.407 94.5796 124.507C94.6464 124.443 94.712 124.379 94.7762 124.313C94.7853 124.304 94.7943 124.294 94.8033 124.285C95.0832 123.995 95.3383 123.685 95.5686 123.353ZM87.3666 115.099C87.3621 115.1 87.3513 115.104 87.3348 115.111C87.2598 115.141 87.0664 115.226 86.8059 115.406C86.8007 115.41 86.7954 115.414 86.7902 115.417L87.1322 115.545L87.1148 115.553L86.7776 115.426C86.6431 115.521 86.5068 115.63 86.3723 115.753C86.2695 115.847 86.1678 115.949 86.069 116.059L83.8395 117.136C83.8934 117.248 83.9575 117.367 84.0323 117.491C84.2243 117.81 84.4875 118.162 84.8352 118.507C84.8496 118.521 84.8641 118.536 84.8789 118.55C84.8024 118.959 84.7808 119.328 84.7889 119.642C84.794 119.838 84.8107 120.012 84.8329 120.16L87.1024 119.819C87.2749 119.861 87.4475 119.891 87.6174 119.912C87.6271 119.913 87.6368 119.914 87.6465 119.915C87.7806 119.93 87.9129 119.939 88.0422 119.941C88.0871 119.942 88.1303 119.942 88.1716 119.941C88.1753 119.941 88.179 119.941 88.1827 119.941C88.582 119.933 88.8083 119.865 88.8193 119.861C88.8223 119.86 88.8333 119.857 88.8516 119.85C88.8564 119.848 88.8618 119.846 88.8676 119.844C88.9572 119.809 89.163 119.718 89.4302 119.535C89.4671 119.509 89.5051 119.482 89.5442 119.453L94.3438 118.734C94.4037 118.6 94.4575 118.47 94.5055 118.343L91.1271 117.068L87.6821 115.767L87.6795 115.766L87.1148 115.553L86.069 116.059C85.9775 116.16 85.8885 116.268 85.8032 116.382C85.7747 116.42 85.7465 116.459 85.7189 116.499C85.7175 116.501 85.7162 116.503 85.7148 116.505C85.7141 116.506 85.7134 116.507 85.7127 116.508C85.7122 116.508 85.7117 116.509 85.7113 116.51C85.4019 116.957 85.0952 117.58 84.9228 118.338C84.9112 118.389 84.9004 118.44 84.8904 118.49C84.8864 118.51 84.8826 118.53 84.8789 118.55C84.9027 118.573 84.927 118.596 84.9517 118.619C85.4426 119.079 85.9475 119.385 86.3705 119.574C86.3721 119.575 86.3736 119.576 86.3752 119.576C86.3964 119.586 86.4173 119.595 86.438 119.604C86.4426 119.606 86.4472 119.608 86.4517 119.61L86.4851 119.623L86.517 119.636C86.7092 119.712 86.9061 119.772 87.1024 119.819L89.5442 119.453C89.6024 119.41 89.6628 119.363 89.7251 119.311C89.7283 119.308 89.7315 119.306 89.7346 119.303C89.7367 119.301 89.7388 119.3 89.7409 119.298C90.2597 118.862 90.6402 118.333 90.8636 117.856C90.9903 117.586 91.075 117.316 91.1271 117.068M91.133 117.039L87.1322 115.545L87.8799 115.184L87.883 115.182L88.182 115.038C88.2244 115.04 88.2683 115.042 88.3136 115.046C88.316 115.046 88.3184 115.046 88.3208 115.047C88.3353 115.048 88.3499 115.049 88.3644 115.05C88.9942 115.109 89.5982 115.307 90.0822 115.576C90.0891 115.58 90.0959 115.584 90.1027 115.588C90.1092 115.592 90.1157 115.595 90.1222 115.599C90.3726 115.746 90.5896 115.91 90.7709 116.075C90.776 116.08 90.7811 116.085 90.7862 116.089C90.9486 116.238 91.0817 116.388 91.1841 116.523C91.1873 116.527 91.1906 116.532 91.1938 116.536C91.1889 116.686 91.1698 116.856 91.133 117.039ZM106.827 104.992L107.817 111.594L111.502 119.219L108.779 120.07C108.778 120.089 108.778 120.108 108.777 120.128L104.294 105.783L106.827 104.992Z" fill="white"/>
<path fill-rule="evenodd" clip-rule="evenodd" d="M52.5549 135.611C54.2614 139.117 57.1071 142.043 61.0224 143.766L61.0532 143.779L61.084 143.792C63.4635 144.824 65.8579 145.256 68.1591 145.262L68.3731 145.946L71.4551 144.983C72.4026 144.822 73.3226 144.597 74.2064 144.32C75.077 144.048 75.9278 143.718 76.7529 143.328L94.6572 137.732L91.1436 126.489C91.0781 126.511 91.0121 126.532 90.9455 126.553C90.2003 126.786 89.4776 126.934 88.7774 126.998C88.3791 127.034 87.9881 127.043 87.6044 127.024C87.5618 127.022 87.5193 127.02 87.4768 127.017C87.0407 126.989 86.6141 126.925 86.197 126.826C85.4874 126.656 84.8053 126.384 84.1506 126.008C83.8606 125.844 83.5823 125.662 83.3158 125.464C82.236 124.66 81.3501 123.582 80.658 122.23C80.4432 121.81 80.2471 121.364 80.0697 120.892C79.9715 120.63 79.879 120.361 79.7923 120.083C79.6113 119.504 79.4715 118.939 79.3727 118.388C79.284 117.893 79.2283 117.409 79.2059 116.936C79.2014 116.841 79.1982 116.747 79.1963 116.653C79.1788 115.754 79.2831 114.897 79.5095 114.081C79.6343 113.631 79.7961 113.193 79.9951 112.768C80.3654 111.977 80.8399 111.28 81.4186 110.675C81.6487 110.434 81.8953 110.209 82.1583 109.998C82.8328 109.457 83.6157 109.012 84.507 108.664C82.6603 106.197 80.1519 104.219 77.0559 102.974C72.1823 101.005 67.323 101.435 63.3255 102.684C59.2716 103.951 55.345 106.377 52.5528 110.404C49.6922 114.529 48.5369 119.681 49.9896 124.968L50.6591 127.404L51.6104 119.168L55.8841 117.832L61.42 135.547L58.0108 136.612L54.152 124.264L54.0215 124.305L52.5549 135.611ZM79.6241 129.858L75.8264 117.706C75.5672 116.876 75.1873 116.17 74.6865 115.588C74.1302 114.941 73.4247 114.446 72.5701 114.104C72.3843 114.028 72.1947 113.962 72.0015 113.904C71.9997 113.904 71.9979 113.903 71.9961 113.903C71.4527 113.741 70.8803 113.649 70.279 113.627C70.1895 113.624 70.0993 113.622 70.0085 113.622C69.046 113.62 68.0114 113.792 66.9048 114.138C66.8721 114.148 66.8395 114.158 66.8071 114.169C66.3877 114.304 65.9906 114.457 65.6158 114.629C65.5966 114.638 65.5775 114.647 65.5585 114.656C65.4866 114.69 65.4155 114.724 65.3452 114.759C65.3302 114.766 65.3151 114.774 65.3001 114.782C64.5842 115.143 63.9552 115.578 63.4132 116.085C63.2567 116.232 63.1074 116.384 62.9654 116.543C62.9598 116.549 62.9543 116.555 62.9488 116.562C62.7572 116.777 62.5789 117.004 62.4139 117.242C61.5504 118.487 61.2192 119.783 61.4204 121.128C61.4531 121.347 61.4998 121.567 61.5606 121.788L64.872 120.753C64.8231 120.303 64.8644 119.878 64.9957 119.476C65.0343 119.358 65.0805 119.242 65.1346 119.128C65.2321 118.923 65.3549 118.724 65.503 118.533C65.5295 118.499 65.5566 118.465 65.5843 118.432C65.8212 118.151 66.0995 117.904 66.4194 117.692C66.4281 117.686 66.4368 117.68 66.4455 117.675C66.5207 117.626 66.598 117.579 66.6777 117.533C66.6908 117.526 66.7039 117.518 66.7171 117.511C67.0192 117.343 67.3534 117.202 67.7194 117.088C67.7522 117.078 67.7849 117.068 67.8175 117.058C68.8172 116.759 69.6804 116.715 70.407 116.925C70.5106 116.955 70.6115 116.99 70.7096 117.031C70.9078 117.113 71.0914 117.214 71.2602 117.335C71.2642 117.338 71.2683 117.341 71.2723 117.344C71.3677 117.413 71.4584 117.488 71.5443 117.57C71.6936 117.712 71.8286 117.873 71.9493 118.053C72.0598 118.218 72.1582 118.398 72.2447 118.595C72.2739 118.661 72.3017 118.729 72.3281 118.799C72.3315 118.808 72.3349 118.817 72.3383 118.826C72.3662 118.901 72.3925 118.978 72.4172 119.058L72.8454 120.428L68.1527 122.199C67.8893 122.3 67.6354 122.404 67.3911 122.512C67.0277 122.672 66.6855 122.838 66.3643 123.012C66.3437 123.023 66.3231 123.034 66.3026 123.046C66.094 123.16 65.8945 123.277 65.704 123.397C65.7024 123.398 65.7008 123.399 65.6992 123.4C65.673 123.417 65.6469 123.434 65.621 123.45C65.4572 123.556 65.3003 123.663 65.1503 123.773C64.5109 124.242 63.9967 124.752 63.6078 125.302C63.5834 125.336 63.5595 125.371 63.5361 125.405C63.5246 125.422 63.5133 125.439 63.5021 125.456C63.3573 125.674 63.2333 125.897 63.13 126.125C63.1195 126.148 63.1091 126.172 63.099 126.195C63.0666 126.27 63.0364 126.345 63.0085 126.421C62.8418 126.873 62.754 127.341 62.7451 127.828C62.7358 128.339 62.8138 128.87 62.9791 129.42C62.9857 129.441 62.9924 129.463 62.9992 129.485C63.2434 130.267 63.6006 130.931 64.0707 131.478C64.2906 131.734 64.5352 131.964 64.8045 132.168C65.1208 132.408 65.4713 132.613 65.8558 132.782C65.9655 132.83 66.0762 132.874 66.1881 132.914C66.4098 132.994 66.6359 133.061 66.8663 133.113C66.8794 133.116 66.8925 133.119 66.9057 133.122C67.2964 133.208 67.6996 133.254 68.1152 133.261C68.3448 133.265 68.5781 133.256 68.8153 133.236C69.3964 133.186 70.0003 133.062 70.627 132.867C70.9497 132.766 71.2588 132.647 71.5545 132.511C71.695 132.447 71.8324 132.378 71.9668 132.306C71.987 132.295 72.0071 132.284 72.0272 132.273C72.0806 132.243 72.1335 132.213 72.1859 132.183C72.2236 132.16 72.261 132.138 72.2981 132.115C72.312 132.107 72.3259 132.098 72.3397 132.09C72.4766 132.004 72.6101 131.915 72.7401 131.821C72.7546 131.81 72.769 131.8 72.7834 131.789C73.1133 131.546 73.4208 131.275 73.7059 130.973C73.877 130.793 74.0345 130.607 74.1785 130.417C74.2721 130.293 74.36 130.168 74.4422 130.04C74.7477 129.565 74.9741 129.062 75.1215 128.531C75.1227 128.527 75.1238 128.523 75.125 128.518C75.1729 128.344 75.2124 128.167 75.2433 127.986L75.3249 127.961L76.2475 130.913L79.6241 129.858ZM69.4057 124.547C69.3021 124.586 69.2013 124.626 69.1031 124.667C69.1028 124.667 69.1025 124.667 69.1022 124.667C69.0971 124.67 69.0919 124.672 69.0868 124.674C69.0696 124.681 69.0526 124.688 69.0356 124.695C69.0211 124.702 69.0066 124.708 68.9922 124.714C68.7041 124.838 68.4403 124.967 68.2006 125.102C68.1849 125.111 68.1692 125.12 68.1537 125.129C68.1303 125.142 68.1072 125.156 68.0843 125.169C68.0628 125.182 68.0416 125.195 68.0206 125.208C67.9369 125.258 67.8565 125.31 67.7794 125.362C67.4689 125.573 67.2117 125.796 67.0079 126.031C66.9963 126.045 66.9849 126.058 66.9737 126.072C66.8539 126.215 66.7536 126.363 66.6729 126.516C66.673 126.516 66.6727 126.516 66.6729 126.516C66.6556 126.549 66.6387 126.582 66.6232 126.616C66.5209 126.835 66.4579 127.063 66.4342 127.3C66.4336 127.306 66.433 127.312 66.4325 127.318C66.4302 127.344 66.4283 127.369 66.4269 127.395C66.4259 127.413 66.4251 127.432 66.4246 127.45C66.419 127.634 66.4364 127.823 66.4768 128.018C66.4948 128.105 66.5175 128.193 66.5447 128.283C66.5468 128.29 66.5489 128.296 66.5511 128.303C66.5579 128.325 66.565 128.347 66.5722 128.368C66.5957 128.438 66.6214 128.505 66.6492 128.57C66.8016 128.925 67.0199 129.216 67.304 129.441C67.3095 129.445 67.315 129.449 67.3205 129.454C67.4245 129.534 67.5372 129.606 67.6585 129.67C67.7745 129.731 67.8985 129.783 68.0304 129.829C68.2765 129.916 68.5371 129.972 68.8122 129.996C69.0996 130.022 69.4028 130.013 69.7218 129.97C69.8343 129.955 69.9488 129.935 70.0653 129.911C70.0813 129.908 70.0973 129.905 70.1134 129.901C70.3009 129.862 70.4936 129.811 70.6913 129.749C70.7849 129.72 70.8768 129.689 70.9671 129.657C70.9829 129.651 70.9987 129.645 71.0144 129.639C71.1142 129.603 71.212 129.564 71.3077 129.524C71.3174 129.519 71.3271 129.515 71.3368 129.511C71.526 129.43 71.707 129.341 71.8796 129.244C72.0947 129.124 72.2969 128.992 72.4862 128.848C72.9113 128.525 73.2714 128.142 73.5665 127.699C73.5896 127.664 73.6122 127.629 73.6345 127.594C73.7544 127.401 73.8567 127.205 73.9416 127.008C74.0863 126.671 74.1802 126.327 74.2233 125.977C74.2263 125.953 74.2291 125.928 74.2316 125.903C74.249 125.733 74.2544 125.562 74.2479 125.389C74.2475 125.377 74.247 125.366 74.2465 125.354C74.2452 125.328 74.2437 125.302 74.242 125.276C74.2202 124.953 74.1574 124.626 74.0535 124.294L73.6202 122.907L69.9819 124.322L69.9804 124.323L69.4057 124.547ZM86.1827 111.39C84.9011 111.796 83.9884 112.57 83.4447 113.713C83.4192 113.767 83.3944 113.821 83.3705 113.877C83.3546 113.914 83.339 113.951 83.3238 113.988C83.3081 114.027 83.2928 114.066 83.2779 114.106C83.1152 114.541 83.0063 114.999 82.9511 115.479C82.9399 115.577 82.9309 115.675 82.9241 115.774C82.8916 116.249 82.9097 116.744 82.9784 117.261C83.0509 117.806 83.1796 118.375 83.3646 118.967C83.4523 119.247 83.5469 119.516 83.6485 119.773C83.8388 120.255 84.0534 120.695 84.2925 121.094C84.7776 121.904 85.3631 122.543 86.0491 123.014C86.0619 123.022 86.0748 123.031 86.0876 123.04C86.1484 123.081 86.2095 123.12 86.271 123.158C86.322 123.19 86.3733 123.22 86.4247 123.249C87.5292 123.876 88.7323 123.986 90.0341 123.579C90.0955 123.56 90.156 123.54 90.2157 123.52L87.2802 114.126C86.9842 113.179 86.6176 112.264 86.1827 111.39Z" fill="white"/>
<path fill-rule="evenodd" clip-rule="evenodd" d="M39.867 122.838L35.4628 124.214L40.9987 141.929L44.4079 140.864L40.549 128.515L40.6795 128.475L49.696 138.477L52.2896 137.666L54.0227 124.305L54.1532 124.264L58.012 136.612L61.4212 135.547L55.8853 117.832L51.6115 119.168L49.8866 134.102L49.7561 134.143L39.867 122.838ZM64.0122 115.582C63.3858 116.056 62.8535 116.61 62.4151 117.242C61.7314 118.228 61.3814 119.245 61.3652 120.294C61.3576 120.785 61.4231 121.283 61.5618 121.788L64.8731 120.753C64.8108 120.179 64.8953 119.644 65.1266 119.148C65.2256 118.936 65.3515 118.731 65.5042 118.533C66.0248 117.869 66.7636 117.387 67.7206 117.088C67.8786 117.039 68.0332 116.995 68.1845 116.959L69.6461 121.636L68.1539 122.199C67.4878 122.455 66.8827 122.731 66.3387 123.027C65.1248 123.686 64.2149 124.445 63.609 125.302C63.5555 125.377 63.5044 125.452 63.4559 125.529C62.6987 126.715 62.5469 128.034 63.0004 129.485C63.3963 130.752 64.089 131.711 65.0783 132.361C65.3201 132.52 65.5797 132.66 65.857 132.782C66.7674 133.177 67.7538 133.328 68.8164 133.236C69.3976 133.186 70.0015 133.062 70.6282 132.867C71.1884 132.692 71.708 132.464 72.1871 132.183C72.4039 132.055 72.6125 131.917 72.8127 131.768L76.4543 143.421L33.1243 156.962L20.4297 116.34L63.7597 102.799L67.2692 114.029C67.149 114.063 67.0279 114.099 66.906 114.137C66.142 114.376 65.4508 114.676 64.8321 115.036C64.5429 115.205 64.2696 115.387 64.0122 115.582ZM70.4313 124.148L72.0021 129.174C71.6103 129.407 71.1738 129.599 70.6924 129.749C69.8767 130.004 69.1471 130.072 68.5036 129.954C68.3407 129.924 68.1834 129.882 68.0316 129.829C67.2832 129.573 66.7902 129.065 66.5523 128.303C66.2561 127.356 66.4758 126.527 67.2113 125.819C67.7079 125.34 68.4398 124.916 69.4068 124.547L70.4313 124.148Z" fill="white"/>
<path fill-rule="evenodd" clip-rule="evenodd" d="M202.375 16.3967C202.533 16.9096 202.625 17.4067 202.652 17.888ZM201.362 21.5208C200.745 22.2111 199.934 22.7405 198.929 23.1089C198.806 23.1542 198.68 23.197 198.55 23.2374C197.377 23.604 196.286 23.6658 195.278 23.4229C195.02 23.3607 194.767 23.2785 194.52 23.1764C194.438 23.1426 194.356 23.1066 194.276 23.0683C194.274 23.0678 194.273 23.0672 194.272 23.0666C194.243 23.0531 194.215 23.0394 194.187 23.0253C193.989 22.9284 193.8 22.8208 193.62 22.7026C193.007 22.2982 192.506 21.7691 192.115 21.1154C191.878 20.7184 191.682 20.2755 191.527 19.7866M191.552 28.289L197.088 46.0037L200.563 44.9179L205.099 29.6958L205.229 29.6551L209.159 42.2315L212.634 41.1458L207.098 23.431L203.623 24.5168L199.072 39.69L198.942 39.7308L195.027 27.2032L191.552 28.289ZM202.033 20.5734C202.08 20.4885 202.125 20.4029 202.167 20.3166C202.197 20.2554 202.226 20.194 202.253 20.1321C202.563 19.4267 202.696 18.6786 202.652 17.888M227.667 49.0202L214.972 8.39797L212.672 9.11672L210.241 1.33594L176.486 11.8845L178.917 19.6652L176.519 20.4146L182.299 38.9102C182.349 38.9316 182.399 38.9536 182.448 38.9764C184.01 39.6941 185.082 40.9882 185.667 42.8586C186.252 44.729 186.108 46.4092 185.237 47.899C185.209 47.9458 185.181 47.9922 185.152 48.0382L189.214 61.0368L227.667 49.0202ZM191.045 15.8752L191.435 15.7535L191.139 15.6161C191.106 15.7014 191.075 15.7878 191.045 15.8752ZM191.145 15.6003L191.458 15.7463L200.132 13.0356L200.306 12.7376C200.048 12.5629 199.784 12.4083 199.517 12.2744C199.507 12.2691 199.496 12.2637 199.485 12.2585C199.476 12.2537 199.466 12.2489 199.456 12.2441C199.094 12.0696 198.717 11.9276 198.33 11.8196C197.84 11.6823 197.335 11.6 196.835 11.5757C195.951 11.5328 195.303 11.68 194.971 11.7836C194.654 11.8828 194.044 12.1258 193.345 12.6604C192.946 12.9659 192.575 13.3231 192.246 13.7204C191.991 14.0283 191.761 14.3602 191.563 14.7108C191.557 14.7203 191.552 14.7298 191.547 14.7393C191.541 14.7497 191.535 14.7602 191.529 14.7707C191.386 15.0327 191.257 15.3102 191.145 15.6003ZM200.32 12.7471L200.155 13.0285L200.544 12.9067C200.47 12.8518 200.395 12.7986 200.32 12.7471ZM191.519 19.7589L193.9 19.0146ZM193.9 19.0146C194.168 19.8361 194.601 20.4619 195.2 20.8919ZM195.2 20.8919C195.208 20.8971 195.215 20.9022 195.222 20.9073C195.226 20.9099 195.229 20.9125 195.233 20.9151C195.304 20.9642 195.376 21.0108 195.451 21.0546C196.21 21.4978 197.041 21.5783 197.944 21.2963C198.857 21.0108 199.5 20.4698 199.872 19.6732C199.908 19.5945 199.941 19.5149 199.971 19.4344C199.973 19.4302 199.974 19.4259 199.976 19.4216C200.065 19.1791 200.123 18.9284 200.151 18.6696C200.204 18.1799 200.149 17.6611 199.985 17.1133L202.366 16.369M187.605 29.5226L184.098 30.6185L189.634 48.3333L193.141 47.2373L187.605 29.5226ZM201.362 21.5208C201.598 21.2571 201.805 20.97 201.984 20.6593C201.985 20.6581 201.986 20.657 201.986 20.6558C202.002 20.6285 202.018 20.6011 202.033 20.5734" fill="white"/>
<path fill-rule="evenodd" clip-rule="evenodd" d="M195.481 14.4892L197.634 21.3795C196.851 21.5545 196.124 21.4461 195.453 21.0544C194.722 20.6262 194.205 19.9462 193.902 19.0144L191.52 19.7586C192.003 21.3028 192.892 22.3916 194.188 23.0251C195.404 23.6279 196.756 23.7286 198.243 23.3271L201.171 32.6974L199.074 39.6897L198.943 39.7305L195.028 27.2029L191.554 28.2887L197.09 46.0034L200.564 44.9177L202.724 37.6682L208.175 55.1115L166.085 68.2648L160.079 49.0466L164.062 47.8019L166.489 55.5664L169.996 54.4704L164.46 36.7557L160.953 37.8517L163.186 44.9963L159.203 46.2409L153.391 27.6426L195.481 14.4892ZM182.021 38.7985C181.994 38.7884 181.967 38.7786 181.94 38.7689C181.939 38.7687 181.939 38.7686 181.938 38.7684C180.725 38.3388 179.373 38.2932 177.881 38.6316C177.601 38.6952 177.315 38.7723 177.025 38.863L173.649 39.9181L171.931 34.421L168.424 35.517L173.96 53.2317L180.843 51.0806C181.133 50.9899 181.412 50.8909 181.678 50.7835C183.111 50.2066 184.205 49.3887 184.958 48.3301C184.964 48.3221 184.969 48.3141 184.975 48.3061C184.979 48.3003 184.983 48.2945 184.987 48.2887C185.076 48.1621 185.159 48.0321 185.238 47.8987C185.509 47.4367 185.709 46.9563 185.839 46.4577C186.129 45.3485 186.072 44.1487 185.668 42.8583C185.264 41.5644 184.626 40.5462 183.754 39.8039C183.366 39.4732 182.931 39.1973 182.45 38.9761C182.309 38.9114 182.166 38.8522 182.021 38.7985ZM178.778 41.5018C178.494 41.5175 178.199 41.5645 177.894 41.643C177.802 41.6667 177.709 41.6932 177.614 41.7226L174.515 42.6912L176.595 49.3464L179.694 48.3779C179.788 48.3485 179.88 48.3172 179.969 48.2841C180.264 48.1747 180.533 48.0451 180.776 47.8952C181.292 47.5765 181.69 47.1661 181.97 46.6641C182.066 46.4887 182.144 46.3086 182.204 46.124C182.206 46.1184 182.207 46.1128 182.209 46.1072C182.42 45.4481 182.404 44.7304 182.161 43.9543C181.92 43.1813 181.528 42.5843 180.985 42.1635C180.817 42.0338 180.636 41.9208 180.439 41.8246C179.933 41.5763 179.379 41.4687 178.778 41.5018ZM189.635 48.333L193.142 47.237L187.607 29.5223L184.099 30.6183L189.635 48.333Z" fill="white"/>
<path fill-rule="evenodd" clip-rule="evenodd" d="M160.952 37.8518L163.185 44.9964L154.882 47.591L152.65 40.4464L149.142 41.5424L154.678 59.2571L158.185 58.1611L155.759 50.3967L164.062 47.802L166.488 55.5665L169.995 54.4705L164.459 36.7558L160.952 37.8518ZM146.804 74.2902L143.225 62.8364L144.891 62.3156C145.547 62.1106 146.143 61.8629 146.679 61.5726C147.822 60.9535 148.691 60.1406 149.286 59.1338C150.158 57.6439 150.301 55.9638 149.716 54.0934C149.533 53.5062 149.301 52.9758 149.022 52.5022C148.41 51.4672 147.569 50.7036 146.498 50.2112C145.435 49.7226 144.258 49.5491 142.966 49.6908C142.36 49.7572 141.729 49.893 141.073 50.098L139.407 50.6188L134.109 33.668L172.334 21.7227L177.636 38.6902C177.435 38.741 177.231 38.7986 177.025 38.8631L173.648 39.9183L171.93 34.4212L168.423 35.5171L173.959 53.2318L180.843 51.0807C181.049 51.0162 181.249 50.9475 181.444 50.8746L185.028 62.345L146.804 74.2902ZM178.522 41.5242L180.553 48.0232C180.293 48.162 180.006 48.2803 179.694 48.378L176.594 49.3465L174.515 42.6913L177.614 41.7228C177.927 41.6248 178.23 41.5586 178.522 41.5242ZM142.353 60.0471L140.273 53.3919L141.662 52.9577C142.504 52.6947 143.268 52.6606 143.955 52.8553C144.138 52.9072 144.315 52.9753 144.487 53.0596C144.804 53.2151 145.083 53.4143 145.325 53.6572C145.719 54.0523 146.014 54.563 146.209 55.1893C146.522 56.1898 146.458 57.0931 146.018 57.8992C145.921 58.0732 145.81 58.2362 145.684 58.3882C145.226 58.9433 144.579 59.3515 143.742 59.6129L142.353 60.0471Z" fill="white"/>
<path fill-rule="evenodd" clip-rule="evenodd" d="M146.088 37.7769L143.852 30.6233L117.438 38.8779L121.017 50.3317L128.507 47.991L134.043 65.7058L130.536 66.8017L125.877 51.8927L121.894 53.1373L130.132 79.5002L148.469 73.7697C152.613 72.4749 156.873 69.8778 159.614 65.2429L159.629 65.2176L159.644 65.1922C162.459 60.3777 162.61 55.1258 161.169 50.5143C160.998 49.9666 160.803 49.4239 160.584 48.8888L155.758 50.397L158.184 58.1614L154.677 59.2574L149.141 41.5427L152.648 40.4467L154.881 47.5913L159.246 46.2271C157.515 43.3655 154.966 40.8978 151.509 39.3084C149.698 38.476 147.876 37.9914 146.088 37.7769ZM135.978 45.6564L132.471 46.7523L138.006 64.4671L144.89 62.3159C146.74 61.7379 148.111 60.8211 149.005 59.5654C149.011 59.5574 149.016 59.5494 149.022 59.5414C149.026 59.5356 149.03 59.5298 149.034 59.524C149.123 59.3974 149.206 59.2674 149.285 59.1341C149.555 58.672 149.756 58.1917 149.886 57.693C150.175 56.5838 150.119 55.384 149.715 54.0937C149.311 52.7997 148.673 51.7816 147.801 51.0393C147.413 50.7086 146.978 50.4327 146.497 50.2115C146.356 50.1467 146.213 50.0875 146.068 50.0339C146.041 50.0238 146.014 50.0139 145.987 50.0043C145.986 50.0041 145.986 50.0039 145.985 50.0037C144.544 49.4935 142.907 49.525 141.072 50.0983L137.696 51.1535L135.978 45.6564ZM143.741 59.6132C143.835 59.5838 143.927 59.5526 144.016 59.5195C144.938 59.1775 145.605 58.6375 146.017 57.8995C146.112 57.724 146.191 57.544 146.251 57.3594C146.253 57.3538 146.254 57.3482 146.256 57.3425C146.467 56.6834 146.451 55.9658 146.208 55.1896C145.967 54.4166 145.574 53.8197 145.031 53.3989C144.864 53.2692 144.682 53.1562 144.486 53.0599C143.741 52.6943 142.892 52.6338 141.941 52.8783C141.849 52.902 141.755 52.9286 141.661 52.958L138.562 53.9265L140.642 60.5818L143.741 59.6132Z" fill="white"/>
<path fill-rule="evenodd" clip-rule="evenodd" d="M110.884 57.7675C111.197 58.2373 111.447 58.7714 111.634 59.3697L115.431 71.5221L112.055 72.5773L111.132 69.6248L111.05 69.6503C110.86 70.7602 110.348 71.7559 109.513 72.6374C109.079 73.0955 108.594 73.4859 108.057 73.8087C107.56 74.1072 107.019 74.3478 106.434 74.5306C106.384 74.5463 106.334 74.5615 106.284 74.5762L108.694 82.2872L116.962 82.781C119.263 82.9184 121.214 82.4664 122.52 82.0583C123.323 81.8072 124.104 81.5035 124.858 81.1485L149.076 73.5802L145.492 62.1099C145.297 62.1828 145.097 62.2515 144.891 62.316L138.007 64.4671L132.471 46.7524L135.978 45.6564L137.696 51.1535L141.072 50.0984C141.279 50.0339 141.483 49.9763 141.684 49.9255L136.382 32.958L101.978 43.7091L104.781 55.3473C106.102 55.1914 107.301 55.3316 108.377 55.7679C108.393 55.7743 108.409 55.7807 108.425 55.7872C108.441 55.7939 108.458 55.8007 108.474 55.8075C108.757 55.9265 109.024 56.0627 109.274 56.2161C109.925 56.6161 110.462 57.1332 110.884 57.7675ZM128.507 47.9911L116.273 51.8142L118.619 61.5555C119.037 63.275 119.194 64.5987 119.09 65.5264C119.06 65.8068 119.005 66.0595 118.926 66.2843C118.925 66.2865 118.924 66.2887 118.924 66.2909C118.792 66.6637 118.593 66.9597 118.328 67.179C118.265 67.2315 118.198 67.2795 118.127 67.3232C118.069 67.3588 118.008 67.3914 117.946 67.4212C117.923 67.4318 117.9 67.4421 117.877 67.4519C117.812 67.4798 117.744 67.5047 117.674 67.5267C117.348 67.6286 117.024 67.682 116.704 67.6867L117.677 70.8023C117.961 70.8193 118.289 70.7799 118.661 70.6843C118.751 70.6611 118.845 70.6345 118.94 70.6045C119.005 70.5843 119.069 70.5632 119.132 70.5415C119.557 70.3954 119.942 70.2165 120.286 70.0048C120.306 69.9929 120.325 69.981 120.344 69.9689C121.176 69.4425 121.77 68.7204 122.126 67.8024C122.212 67.5818 122.283 67.3499 122.341 67.1066C122.429 66.744 122.486 66.3452 122.515 65.9103C122.515 65.9072 122.515 65.9041 122.515 65.901C122.516 65.8907 122.517 65.8803 122.517 65.87C122.574 64.9211 122.493 63.8018 122.272 62.5121C122.177 61.9601 122.057 61.377 121.911 60.7627C121.911 60.7603 121.91 60.758 121.91 60.7556C121.905 60.7348 121.9 60.7139 121.895 60.693L120.249 53.6514L125.877 51.8927L130.536 66.8018L134.043 65.7058L128.507 47.9911ZM102.419 55.8973L100.456 55.9264L100.689 56.671C101.214 56.3698 101.79 56.1119 102.419 55.8973ZM101.667 59.8021L103.054 64.2401C103.342 64.1099 103.644 63.984 103.96 63.8627L108.653 62.0918L108.224 60.7216C107.908 59.7102 107.339 59.0347 106.517 58.6948C106.215 58.5708 105.887 58.4957 105.533 58.4695C104.938 58.4256 104.269 58.5198 103.527 58.7519C102.771 58.9881 102.151 59.3382 101.667 59.8021ZM142.57 52.7595C142.278 52.7939 141.975 52.8601 141.662 52.958L138.562 53.9266L140.642 60.5818L143.742 59.6133C144.054 59.5155 144.341 59.3973 144.601 59.2585L142.57 52.7595ZM105.371 71.6525C105.726 71.6167 106.102 71.5369 106.498 71.413C107.366 71.1419 108.088 70.7372 108.665 70.1989C108.963 69.9209 109.222 69.6072 109.442 69.2578C110.085 68.2213 110.224 67.1213 109.861 65.9577L109.427 64.5712L105.213 66.2106C104.698 66.4072 104.25 66.6193 103.869 66.8468L105.371 71.6525Z" fill="white"/>
<path fill-rule="evenodd" clip-rule="evenodd" d="M117.792 70.8059C118.12 70.8083 118.503 70.7411 118.941 70.6043C119.442 70.4477 119.891 70.2478 120.287 70.0046C121.082 69.5167 121.665 68.8547 122.037 68.0186C122.163 67.7346 122.265 67.4306 122.342 67.1064C122.413 66.8134 122.464 66.4967 122.496 66.1564C122.498 66.1282 122.501 66.0998 122.503 66.0713C122.51 65.993 122.515 65.9134 122.52 65.8327C122.597 64.4684 122.389 62.7551 121.895 60.6928L120.25 53.6512L122.014 53.1C122.438 53.9606 122.797 54.8598 123.088 55.7902L130.465 79.3963L112.561 84.9914C111.736 85.3814 110.885 85.7121 110.014 85.9842C109.13 86.2604 108.21 86.486 107.263 86.647L104.181 87.6102L103.967 86.9254C101.666 86.92 99.2713 86.4876 96.8918 85.4563L96.861 85.4429L96.8302 85.4294C91.9992 83.3035 88.7966 79.3469 87.3532 74.7281C87.1789 74.1704 87.0324 73.6067 86.9144 73.0391L94.8626 77.9499L99.2831 76.5684L88.1634 69.748L93.4536 58.9455L89.2451 60.2606L85.9479 67.1789L85.7974 66.6313C84.3447 61.3449 85.5 56.193 88.3606 52.0677C91.1528 48.041 95.0794 45.6144 99.1333 44.3476C103.131 43.0984 107.989 42.6693 112.863 44.6372C116.035 45.9126 118.59 47.9578 120.449 50.5094L116.274 51.814L118.62 61.5553C118.631 61.6 118.641 61.6444 118.652 61.6885C118.774 62.2012 118.872 62.6778 118.947 63.1183C119.113 64.0999 119.161 64.9025 119.091 65.5262C118.973 66.6015 118.501 67.2682 117.675 67.5265C117.349 67.6284 117.025 67.6818 116.704 67.6866L117.678 70.8021C117.694 70.8031 117.711 70.8039 117.728 70.8045C117.749 70.8053 117.77 70.8057 117.792 70.8059ZM115.432 71.5219L111.634 59.3695C111.375 58.5402 110.995 57.8343 110.494 57.2518C109.938 56.6047 109.233 56.11 108.378 55.7677C108.192 55.6923 108.003 55.6258 107.809 55.5681C107.808 55.5676 107.806 55.567 107.804 55.5665C107.26 55.4047 106.688 55.3129 106.087 55.2908C105.997 55.2875 105.907 55.2858 105.816 55.2856C104.854 55.2836 103.819 55.4555 102.713 55.8013C102.68 55.8115 102.647 55.8219 102.615 55.8323C102.196 55.9673 101.798 56.121 101.424 56.2933C101.404 56.3021 101.385 56.3109 101.366 56.3198C101.294 56.3534 101.223 56.3878 101.153 56.4228C101.138 56.4303 101.123 56.4378 101.108 56.4454C100.392 56.8071 99.763 57.2416 99.221 57.749C99.0645 57.8955 98.9152 58.0481 98.7732 58.2068C98.7677 58.213 98.7621 58.2193 98.7566 58.2255C98.565 58.4411 98.3867 58.6678 98.2218 58.9057C97.3582 60.151 97.027 61.4464 97.2282 62.7918C97.2609 63.0104 97.3076 63.2303 97.3684 63.4516L100.68 62.4168C100.631 61.9672 100.672 61.5414 100.804 61.1396C100.842 61.0218 100.888 60.906 100.942 60.7922C101.04 60.5869 101.163 60.3883 101.311 60.1964C101.337 60.1625 101.364 60.1292 101.392 60.0963C101.629 59.8147 101.907 59.5678 102.227 59.3557C102.236 59.3499 102.245 59.3442 102.253 59.3385C102.328 59.2895 102.406 59.2423 102.486 59.1971C102.499 59.1897 102.512 59.1823 102.525 59.175C102.827 59.0072 103.161 58.8661 103.527 58.7517C103.56 58.7415 103.593 58.7315 103.625 58.7218C104.625 58.4231 105.488 58.3789 106.215 58.5892C106.318 58.6191 106.419 58.6543 106.517 58.6946C106.716 58.7766 106.899 58.878 107.068 58.9989C107.072 59.0018 107.076 59.0047 107.08 59.0076C107.175 59.0768 107.266 59.1523 107.352 59.234C107.501 59.376 107.636 59.537 107.757 59.717C107.868 59.8816 107.966 60.0622 108.053 60.2586C108.082 60.3248 108.109 60.3929 108.136 60.4628C108.139 60.4718 108.143 60.4808 108.146 60.4899C108.174 60.565 108.2 60.6422 108.225 60.7214L108.653 62.0916L103.961 63.8625C103.697 63.9638 103.443 64.0682 103.199 64.1757C102.836 64.3355 102.493 64.5023 102.172 64.6758C102.151 64.687 102.131 64.6982 102.11 64.7094C101.902 64.8237 101.702 64.9409 101.512 65.0611C101.51 65.0621 101.509 65.0631 101.507 65.0641C101.481 65.0807 101.455 65.0973 101.429 65.114C101.265 65.2195 101.108 65.3273 100.958 65.4373C100.319 65.9062 99.8045 66.4157 99.4156 66.9658C99.3912 67 99.3673 67.0343 99.3439 67.0688C99.3324 67.0857 99.3211 67.1026 99.3099 67.1195C99.1651 67.3381 99.0411 67.5613 98.9378 67.789C98.9273 67.8123 98.9169 67.8356 98.9068 67.8589C98.8744 67.9337 98.8443 68.009 98.8163 68.0847C98.6496 68.5364 98.5618 69.0053 98.5529 69.4914C98.5436 70.003 98.6216 70.5337 98.7869 71.0834C98.7935 71.1052 98.8002 71.127 98.807 71.1488C99.0513 71.9305 99.4084 72.5947 99.8785 73.1416C100.098 73.3974 100.343 73.6274 100.612 73.8318C100.929 74.072 101.279 74.2766 101.664 74.4458C101.773 74.4934 101.884 74.5374 101.996 74.5778C102.218 74.658 102.444 74.7244 102.674 74.7768C102.687 74.7798 102.7 74.7828 102.714 74.7857C103.104 74.8718 103.507 74.9182 103.923 74.9249C104.153 74.9286 104.386 74.9202 104.623 74.8997C105.204 74.8494 105.808 74.7263 106.435 74.5304C106.757 74.4296 107.067 74.3112 107.362 74.1753C107.503 74.1107 107.64 74.0422 107.775 73.9696C107.795 73.9588 107.815 73.9478 107.835 73.9367C107.888 73.9072 107.941 73.8771 107.994 73.8463C108.031 73.8243 108.069 73.8018 108.106 73.7791C108.12 73.7706 108.134 73.762 108.148 73.7534C108.284 73.6683 108.418 73.5787 108.548 73.4846C108.562 73.4741 108.577 73.4636 108.591 73.453C108.921 73.2103 109.229 72.9384 109.514 72.6372C109.685 72.4566 109.842 72.2711 109.986 72.0808C110.08 71.9571 110.168 71.8314 110.25 71.7036C110.556 71.2287 110.782 70.7257 110.929 70.1947C110.93 70.1906 110.932 70.1864 110.933 70.1822C110.981 70.0078 111.02 69.8305 111.051 69.6501L111.133 69.6246L112.055 72.5771L115.432 71.5219ZM105.213 66.2104C105.11 66.2499 105.009 66.2901 104.911 66.3309C104.911 66.3311 104.91 66.3312 104.91 66.3313C104.905 66.3335 104.9 66.3356 104.895 66.3377C104.877 66.3449 104.86 66.3521 104.843 66.3593C104.829 66.3655 104.814 66.3716 104.8 66.3778C104.512 66.5016 104.248 66.631 104.008 66.7661C103.993 66.7749 103.977 66.7838 103.961 66.7928C103.938 66.8062 103.915 66.8197 103.892 66.8332C103.871 66.8459 103.849 66.8586 103.828 66.8713C103.745 66.9221 103.664 66.9737 103.587 67.026C103.277 67.2368 103.02 67.4598 102.816 67.6953C102.804 67.7086 102.793 67.722 102.782 67.7355C102.662 67.879 102.561 68.0271 102.481 68.1797C102.481 68.1794 102.481 68.18 102.481 68.1797C102.463 68.2125 102.447 68.2463 102.431 68.2795C102.329 68.4986 102.266 68.7268 102.242 68.9641C102.241 68.9701 102.241 68.9761 102.24 68.9821C102.238 69.0076 102.236 69.0331 102.235 69.0588C102.234 69.0771 102.233 69.0954 102.232 69.1137C102.227 69.2978 102.244 69.4872 102.285 69.6819C102.303 69.769 102.325 69.8572 102.352 69.9465C102.355 69.9534 102.357 69.9603 102.359 69.9672C102.366 69.9891 102.373 70.0107 102.38 70.0322C102.403 70.1016 102.429 70.1688 102.457 70.2338C102.609 70.5892 102.828 70.8794 103.112 71.1044C103.117 71.1087 103.123 71.1131 103.128 71.1174C103.232 71.1981 103.345 71.2702 103.466 71.3337C103.582 71.3944 103.706 71.4473 103.838 71.4924C104.084 71.5796 104.345 71.6354 104.62 71.6598C104.907 71.6854 105.211 71.6766 105.53 71.6336C105.642 71.6184 105.757 71.599 105.873 71.5753C105.889 71.572 105.905 71.5687 105.921 71.5653C106.109 71.5254 106.301 71.4746 106.499 71.4128C106.593 71.3836 106.685 71.3528 106.775 71.3204C106.791 71.3147 106.806 71.309 106.822 71.3032C106.922 71.2665 107.02 71.2279 107.115 71.1874C107.125 71.1833 107.135 71.1792 107.145 71.175C107.334 71.0937 107.515 71.0047 107.687 70.9081C107.903 70.7878 108.105 70.6557 108.294 70.5117C108.719 70.1884 109.079 69.8053 109.374 69.3626C109.397 69.328 109.42 69.293 109.442 69.2576C109.562 69.0644 109.665 68.869 109.749 68.6715C109.894 68.3345 109.988 67.9911 110.031 67.6412C110.034 67.6165 110.037 67.5918 110.039 67.567C110.057 67.3971 110.062 67.2256 110.056 67.0526C110.055 67.0411 110.055 67.0296 110.054 67.0181C110.053 66.9919 110.052 66.9656 110.05 66.9393C110.028 66.6173 109.965 66.29 109.861 65.9575L109.428 64.571L105.213 66.2104Z" fill="white"/>
<path fill-rule="evenodd" clip-rule="evenodd" d="M128.067 80.1461L76.2063 96.3527L70.5003 78.0939L72.5818 71.1084L72.7123 71.0676L76.6425 83.6441L80.1169 82.5583L74.581 64.8436L71.1066 65.9294L68.948 73.1263L63.5117 55.7305L116.499 39.1718L108.373 55.7657C106.761 55.1141 104.875 55.1261 102.713 55.8016C100.723 56.4235 99.2259 57.4583 98.2221 58.906C97.7843 59.5373 97.4833 60.1815 97.3192 60.8386C97.2862 60.9706 97.2588 61.103 97.2368 61.236C97.1176 61.9593 97.1616 62.6979 97.3687 63.4519L100.68 62.4171C100.591 61.5974 100.801 60.8573 101.311 60.1967C101.832 59.5326 102.571 59.0511 103.528 58.752C104.713 58.3816 105.71 58.3626 106.518 58.6949C106.636 58.7437 106.749 58.7995 106.856 58.8622L104.509 63.6559L103.961 63.8627C103.874 63.8963 103.787 63.9302 103.702 63.9644C103.289 64.1305 102.901 64.3046 102.537 64.4867C101.232 65.1399 100.244 65.8959 99.5731 66.7547C99.5186 66.8245 99.4662 66.895 99.4159 66.9661C99.3108 67.1133 99.2154 67.2626 99.1295 67.4139C99.018 67.6104 98.9227 67.8104 98.8435 68.014C98.4679 68.9795 98.4559 70.0246 98.8073 71.1491C98.8359 71.2408 98.8662 71.3309 98.8979 71.4194C99.135 72.0798 99.4588 72.6502 99.8691 73.1305C100.156 73.466 100.485 73.7576 100.856 74.0052C101.106 74.1722 101.375 74.3191 101.664 74.4461C103.072 75.0565 104.663 75.0847 106.435 74.5307C107.653 74.1501 108.679 73.519 109.514 72.6375C110.335 71.7701 110.845 70.7921 111.042 69.7036L111.185 69.7912L112.056 72.5774L114.488 71.8172L128.067 80.1461ZM82.0519 62.5089L78.5448 63.6049L84.0807 81.3196L87.5878 80.2236L85.0135 71.9861L85.144 71.9454L94.8629 77.9502L99.2834 76.5687L88.1637 69.7483L93.4539 58.9458L89.2454 60.2609L84.5629 70.0858L84.4324 70.1266L82.0519 62.5089ZM109.664 68.8584L105.295 66.1789L105.214 66.2106C102.815 67.1275 101.863 68.3798 102.359 69.9675C102.462 70.2975 102.613 70.58 102.813 70.815C103.073 71.122 103.415 71.3479 103.838 71.4926C104.59 71.7591 105.477 71.7326 106.499 71.4131C107.815 71.0019 108.796 70.2835 109.443 69.2579C109.525 69.1258 109.598 68.9926 109.664 68.8584Z" fill="white"/>
<path fill-rule="evenodd" clip-rule="evenodd" d="M56.6965 102.449L50.6908 83.2312L54.6737 81.9865L57.1001 89.751L60.6071 88.655L55.0712 70.9403L51.5642 72.0362L53.7969 79.1808L49.814 80.4255L44.002 61.8271L82.4547 49.8105L87.1161 64.7271L84.5622 70.0858L84.4317 70.1266L82.0511 62.509L78.5441 63.6049L84.08 81.3197L87.587 80.2237L85.0128 71.9862L85.1433 71.9454L90.3837 75.1832L95.1493 90.4328L56.6965 102.449ZM80.1162 82.5584L74.5803 64.8436L71.1058 65.9294L66.5549 81.1026L66.4244 81.1433L62.5095 68.6158L59.035 69.7016L64.5709 87.4163L68.0454 86.3305L72.5811 71.1084L72.7116 71.0677L76.6417 83.6441L80.1162 82.5584ZM88.8092 70.1447L88.4819 69.0973L88.163 69.7484L88.8092 70.1447Z" fill="white"/>
<path fill-rule="evenodd" clip-rule="evenodd" d="M51.5636 72.0354L53.7963 79.18L45.4936 81.7746L43.2608 74.63L39.7538 75.726L45.2897 93.4407L48.7967 92.3447L46.3703 84.5803L54.6731 81.9856L57.0995 89.7501L60.6066 88.6541L55.0707 70.9394L51.5636 72.0354ZM37.4153 108.474L35.3854 101.978C35.9905 100.855 36.3374 99.2305 36.4262 97.1058L37.2744 76.5008L33.5553 77.663L33.5308 93.5702L33.4493 93.5957L32.2073 91.8085L24.7207 67.8516L62.9451 55.9063L68.6427 74.1387L66.5543 81.1017L66.4238 81.1425L62.5089 68.6149L59.0345 69.7007L64.5704 87.4154L68.0448 86.3297L70.1962 79.1095L75.6396 96.5286L37.4153 108.474Z" fill="white"/>
<path fill-rule="evenodd" clip-rule="evenodd" d="M21.4503 118.405L13.12 91.7478L0.667969 75.3691L49.9659 59.9634L49.1146 80.6441L45.4942 81.7755L43.2615 74.6308L39.7544 75.7268L45.2903 93.4415L48.6308 92.3976L48.4164 97.6076C48.2873 100.697 47.7322 105.036 45.2419 108.866C42.4621 113.155 38.3153 115.266 34.9464 116.319C34.0196 116.608 32.792 116.942 31.4354 117.117L21.4503 118.405ZM36.0496 100.143C36.1654 99.6512 36.256 99.1107 36.3215 98.5215C36.3243 98.4965 36.327 98.4713 36.3297 98.4461C36.3638 98.1266 36.3907 97.793 36.4103 97.4452C36.4165 97.3338 36.4221 97.221 36.4268 97.1066L37.275 76.5016L33.5559 77.6639L33.5315 93.571L33.4499 93.5965L24.3723 80.5338L20.5716 81.7215L32.5497 97.4767L32.5579 98.4769C32.5487 99.252 32.4369 99.8937 32.2227 100.402C32.2202 100.408 32.2176 100.414 32.2151 100.42C32.1463 100.58 32.0672 100.727 31.9778 100.86C31.7475 101.202 31.4226 101.489 31.003 101.72C30.8374 101.811 30.6571 101.894 30.462 101.969C30.3634 102.006 30.261 102.041 30.1549 102.075C29.9121 102.151 29.7002 102.211 29.5193 102.255C29.3033 102.307 29.1315 102.337 29.0039 102.345L29.9011 105.216C30.2202 105.175 30.6052 105.089 31.0562 104.959C31.1565 104.93 31.2602 104.898 31.3671 104.865C31.8808 104.704 32.3507 104.522 32.777 104.317C33.6455 103.9 34.3327 103.39 34.8385 102.789C34.8405 102.787 34.8425 102.784 34.8444 102.782C34.9658 102.637 35.0766 102.487 35.1769 102.332C35.4117 101.972 35.6139 101.55 35.7837 101.065C35.7995 101.019 35.8151 100.974 35.8303 100.927C35.9114 100.681 35.9845 100.42 36.0496 100.143ZM48.6521 91.8807L48.9862 83.7638L46.3709 84.5811L48.6521 91.8807Z" fill="white"/>
</svg>
