<svg width="18" height="16" viewBox="0 0 18 16" fill="none" xmlns="http://www.w3.org/2000/svg">
<g clip-path="url(#clip0_142_1597)">
<path d="M17.5839 7.79242C17.5839 7.53545 17.4892 7.29903 17.2998 7.10374L11.0226 0.309345C10.8143 0.0832082 10.6155 0.000976562 10.3882 0.000976562C9.92434 0.000976562 9.56453 0.371018 9.56453 0.884967C9.56453 1.13166 9.64028 1.36808 9.7918 1.53254L11.9126 3.87614L15.6713 7.59713L15.8607 7.08318L12.812 6.87759H0.835128C0.342797 6.87759 0.00195312 7.25792 0.00195312 7.79242C0.00195312 8.32693 0.342797 8.70724 0.835128 8.70724H12.812L15.8607 8.50167L15.6713 7.99801L11.9126 11.7087L9.7918 14.0523C9.64028 14.2065 9.56453 14.4532 9.56453 14.6998C9.56453 15.2138 9.92434 15.5839 10.3882 15.5839C10.6155 15.5839 10.8143 15.4914 11.0037 15.296L17.2998 8.48111C17.4892 8.28581 17.5839 8.04939 17.5839 7.79242Z" fill="black"/>
</g>
<defs>
<clipPath id="clip0_142_1597">
<rect width="17.9322" height="15.5932" fill="white"/>
</clipPath>
</defs>
</svg>
